SplineFontDB: 3.2
FontName: NotoSansSoyombo-Regular
FullName: Noto Sans Soyombo Regular
FamilyName: Noto Sans Soyombo
Weight: Book
Copyright: Copyright 2019 Google LLC. All Rights Reserved.
Version: 2.000
ItalicAngle: 0
UnderlinePosition: -125
UnderlineWidth: 50
Ascent: 800
Descent: 200
InvalidEm: 0
sfntRevision: 0x00020000
LayerCount: 2
Layer: 0 1 "+BBcEMAQ0BD0EOAQ5 +BD8EOwQwBD0A" 1
Layer: 1 1 "+BB8ENQRABDUENAQ9BDgEOQAA +BD8EOwQwBD0A" 0
XUID: [1021 59 1751208496 22815]
StyleMap: 0x0040
FSType: 0
OS2Version: 4
OS2_WeightWidthSlopeOnly: 1
OS2_UseTypoMetrics: 0
CreationTime: 1573062772
ModificationTime: 1634593204
PfmFamily: 17
TTFWeight: 400
TTFWidth: 5
LineGap: 0
VLineGap: 0
Panose: 2 11 5 2 4 5 4 2 2 4
OS2TypoAscent: 1239
OS2TypoAOffset: 0
OS2TypoDescent: -357
OS2TypoDOffset: 0
OS2TypoLinegap: 0
OS2WinAscent: 1239
OS2WinAOffset: 0
OS2WinDescent: 357
OS2WinDOffset: 0
HheadAscent: 1239
HheadAOffset: 0
HheadDescent: -357
HheadDOffset: 0
OS2SubXSize: 650
OS2SubYSize: 600
OS2SubXOff: 0
OS2SubYOff: 75
OS2SupXSize: 650
OS2SupYSize: 600
OS2SupXOff: 0
OS2SupYOff: 350
OS2StrikeYSize: 50
OS2StrikeYPos: 322
OS2CapHeight: 714
OS2XHeight: 536
OS2Vendor: 'GOOG'
OS2CodePages: 00000001.00000000
OS2UnicodeRanges: 00000003.02002000.00000000.00000000
Lookup: 6 0 0 "Contextual Chaining Substitution lookup 0" { "Contextual Chaining Substitution lookup 0 subtable"  } []
Lookup: 1 0 0 "Single Substitution lookup 1" { "Single Substitution lookup 1 subtable"  } []
Lookup: 1 0 0 "Single Substitution lookup 2" { "Single Substitution lookup 2 subtable"  } []
Lookup: 1 0 0 "Single Substitution lookup 3" { "Single Substitution lookup 3 subtable"  } []
Lookup: 1 0 0 "Single Substitution lookup 4" { "Single Substitution lookup 4 subtable"  } []
Lookup: 1 0 0 "Single Substitution lookup 5" { "Single Substitution lookup 5 subtable"  } []
Lookup: 1 0 0 "Single Substitution lookup 6" { "Single Substitution lookup 6 subtable"  } []

StartChar: .notdef
Encoding: 88 -1 0
Width: 600
Flags: W
HStem: 0 51<145 454> 663 51<145 454>
VStem: 94 51<51 663> 454 51<51 663>
LayerCount: 2
Fore
SplineSet
94 0 m 1,0,-1
 94 714 l 1,1,-1
 505 714 l 1,2,-1
 505 0 l 1,3,-1
 94 0 l 1,0,-1
145 51 m 1,4,-1
 454 51 l 1,5,-1
 454 663 l 1,6,-1
 145 663 l 1,7,-1
 145 51 l 1,4,-1
EndSplineSet
EndChar

StartChar: a-soyo
Encoding: 5 72272 3
Width: 620
GlyphClass: 2
Flags: MWO
HStem: 116 60<157.72 312.638> 309 64<203.879 318.682> 433 71<162.839 314.72> 589 125<248.235 271.789>
VStem: 34 114<516.801 589.16> 334 74<195.717 293.41> 452 94<0 703>
AnchorPoint: "+BBEENQQ3BEsEPARPBD0EPQQ+BDUA--1" 260 714 basechar 0
AnchorPoint: "+BBEENQQ3BEsEPARPBD0EPQQ+BDUA--0" 452 0 basechar 0
LayerCount: 2
Fore
SplineSet
60 714 m 1,0,-1
 546 714 l 1,1,-1
 546 -50 l 1,2,-1
 452 0 l 1,3,-1
 452 703 l 1,4,-1
 260 589 l 1,5,-1
 60 708 l 1,6,-1
 60 714 l 1,0,-1
110 609 m 0,7,8
 147 609 147 609 163 591 c 1,9,10
 156 584 156 584 152 574 c 128,-1,11
 148 564 148 564 148 553 c 0,12,13
 148 531 148 531 167 517.5 c 128,-1,14
 186 504 186 504 225 504 c 0,15,16
 274 504 274 504 316.5 521.5 c 128,-1,17
 359 539 359 539 399 572 c 1,18,-1
 428 535 l 1,19,20
 375 480 375 480 319.5 456.5 c 128,-1,21
 264 433 264 433 196 433 c 0,22,23
 125 433 125 433 79.5 459 c 128,-1,24
 34 485 34 485 34 535 c 0,25,26
 34 570 34 570 56 589.5 c 128,-1,27
 78 609 78 609 110 609 c 0,7,8
283 373 m 0,28,29
 337 373 337 373 372.5 340.5 c 128,-1,30
 408 308 408 308 408 250 c 0,31,32
 408 185 408 185 365 150.5 c 128,-1,33
 322 116 322 116 251 116 c 0,34,35
 189 116 189 116 131 146.5 c 128,-1,36
 73 177 73 177 14 255 c 1,37,-1
 48 291 l 1,38,39
 141 176 141 176 244 176 c 0,40,41
 288 176 288 176 311 194.5 c 128,-1,42
 334 213 334 213 334 246 c 0,43,44
 334 274 334 274 317 291.5 c 128,-1,45
 300 309 300 309 267 309 c 0,46,47
 215 309 215 309 181 265 c 1,48,-1
 146 286 l 1,49,50
 193 373 193 373 283 373 c 0,28,29
EndSplineSet
MultipleSubs2: "Multiple Substitution lookup 248 subtable" head-soyo aSub-soyo
MultipleSubs2: "Multiple Substitution lookup 57 subtable" head-soyo aSub-soyo
EndChar

StartChar: aFinal-soyo
Encoding: 74 72341 4
Width: 0
GlyphClass: 4
Flags: W
HStem: 98 124
VStem: -69 99
AnchorPoint: "+BBEENQQ3BEsEPARPBD0EPQQ+BDUA--2" -148 0 basemark 0
AnchorPoint: "+BBEENQQ3BEsEPARPBD0EPQQ+BDUA--2" -148 0 mark 0
AnchorPoint: "+BBEENQQ3BEsEPARPBD0EPQQ+BDUA--0" -148 0 mark 0
LayerCount: 2
Fore
SplineSet
-69 222 m 1,0,-1
 30 136 l 1,1,-1
 30 98 l 1,2,-1
 -69 149 l 1,3,-1
 -69 222 l 1,0,-1
EndSplineSet
Substitution2: "Single Substitution lookup 32 subtable" aFinal-soyo
Substitution2: "Single Substitution lookup 31 subtable" sFinal-soyo
Substitution2: "Single Substitution lookup 30 subtable" shFinal-soyo
Substitution2: "Single Substitution lookup 29 subtable" lFinal-soyo
Substitution2: "Single Substitution lookup 28 subtable" rFinal-soyo
Substitution2: "Single Substitution lookup 27 subtable" mFinal-soyo
Substitution2: "Single Substitution lookup 26 subtable" bFinal-soyo
Substitution2: "Single Substitution lookup 25 subtable" nFinal-soyo
Substitution2: "Single Substitution lookup 24 subtable" dFinal-soyo
Substitution2: "Single Substitution lookup 23 subtable" ngFinal-soyo
Substitution2: "Single Substitution lookup 22 subtable" kFinal-soyo
Substitution2: "Single Substitution lookup 21 subtable" gFinal-soyo
Position2: "Single Positioning lookup 42 subtable" dx=0 dy=0 dh=50 dv=0
Position2: "Single Positioning lookup 40 subtable" dx=0 dy=0 dh=50 dv=0
EndChar

StartChar: aSub-soyo
Encoding: 89 -1 5
Width: 0
GlyphClass: 4
Flags: W
HStem: 116 60<-462.28 -307.362> 309 64<-416.121 -301.318> 433 71<-457.161 -305.28>
VStem: -586 114<516.801 589.16> -286 74<195.717 293.41> -168 94<65 549>
AnchorPoint: "+BBEENQQ3BEsEPARPBD0EPQQ+BDUA--2" -168 65 basemark 0
AnchorPoint: "+BBEENQQ3BEsEPARPBD0EPQQ+BDUA--2" -168 549 mark 0
AnchorPoint: "+BBEENQQ3BEsEPARPBD0EPQQ+BDUA--0" -168 549 mark 0
LayerCount: 2
Fore
SplineSet
-510 609 m 0,0,1
 -473 609 -473 609 -457 591 c 1,2,3
 -464 584 -464 584 -468 574 c 128,-1,4
 -472 564 -472 564 -472 553 c 0,5,6
 -472 531 -472 531 -453 517.5 c 128,-1,7
 -434 504 -434 504 -395 504 c 0,8,9
 -346 504 -346 504 -303.5 521.5 c 128,-1,10
 -261 539 -261 539 -221 572 c 1,11,-1
 -192 535 l 1,12,13
 -245 480 -245 480 -300.5 456.5 c 128,-1,14
 -356 433 -356 433 -424 433 c 0,15,16
 -495 433 -495 433 -540.5 459 c 128,-1,17
 -586 485 -586 485 -586 535 c 0,18,19
 -586 570 -586 570 -564 589.5 c 128,-1,20
 -542 609 -542 609 -510 609 c 0,0,1
-168 549 m 1,21,-1
 -74 549 l 1,22,-1
 -74 15 l 1,23,-1
 -168 65 l 1,24,-1
 -168 549 l 1,21,-1
-337 373 m 0,25,26
 -283 373 -283 373 -247.5 340.5 c 128,-1,27
 -212 308 -212 308 -212 250 c 0,28,29
 -212 185 -212 185 -255 150.5 c 128,-1,30
 -298 116 -298 116 -369 116 c 0,31,32
 -431 116 -431 116 -489 146.5 c 128,-1,33
 -547 177 -547 177 -606 255 c 1,34,-1
 -572 291 l 1,35,36
 -479 176 -479 176 -376 176 c 0,37,38
 -332 176 -332 176 -309 194.5 c 128,-1,39
 -286 213 -286 213 -286 246 c 0,40,41
 -286 274 -286 274 -303 291.5 c 128,-1,42
 -320 309 -320 309 -353 309 c 0,43,44
 -405 309 -405 309 -439 265 c 1,45,-1
 -474 286 l 1,46,47
 -427 373 -427 373 -337 373 c 0,25,26
EndSplineSet
Substitution2: "Single Substitution lookup 279 subtable" aSub-soyo.ini2
Substitution2: "Single Substitution lookup 277 subtable" aSub-soyo.2
Substitution2: "Single Substitution lookup 276 subtable" aSub-soyo.ini2
Substitution2: "Single Substitution lookup 274 subtable" aSub-soyo.3
Substitution2: "Single Substitution lookup 272 subtable" aSub-soyo.ini3
Substitution2: "Single Substitution lookup 270 subtable" aSub-soyo.3
Substitution2: "Single Substitution lookup 269 subtable" aSub-soyo.3
Substitution2: "Single Substitution lookup 268 subtable" aSub-soyo.3
Substitution2: "Single Substitution lookup 267 subtable" aSub-soyo.3
Substitution2: "Single Substitution lookup 266 subtable" aSub-soyo.3
Substitution2: "Single Substitution lookup 265 subtable" aSub-soyo.3
Substitution2: "Single Substitution lookup 264 subtable" aSub-soyo.3
Substitution2: "Single Substitution lookup 263 subtable" aSub-soyo.3
Substitution2: "Single Substitution lookup 262 subtable" aSub-soyo.3
Substitution2: "Single Substitution lookup 260 subtable" aSub-soyo.ini3
MultipleSubs2: "Multiple Substitution lookup 141 subtable" aSub-soyo joiner-soyo.right
MultipleSubs2: "Multiple Substitution lookup 99 subtable" aSub-soyo tail-soyo.long
EndChar

StartChar: aSub-soyo.2
Encoding: 90 -1 6
Width: 0
GlyphClass: 4
Flags: W
HStem: 87 60<-469.009 -305.092> 259 64<-411.525 -298.955> 377 69<-458.157 -298.447>
VStem: -586 114<458.027 520.654> -286 74<162.813 246.222> -168 94<40 549>
AnchorPoint: "+BBEENQQ3BEsEPARPBD0EPQQ+BDUA--2" -168 40 basemark 0
AnchorPoint: "+BBEENQQ3BEsEPARPBD0EPQQ+BDUA--2" -168 549 mark 0
AnchorPoint: "+BBEENQQ3BEsEPARPBD0EPQQ+BDUA--0" -168 549 mark 0
LayerCount: 2
Fore
SplineSet
-168 549 m 1,0,-1
 -74 549 l 1,1,-1
 -74 -10 l 1,2,-1
 -168 40 l 1,3,-1
 -168 549 l 1,0,-1
-513 539 m 0,4,5
 -476 539 -476 539 -460 521 c 1,6,7
 -466 517 -466 517 -469 508 c 128,-1,8
 -472 499 -472 499 -472 491 c 0,9,10
 -472 471 -472 471 -453.5 458.5 c 128,-1,11
 -435 446 -435 446 -396 446 c 0,12,13
 -346 446 -346 446 -303.5 462.5 c 128,-1,14
 -261 479 -261 479 -219 510 c 1,15,-1
 -192 471 l 1,16,17
 -243 419 -243 419 -300.5 398 c 128,-1,18
 -358 377 -358 377 -426 377 c 0,19,20
 -496 377 -496 377 -541 401 c 128,-1,21
 -586 425 -586 425 -586 471 c 0,22,23
 -586 503 -586 503 -565 521 c 128,-1,24
 -544 539 -544 539 -513 539 c 0,4,5
-333 323 m 0,25,26
 -280 323 -280 323 -246 293 c 128,-1,27
 -212 263 -212 263 -212 209 c 0,28,29
 -212 150 -212 150 -254 118.5 c 128,-1,30
 -296 87 -296 87 -367 87 c 0,31,32
 -428 87 -428 87 -486.5 114.5 c 128,-1,33
 -545 142 -545 142 -606 212 c 1,34,-1
 -573 250 l 1,35,36
 -525 197 -525 197 -476 172 c 128,-1,37
 -427 147 -427 147 -374 147 c 0,38,39
 -330 147 -330 147 -308 162.5 c 128,-1,40
 -286 178 -286 178 -286 206 c 0,41,42
 -286 229 -286 229 -301.5 244 c 128,-1,43
 -317 259 -317 259 -348 259 c 0,44,45
 -373 259 -373 259 -395 249 c 128,-1,46
 -417 239 -417 239 -434 218 c 1,47,-1
 -469 239 l 1,48,49
 -421 323 -421 323 -333 323 c 0,25,26
EndSplineSet
EndChar

StartChar: aSub-soyo.3
Encoding: 91 -1 7
Width: 0
GlyphClass: 4
Flags: W
HStem: 137 60<-472.723 -296.239> 288 64<-408.443 -296.244> 390 69<-458.896 -296.257>
VStem: -586 114<469.734 521.88> -286 74<209.25 278.113> -168 94<95 549>
AnchorPoint: "+BBEENQQ3BEsEPARPBD0EPQQ+BDUA--2" -168 95 basemark 0
AnchorPoint: "+BBEENQQ3BEsEPARPBD0EPQQ+BDUA--2" -168 549 mark 0
AnchorPoint: "+BBEENQQ3BEsEPARPBD0EPQQ+BDUA--0" -168 549 mark 0
LayerCount: 2
Fore
SplineSet
-168 549 m 1,0,-1
 -74 549 l 1,1,-1
 -74 45 l 1,2,-1
 -168 95 l 1,3,-1
 -168 549 l 1,0,-1
-515 539 m 0,4,5
 -480 539 -480 539 -463 522 c 1,6,7
 -472 515 -472 515 -472 498 c 256,8,9
 -472 481 -472 481 -453.5 470 c 128,-1,10
 -435 459 -435 459 -397 459 c 0,11,12
 -347 459 -347 459 -304 474 c 128,-1,13
 -261 489 -261 489 -218 517 c 1,14,-1
 -192 477 l 1,15,16
 -244 429 -244 429 -302 409.5 c 128,-1,17
 -360 390 -360 390 -428 390 c 0,18,19
 -497 390 -497 390 -541.5 412 c 128,-1,20
 -586 434 -586 434 -586 477 c 0,21,22
 -586 506 -586 506 -565.5 522.5 c 128,-1,23
 -545 539 -545 539 -515 539 c 0,4,5
-328 352 m 0,24,25
 -278 352 -278 352 -245 325 c 128,-1,26
 -212 298 -212 298 -212 249 c 0,27,28
 -212 195 -212 195 -253 166 c 128,-1,29
 -294 137 -294 137 -365 137 c 0,30,31
 -425 137 -425 137 -484.5 161.5 c 128,-1,32
 -544 186 -544 186 -606 250 c 1,33,-1
 -573 288 l 1,34,35
 -478 197 -478 197 -372 197 c 0,36,37
 -286 197 -286 197 -286 246 c 0,38,39
 -286 265 -286 265 -300.5 276.5 c 128,-1,40
 -315 288 -315 288 -344 288 c 0,41,42
 -368 288 -368 288 -390.5 279 c 128,-1,43
 -413 270 -413 270 -430 250 c 1,44,-1
 -465 271 l 1,45,46
 -416 352 -416 352 -328 352 c 0,24,25
EndSplineSet
EndChar

StartChar: aSub-soyo.ini2
Encoding: 92 -1 8
Width: 0
GlyphClass: 4
Flags: W
HStem: 157 60<-469.009 -305.092> 329 64<-411.525 -298.955> 447 69<-458.157 -299.884>
VStem: -586 114<528.027 590.654> -286 74<232.813 316.222> -168 94<110 549>
AnchorPoint: "+BBEENQQ3BEsEPARPBD0EPQQ+BDUA--2" -168 110 basemark 0
AnchorPoint: "+BBEENQQ3BEsEPARPBD0EPQQ+BDUA--2" -168 549 mark 0
AnchorPoint: "+BBEENQQ3BEsEPARPBD0EPQQ+BDUA--0" -168 549 mark 0
LayerCount: 2
Fore
SplineSet
-513 609 m 0,0,1
 -476 609 -476 609 -460 591 c 1,2,3
 -466 587 -466 587 -469 578 c 128,-1,4
 -472 569 -472 569 -472 561 c 0,5,6
 -472 541 -472 541 -453.5 528.5 c 128,-1,7
 -435 516 -435 516 -396 516 c 0,8,9
 -346 516 -346 516 -303.5 532.5 c 128,-1,10
 -261 549 -261 549 -219 580 c 1,11,-1
 -192 541 l 1,12,13
 -246 489 -246 489 -302 468 c 128,-1,14
 -358 447 -358 447 -426 447 c 0,15,16
 -496 447 -496 447 -541 471 c 128,-1,17
 -586 495 -586 495 -586 541 c 0,18,19
 -586 573 -586 573 -565 591 c 128,-1,20
 -544 609 -544 609 -513 609 c 0,0,1
-168 549 m 1,21,-1
 -74 549 l 1,22,-1
 -74 60 l 1,23,-1
 -168 110 l 1,24,-1
 -168 549 l 1,21,-1
-333 393 m 0,25,26
 -280 393 -280 393 -246 363 c 128,-1,27
 -212 333 -212 333 -212 279 c 0,28,29
 -212 220 -212 220 -254 188.5 c 128,-1,30
 -296 157 -296 157 -367 157 c 0,31,32
 -428 157 -428 157 -486.5 184.5 c 128,-1,33
 -545 212 -545 212 -606 282 c 1,34,-1
 -573 320 l 1,35,36
 -525 267 -525 267 -476 242 c 128,-1,37
 -427 217 -427 217 -374 217 c 0,38,39
 -330 217 -330 217 -308 232.5 c 128,-1,40
 -286 248 -286 248 -286 276 c 0,41,42
 -286 299 -286 299 -301.5 314 c 128,-1,43
 -317 329 -317 329 -348 329 c 0,44,45
 -373 329 -373 329 -395 319 c 128,-1,46
 -417 309 -417 309 -434 288 c 1,47,-1
 -469 309 l 1,48,49
 -421 393 -421 393 -333 393 c 0,25,26
EndSplineSet
EndChar

StartChar: aSub-soyo.ini3
Encoding: 93 -1 9
Width: 0
GlyphClass: 4
Flags: W
HStem: 207 60<-472.723 -296.239> 358 64<-408.443 -296.244> 460 69<-458.896 -297.744>
VStem: -586 114<539.734 591.88> -286 74<279.25 348.113> -168 94<165 549>
AnchorPoint: "+BBEENQQ3BEsEPARPBD0EPQQ+BDUA--2" -168 165 basemark 0
AnchorPoint: "+BBEENQQ3BEsEPARPBD0EPQQ+BDUA--2" -168 549 mark 0
AnchorPoint: "+BBEENQQ3BEsEPARPBD0EPQQ+BDUA--0" -168 549 mark 0
LayerCount: 2
Fore
SplineSet
-515 609 m 0,0,1
 -480 609 -480 609 -463 592 c 1,2,3
 -472 585 -472 585 -472 568 c 256,4,5
 -472 551 -472 551 -453.5 540 c 128,-1,6
 -435 529 -435 529 -397 529 c 0,7,8
 -347 529 -347 529 -304 544 c 128,-1,9
 -261 559 -261 559 -218 587 c 1,10,-1
 -192 547 l 1,11,12
 -247 499 -247 499 -303.5 479.5 c 128,-1,13
 -360 460 -360 460 -428 460 c 0,14,15
 -497 460 -497 460 -541.5 482 c 128,-1,16
 -586 504 -586 504 -586 547 c 0,17,18
 -586 576 -586 576 -565.5 592.5 c 128,-1,19
 -545 609 -545 609 -515 609 c 0,0,1
-168 549 m 1,20,-1
 -74 549 l 1,21,-1
 -74 115 l 1,22,-1
 -168 165 l 1,23,-1
 -168 549 l 1,20,-1
-328 422 m 0,24,25
 -278 422 -278 422 -245 395 c 128,-1,26
 -212 368 -212 368 -212 319 c 0,27,28
 -212 265 -212 265 -253 236 c 128,-1,29
 -294 207 -294 207 -365 207 c 0,30,31
 -425 207 -425 207 -484.5 231.5 c 128,-1,32
 -544 256 -544 256 -606 320 c 1,33,-1
 -573 358 l 1,34,35
 -478 267 -478 267 -372 267 c 0,36,37
 -286 267 -286 267 -286 316 c 0,38,39
 -286 335 -286 335 -300.5 346.5 c 128,-1,40
 -315 358 -315 358 -344 358 c 0,41,42
 -368 358 -368 358 -390.5 349 c 128,-1,43
 -413 340 -413 340 -430 320 c 1,44,-1
 -465 341 l 1,45,46
 -416 422 -416 422 -328 422 c 0,24,25
EndSplineSet
EndChar

StartChar: aa-soyo
Encoding: 47 72314 10
Width: 570
GlyphClass: 2
Flags: MW
HStem: 475 74<117.074 269.886> 589 125<198.235 221.789>
VStem: 23 64<329.53 445.524> 298 60<307.29 447.855> 402 94<0 703>
AnchorPoint: "+BBEENQQ3BEsEPARPBD0EPQQ+BDUA--1" 210 714 basechar 0
AnchorPoint: "+BBEENQQ3BEsEPARPBD0EPQQ+BDUA--0" 402 0 basechar 0
LayerCount: 2
Fore
SplineSet
10 714 m 1,0,-1
 496 714 l 1,1,-1
 496 -50 l 1,2,-1
 402 0 l 1,3,-1
 402 703 l 1,4,-1
 210 589 l 1,5,-1
 10 708 l 1,6,-1
 10 714 l 1,0,-1
23 402 m 0,7,8
 23 466 23 466 65.5 507.5 c 128,-1,9
 108 549 108 549 188 549 c 0,10,11
 269 549 269 549 313.5 508.5 c 128,-1,12
 358 468 358 468 358 391 c 0,13,14
 358 351 358 351 343.5 313 c 128,-1,15
 329 275 329 275 290.5 230 c 128,-1,16
 252 185 252 185 179 122 c 1,17,-1
 147 157 l 1,18,19
 230 234 230 234 264 286.5 c 128,-1,20
 298 339 298 339 298 385 c 0,21,22
 298 434 298 434 268.5 454.5 c 128,-1,23
 239 475 239 475 194 475 c 0,24,25
 143 475 143 475 115 452 c 128,-1,26
 87 429 87 429 87 387 c 0,27,28
 87 333 87 333 145 301 c 1,29,-1
 124 266 l 1,30,31
 77 287 77 287 50 321 c 128,-1,32
 23 355 23 355 23 402 c 0,7,8
EndSplineSet
MultipleSubs2: "Multiple Substitution lookup 88 subtable" head-soyo aaSub-soyo
EndChar

StartChar: aaSub-soyo
Encoding: 94 -1 11
Width: 0
GlyphClass: 4
Flags: W
HStem: 640 74<-432.926 -280.114>
VStem: -527 64<494.53 610.524> -252 60<472.29 612.855> -148 94<287 714>
AnchorPoint: "+BBEENQQ3BEsEPARPBD0EPQQ+BDUA--2" -148 287 basemark 0
AnchorPoint: "+BBEENQQ3BEsEPARPBD0EPQQ+BDUA--2" -148 714 mark 0
AnchorPoint: "+BBEENQQ3BEsEPARPBD0EPQQ+BDUA--0" -148 714 mark 0
LayerCount: 2
Fore
SplineSet
-148 714 m 1,0,-1
 -54 714 l 1,1,-1
 -54 237 l 1,2,-1
 -148 287 l 1,3,-1
 -148 714 l 1,0,-1
-527 567 m 0,4,5
 -527 631 -527 631 -484.5 672.5 c 128,-1,6
 -442 714 -442 714 -362 714 c 0,7,8
 -281 714 -281 714 -236.5 673.5 c 128,-1,9
 -192 633 -192 633 -192 556 c 0,10,11
 -192 516 -192 516 -206.5 478 c 128,-1,12
 -221 440 -221 440 -259.5 395 c 128,-1,13
 -298 350 -298 350 -371 287 c 1,14,-1
 -403 322 l 1,15,16
 -320 399 -320 399 -286 451.5 c 128,-1,17
 -252 504 -252 504 -252 550 c 0,18,19
 -252 599 -252 599 -281.5 619.5 c 128,-1,20
 -311 640 -311 640 -356 640 c 0,21,22
 -407 640 -407 640 -435 617 c 128,-1,23
 -463 594 -463 594 -463 552 c 0,24,25
 -463 498 -463 498 -405 466 c 1,26,-1
 -426 431 l 1,27,28
 -473 452 -473 452 -500 486 c 128,-1,29
 -527 520 -527 520 -527 567 c 0,4,5
EndSplineSet
Substitution2: "Single Substitution lookup 279 subtable" aaSub-soyo.ini2
Substitution2: "Single Substitution lookup 277 subtable" aaSub-soyo.2
Substitution2: "Single Substitution lookup 276 subtable" aaSub-soyo.ini2
Substitution2: "Single Substitution lookup 274 subtable" aaSub-soyo.3
Substitution2: "Single Substitution lookup 272 subtable" aaSub-soyo.ini3
Substitution2: "Single Substitution lookup 270 subtable" aaSub-soyo.3
Substitution2: "Single Substitution lookup 269 subtable" aaSub-soyo.3
Substitution2: "Single Substitution lookup 268 subtable" aaSub-soyo.3
Substitution2: "Single Substitution lookup 267 subtable" aaSub-soyo.3
Substitution2: "Single Substitution lookup 266 subtable" aaSub-soyo.3
Substitution2: "Single Substitution lookup 265 subtable" aaSub-soyo.3
Substitution2: "Single Substitution lookup 264 subtable" aaSub-soyo.3
Substitution2: "Single Substitution lookup 263 subtable" aaSub-soyo.3
Substitution2: "Single Substitution lookup 262 subtable" aaSub-soyo.3
Substitution2: "Single Substitution lookup 260 subtable" aaSub-soyo.ini3
Ligature2: "'half' Half Forms in Soyombo lookup 188 subtable" subjoiner-soyo aa-soyo
MultipleSubs2: "Multiple Substitution lookup 172 subtable" aaSub-soyo joiner-soyo.right
MultipleSubs2: "Multiple Substitution lookup 130 subtable" aaSub-soyo tail-soyo.long
EndChar

StartChar: aaSub-soyo.2
Encoding: 95 -1 12
Width: 0
GlyphClass: 4
Flags: W
HStem: 640 74<-440.735 -276.029>
VStem: -527 64<550.103 622.151> -252 60<526.717 622.108> -148 94<387 714>
AnchorPoint: "+BBEENQQ3BEsEPARPBD0EPQQ+BDUA--2" -148 387 basemark 0
AnchorPoint: "+BBEENQQ3BEsEPARPBD0EPQQ+BDUA--2" -148 714 mark 0
AnchorPoint: "+BBEENQQ3BEsEPARPBD0EPQQ+BDUA--0" -148 714 mark 0
LayerCount: 2
Fore
SplineSet
-148 714 m 1,0,-1
 -54 714 l 1,1,-1
 -54 337 l 1,2,-1
 -148 387 l 1,3,-1
 -148 714 l 1,0,-1
-527 601 m 0,4,5
 -527 651 -527 651 -484.5 682.5 c 128,-1,6
 -442 714 -442 714 -362 714 c 0,7,8
 -281 714 -281 714 -236.5 681 c 128,-1,9
 -192 648 -192 648 -192 586 c 0,10,11
 -192 554 -192 554 -207 525 c 128,-1,12
 -222 496 -222 496 -261.5 463.5 c 128,-1,13
 -301 431 -301 431 -374 387 c 1,14,-1
 -398 426 l 1,15,16
 -317 478 -317 478 -284.5 513.5 c 128,-1,17
 -252 549 -252 549 -252 579 c 0,18,19
 -252 613 -252 613 -281.5 626.5 c 128,-1,20
 -311 640 -311 640 -356 640 c 0,21,22
 -407 640 -407 640 -435 626 c 128,-1,23
 -463 612 -463 612 -463 586 c 0,24,25
 -463 553 -463 553 -405 531 c 1,26,-1
 -421 495 l 1,27,28
 -470 511 -470 511 -498.5 536 c 128,-1,29
 -527 561 -527 561 -527 601 c 0,4,5
EndSplineSet
EndChar

StartChar: aaSub-soyo.3
Encoding: 96 -1 13
Width: 0
GlyphClass: 4
Flags: W
HStem: 558 38<-459.806 -413.974> 640 74<-462.756 -255.482>
VStem: -527 64<605.304 652.5> -252 60<581.343 630.488> -148 94<487 714>
AnchorPoint: "+BBEENQQ3BEsEPARPBD0EPQQ+BDUA--2" -148 487 basemark 0
AnchorPoint: "+BBEENQQ3BEsEPARPBD0EPQQ+BDUA--2" -148 714 mark 0
AnchorPoint: "+BBEENQQ3BEsEPARPBD0EPQQ+BDUA--0" -148 714 mark 0
LayerCount: 2
Fore
SplineSet
-148 714 m 1,0,-1
 -54 714 l 1,1,-1
 -54 437 l 1,2,-1
 -148 487 l 1,3,-1
 -148 714 l 1,0,-1
-527 635 m 0,4,5
 -527 670 -527 670 -484.5 692 c 128,-1,6
 -442 714 -442 714 -362 714 c 0,7,8
 -281 714 -281 714 -236.5 688.5 c 128,-1,9
 -192 663 -192 663 -192 616 c 0,10,11
 -192 592 -192 592 -208 571.5 c 128,-1,12
 -224 551 -224 551 -264 531 c 128,-1,13
 -304 511 -304 511 -378 487 c 1,14,-1
 -393 530 l 1,15,16
 -315 556 -315 556 -283.5 575 c 128,-1,17
 -252 594 -252 594 -252 608 c 0,18,19
 -252 626 -252 626 -281.5 633 c 128,-1,20
 -311 640 -311 640 -356 640 c 0,21,22
 -407 640 -407 640 -435 635 c 128,-1,23
 -463 630 -463 630 -463 620 c 0,24,25
 -463 608 -463 608 -405 596 c 1,26,-1
 -416 558 l 1,27,28
 -468 569 -468 569 -497.5 586 c 128,-1,29
 -527 603 -527 603 -527 635 c 0,4,5
EndSplineSet
EndChar

StartChar: aaSub-soyo.ini2
Encoding: 97 -1 14
Width: 0
GlyphClass: 4
Flags: W
HStem: 640 74<-440.735 -276.029>
VStem: -527 64<550.103 622.151> -252 60<526.717 622.108> -148 94<387 714>
AnchorPoint: "+BBEENQQ3BEsEPARPBD0EPQQ+BDUA--2" -148 387 basemark 0
AnchorPoint: "+BBEENQQ3BEsEPARPBD0EPQQ+BDUA--2" -148 714 mark 0
AnchorPoint: "+BBEENQQ3BEsEPARPBD0EPQQ+BDUA--0" -148 714 mark 0
LayerCount: 2
Fore
SplineSet
-148 714 m 1,0,-1
 -54 714 l 1,1,-1
 -54 337 l 1,2,-1
 -148 387 l 1,3,-1
 -148 714 l 1,0,-1
-527 601 m 0,4,5
 -527 651 -527 651 -484.5 682.5 c 128,-1,6
 -442 714 -442 714 -362 714 c 0,7,8
 -281 714 -281 714 -236.5 681 c 128,-1,9
 -192 648 -192 648 -192 586 c 0,10,11
 -192 554 -192 554 -207 525 c 128,-1,12
 -222 496 -222 496 -261.5 463.5 c 128,-1,13
 -301 431 -301 431 -374 387 c 1,14,-1
 -398 426 l 1,15,16
 -317 478 -317 478 -284.5 513.5 c 128,-1,17
 -252 549 -252 549 -252 579 c 0,18,19
 -252 613 -252 613 -281.5 626.5 c 128,-1,20
 -311 640 -311 640 -356 640 c 0,21,22
 -407 640 -407 640 -435 626 c 128,-1,23
 -463 612 -463 612 -463 586 c 0,24,25
 -463 553 -463 553 -405 531 c 1,26,-1
 -421 495 l 1,27,28
 -470 511 -470 511 -498.5 536 c 128,-1,29
 -527 561 -527 561 -527 601 c 0,4,5
EndSplineSet
EndChar

StartChar: aaSub-soyo.ini3
Encoding: 98 -1 15
Width: 0
GlyphClass: 4
Flags: W
HStem: 558 38<-459.806 -413.974> 640 74<-462.756 -255.482>
VStem: -527 64<605.304 652.5> -252 60<581.343 630.488> -148 94<487 714>
AnchorPoint: "+BBEENQQ3BEsEPARPBD0EPQQ+BDUA--2" -148 487 basemark 0
AnchorPoint: "+BBEENQQ3BEsEPARPBD0EPQQ+BDUA--2" -148 714 mark 0
AnchorPoint: "+BBEENQQ3BEsEPARPBD0EPQQ+BDUA--0" -148 714 mark 0
LayerCount: 2
Fore
SplineSet
-148 714 m 1,0,-1
 -54 714 l 1,1,-1
 -54 437 l 1,2,-1
 -148 487 l 1,3,-1
 -148 714 l 1,0,-1
-527 635 m 0,4,5
 -527 670 -527 670 -484.5 692 c 128,-1,6
 -442 714 -442 714 -362 714 c 0,7,8
 -281 714 -281 714 -236.5 688.5 c 128,-1,9
 -192 663 -192 663 -192 616 c 0,10,11
 -192 592 -192 592 -208 571.5 c 128,-1,12
 -224 551 -224 551 -264 531 c 128,-1,13
 -304 511 -304 511 -378 487 c 1,14,-1
 -393 530 l 1,15,16
 -315 556 -315 556 -283.5 575 c 128,-1,17
 -252 594 -252 594 -252 608 c 0,18,19
 -252 626 -252 626 -281.5 633 c 128,-1,20
 -311 640 -311 640 -356 640 c 0,21,22
 -407 640 -407 640 -435 635 c 128,-1,23
 -463 630 -463 630 -463 620 c 0,24,25
 -463 608 -463 608 -405 596 c 1,26,-1
 -416 558 l 1,27,28
 -468 569 -468 569 -497.5 586 c 128,-1,29
 -527 603 -527 603 -527 635 c 0,4,5
EndSplineSet
EndChar

StartChar: aiMatra-soyo
Encoding: 12 72279 16
Width: 195
Flags: W
HStem: 629 85<-84 38>
VStem: 27 126<-20 36.9004>
LayerCount: 2
Fore
SplineSet
-90 238 m 1,0,-1
 51 361 l 1,1,-1
 -84 467 l 1,2,-1
 38 629 l 1,3,-1
 -84 629 l 1,4,-1
 -84 714 l 1,5,-1
 155 714 l 1,6,-1
 155 708 l 1,7,-1
 0 502 l 1,8,-1
 149 385 l 1,9,-1
 -15 241 l 1,10,11
 19 214 19 214 51.5 172 c 128,-1,12
 84 130 84 130 110.5 80.5 c 128,-1,13
 137 31 137 31 153 -20 c 1,14,-1
 27 -20 l 1,15,16
 18 48 18 48 -12 115 c 128,-1,17
 -42 182 -42 182 -90 238 c 1,0,-1
EndSplineSet
Substitution2: "Single Substitution lookup 286 subtable" aiMatra-soyo.open
Substitution2: "Single Substitution lookup 186 subtable" aiMatra-soyo
Substitution2: "Single Substitution lookup 12 subtable" aFinal-soyo
Substitution2: "Single Substitution lookup 11 subtable" sFinal-soyo
Substitution2: "Single Substitution lookup 10 subtable" shFinal-soyo
Substitution2: "Single Substitution lookup 9 subtable" lFinal-soyo
Substitution2: "Single Substitution lookup 8 subtable" rFinal-soyo
Substitution2: "Single Substitution lookup 7 subtable" mFinal-soyo
Substitution2: "Single Substitution lookup 6 subtable" bFinal-soyo
Substitution2: "Single Substitution lookup 5 subtable" nFinal-soyo
Substitution2: "Single Substitution lookup 4 subtable" dFinal-soyo
Substitution2: "Single Substitution lookup 3 subtable" ngFinal-soyo
Substitution2: "Single Substitution lookup 2 subtable" kFinal-soyo
Substitution2: "Single Substitution lookup 1 subtable" gFinal-soyo
EndChar

StartChar: aiMatra-soyo.open
Encoding: 99 -1 17
Width: 195
Flags: W
HStem: 549 85<-74 35>
VStem: -94 249
LayerCount: 2
Fore
SplineSet
-90 188 m 1,0,-1
 49 301 l 1,1,-1
 -84 397 l 1,2,-1
 35 549 l 1,3,-1
 -94 549 l 1,4,-1
 -74 634 l 1,5,-1
 155 634 l 1,6,-1
 155 628 l 1,7,-1
 1 432 l 1,8,-1
 149 325 l 1,9,-1
 -14 192 l 1,10,11
 19 166 19 166 51.5 127.5 c 128,-1,12
 84 89 84 89 110.5 43 c 128,-1,13
 137 -3 137 -3 153 -50 c 1,14,-1
 27 -50 l 1,15,16
 18 12 18 12 -12 74 c 128,-1,17
 -42 136 -42 136 -90 188 c 1,0,-1
EndSplineSet
EndChar

StartChar: anusvara-soyo
Encoding: 75 72342 18
Width: 0
GlyphClass: 4
Flags: W
HStem: 756 45<-360.03 -277.97> 911 45<-360.03 -277.97>
VStem: -419 45<814.97 897.03> -264 45<814.97 897.03>
AnchorPoint: "+BBEENQQ3BEsEPARPBD0EPQQ+BDUA--3" -319 714 mark 0
AnchorPoint: "+BBEENQQ3BEsEPARPBD0EPQQ+BDUA--1" -319 714 mark 0
LayerCount: 2
Fore
SplineSet
-319 756 m 256,0,1
 -360 756 -360 756 -389.5 785.5 c 128,-1,2
 -419 815 -419 815 -419 856 c 256,3,4
 -419 897 -419 897 -389.5 926.5 c 128,-1,5
 -360 956 -360 956 -319 956 c 256,6,7
 -278 956 -278 956 -248.5 926.5 c 128,-1,8
 -219 897 -219 897 -219 856 c 256,9,10
 -219 815 -219 815 -248.5 785.5 c 128,-1,11
 -278 756 -278 756 -319 756 c 256,0,1
-319 801 m 256,12,13
 -296 801 -296 801 -280 817 c 128,-1,14
 -264 833 -264 833 -264 856 c 256,15,16
 -264 879 -264 879 -280 895 c 128,-1,17
 -296 911 -296 911 -319 911 c 256,18,19
 -342 911 -342 911 -358 895 c 128,-1,20
 -374 879 -374 879 -374 856 c 256,21,22
 -374 833 -374 833 -358 817 c 128,-1,23
 -342 801 -342 801 -319 801 c 256,12,13
EndSplineSet
EndChar

StartChar: auMatra-soyo
Encoding: 13 72280 19
Width: 195
Flags: W
HStem: 434 60<-90 13.7373> 674 40<-90 15.3281>
VStem: 58 91<288.876 399.271 528.729 638.911>
LayerCount: 2
Fore
SplineSet
-90 714 m 1,0,1
 -25 714 -25 714 29 700.5 c 128,-1,2
 83 687 83 687 116 658.5 c 128,-1,3
 149 630 149 630 149 584 c 0,4,5
 149 535 149 535 111 506 c 128,-1,6
 73 477 73 477 14 464 c 1,7,8
 73 451 73 451 111 422 c 128,-1,9
 149 393 149 393 149 344 c 0,10,11
 149 289 149 289 102 258.5 c 128,-1,12
 55 228 55 228 -16 219 c 1,13,14
 18 194 18 194 51 156 c 128,-1,15
 84 118 84 118 110.5 73 c 128,-1,16
 137 28 137 28 153 -20 c 1,17,-1
 27 -20 l 1,18,19
 18 42 18 42 -12 103 c 128,-1,20
 -42 164 -42 164 -90 214 c 1,21,-1
 -90 254 l 1,22,23
 58 254 58 254 58 344 c 256,24,25
 58 434 58 434 -90 434 c 1,26,-1
 -90 494 l 1,27,28
 58 494 58 494 58 584 c 256,29,30
 58 674 58 674 -90 674 c 1,31,-1
 -90 714 l 1,0,1
EndSplineSet
Substitution2: "Single Substitution lookup 286 subtable" auMatra-soyo.open
Substitution2: "Single Substitution lookup 186 subtable" auMatra-soyo
Substitution2: "Single Substitution lookup 12 subtable" aFinal-soyo
Substitution2: "Single Substitution lookup 11 subtable" sFinal-soyo
Substitution2: "Single Substitution lookup 10 subtable" shFinal-soyo
Substitution2: "Single Substitution lookup 9 subtable" lFinal-soyo
Substitution2: "Single Substitution lookup 8 subtable" rFinal-soyo
Substitution2: "Single Substitution lookup 7 subtable" mFinal-soyo
Substitution2: "Single Substitution lookup 6 subtable" bFinal-soyo
Substitution2: "Single Substitution lookup 5 subtable" nFinal-soyo
Substitution2: "Single Substitution lookup 4 subtable" dFinal-soyo
Substitution2: "Single Substitution lookup 3 subtable" ngFinal-soyo
Substitution2: "Single Substitution lookup 2 subtable" kFinal-soyo
Substitution2: "Single Substitution lookup 1 subtable" gFinal-soyo
EndChar

StartChar: auMatra-soyo.open
Encoding: 100 -1 20
Width: 195
Flags: W
HStem: 374 60<-90 16.2305> 594 40<-74 20.8428>
VStem: 58 91<244.98 343.074 464.926 563.095>
LayerCount: 2
Fore
SplineSet
-74 634 m 1,0,1
 -14 634 -14 634 37 621.5 c 128,-1,2
 88 609 88 609 118.5 582.5 c 128,-1,3
 149 556 149 556 149 514 c 0,4,5
 149 470 149 470 112.5 443 c 128,-1,6
 76 416 76 416 18 404 c 1,7,8
 76 392 76 392 112.5 365 c 128,-1,9
 149 338 149 338 149 294 c 0,10,11
 149 244 149 244 102.5 216 c 128,-1,12
 56 188 56 188 -15 179 c 1,13,14
 36 142 36 142 82.5 80 c 128,-1,15
 129 18 129 18 153 -50 c 1,16,-1
 27 -50 l 1,17,18
 18 9 18 9 -12 67.5 c 128,-1,19
 -42 126 -42 126 -90 174 c 1,20,-1
 -90 214 l 1,21,22
 58 214 58 214 58 294 c 256,23,24
 58 374 58 374 -90 374 c 1,25,-1
 -90 434 l 1,26,27
 58 434 58 434 58 514 c 256,28,29
 58 594 58 594 -90 594 c 1,30,-1
 -74 634 l 1,0,1
EndSplineSet
EndChar

StartChar: bFinal-soyo
Encoding: 68 72335 21
Width: 0
GlyphClass: 4
Flags: W
HStem: 0 58<-295.585 -181.448> 135 35<-287.5 -248.721>
VStem: -377 74<65.6019 121.877>
AnchorPoint: "+BBEENQQ3BEsEPARPBD0EPQQ+BDUA--2" -148 0 basemark 0
AnchorPoint: "+BBEENQQ3BEsEPARPBD0EPQQ+BDUA--2" -148 0 mark 0
AnchorPoint: "+BBEENQQ3BEsEPARPBD0EPQQ+BDUA--0" -148 0 mark 0
LayerCount: 2
Fore
SplineSet
-302 170 m 0,0,1
 -261 170 -261 170 -239 143 c 1,2,-1
 -241 135 l 1,3,4
 -303 123 -303 123 -303 91 c 0,5,6
 -303 78 -303 78 -291.5 68 c 128,-1,7
 -280 58 -280 58 -253 58 c 0,8,9
 -221 58 -221 58 -187.5 74.5 c 128,-1,10
 -154 91 -154 91 -123 125 c 1,11,-1
 -123 70 l 1,12,13
 -158 31 -158 31 -194 15.5 c 128,-1,14
 -230 0 -230 0 -267 0 c 0,15,16
 -319 0 -319 0 -348 25 c 128,-1,17
 -377 50 -377 50 -377 92 c 0,18,19
 -377 130 -377 130 -355.5 150 c 128,-1,20
 -334 170 -334 170 -302 170 c 0,0,1
EndSplineSet
MultipleSubs2: "Multiple Substitution lookup 233 subtable" bFinal-soyo tail-soyo
Substitution2: "Single Substitution lookup 226 subtable" bFinal-soyo.half
Substitution2: "Single Substitution lookup 225 subtable" bFinal-soyo.half
Substitution2: "Single Substitution lookup 220 subtable" bFinal-soyo
Substitution2: "Single Substitution lookup 55 subtable" lVocalicMatra-soyo
Substitution2: "Single Substitution lookup 54 subtable" rVocalicMatra-soyo
Substitution2: "Single Substitution lookup 53 subtable" oeMatra-soyo
Substitution2: "Single Substitution lookup 52 subtable" oMatra-soyo
Substitution2: "Single Substitution lookup 51 subtable" eMatra-soyo
Substitution2: "Single Substitution lookup 50 subtable" uMatra-soyo
Substitution2: "Single Substitution lookup 49 subtable" ueMatra-soyo
Substitution2: "Single Substitution lookup 48 subtable" iMatra-soyo
Substitution2: "Single Substitution lookup 34 subtable" aFinal-soyo
Substitution2: "Single Substitution lookup 33 subtable" vowelLength-soyo
Substitution2: "Single Substitution lookup 19 subtable" visagra-soyo
Substitution2: "Single Substitution lookup 18 subtable" auMatra-soyo
Substitution2: "Single Substitution lookup 17 subtable" aiMatra-soyo
Substitution2: "Single Substitution lookup 16 subtable" visagra-soyo
Substitution2: "Single Substitution lookup 15 subtable" auMatra-soyo
Substitution2: "Single Substitution lookup 14 subtable" aiMatra-soyo
EndChar

StartChar: bFinal-soyo.half
Encoding: 101 -1 22
Width: 0
GlyphClass: 4
Flags: W
HStem: 0 58<-243.424 -172.48> 135 35<-239 -213.954>
VStem: -313 64<63.9507 127.254>
AnchorPoint: "+BBEENQQ3BEsEPARPBD0EPQQ+BDUA--2" -148 0 basemark 0
AnchorPoint: "+BBEENQQ3BEsEPARPBD0EPQQ+BDUA--2" -148 0 mark 0
AnchorPoint: "+BBEENQQ3BEsEPARPBD0EPQQ+BDUA--0" -148 0 mark 0
LayerCount: 2
Fore
SplineSet
-250 170 m 0,0,1
 -223 170 -223 170 -207 143 c 1,2,-1
 -209 135 l 1,3,4
 -249 123 -249 123 -249 91 c 0,5,6
 -249 78 -249 78 -240.5 68 c 128,-1,7
 -232 58 -232 58 -216 58 c 0,8,9
 -182 58 -182 58 -143 115 c 1,10,-1
 -143 60 l 1,11,12
 -162 26 -162 26 -183.5 13 c 128,-1,13
 -205 0 -205 0 -230 0 c 0,14,15
 -270 0 -270 0 -291.5 25 c 128,-1,16
 -313 50 -313 50 -313 92 c 0,17,18
 -313 130 -313 130 -295.5 150 c 128,-1,19
 -278 170 -278 170 -250 170 c 0,0,1
EndSplineSet
EndChar

StartChar: ba-soyo
Encoding: 39 72306 23
Width: 580
GlyphClass: 2
Flags: MW
HStem: 122 74<121.114 273.926> 589 125<208.235 231.789>
VStem: 33 60<223.428 363.87> 304 64<225.476 341.47> 412 94<0 703>
AnchorPoint: "+BBEENQQ3BEsEPARPBD0EPQQ+BDUA--1" 220 714 basechar 0
AnchorPoint: "+BBEENQQ3BEsEPARPBD0EPQQ+BDUA--0" 412 0 basechar 0
LayerCount: 2
Fore
SplineSet
20 714 m 5,0,-1
 506 714 l 5,1,-1
 506 -50 l 1,2,-1
 412 0 l 1,3,-1
 412 703 l 1,4,-1
 220 589 l 1,5,-1
 20 708 l 1,6,-1
 20 714 l 5,0,-1
368 269 m 0,7,8
 368 205 368 205 325.5 163.5 c 128,-1,9
 283 122 283 122 203 122 c 0,10,11
 122 122 122 122 77.5 163 c 128,-1,12
 33 204 33 204 33 280 c 0,13,14
 33 320 33 320 47.5 358 c 128,-1,15
 62 396 62 396 101 441.5 c 128,-1,16
 140 487 140 487 212 549 c 1,17,-1
 244 514 l 1,18,19
 161 438 161 438 127 385 c 128,-1,20
 93 332 93 332 93 286 c 0,21,22
 93 237 93 237 122.5 216.5 c 128,-1,23
 152 196 152 196 197 196 c 0,24,25
 248 196 248 196 276 219 c 128,-1,26
 304 242 304 242 304 284 c 0,27,28
 304 338 304 338 246 370 c 1,29,-1
 267 405 l 1,30,31
 314 384 314 384 341 350 c 128,-1,32
 368 316 368 316 368 269 c 0,7,8
EndSplineSet
MultipleSubs2: "Multiple Substitution lookup 80 subtable" head-soyo baSub-soyo
EndChar

StartChar: baSub-soyo
Encoding: 102 -1 24
Width: 0
GlyphClass: 4
Flags: W
HStem: 287 74<-438.886 -286.074>
VStem: -527 60<388.428 528.87> -256 64<390.476 506.47> -148 94<287 714>
AnchorPoint: "+BBEENQQ3BEsEPARPBD0EPQQ+BDUA--2" -148 287 basemark 0
AnchorPoint: "+BBEENQQ3BEsEPARPBD0EPQQ+BDUA--2" -148 714 mark 0
AnchorPoint: "+BBEENQQ3BEsEPARPBD0EPQQ+BDUA--0" -148 714 mark 0
LayerCount: 2
Fore
SplineSet
-148 714 m 1,0,-1
 -54 714 l 1,1,-1
 -54 237 l 1,2,-1
 -148 287 l 1,3,-1
 -148 714 l 1,0,-1
-192 434 m 0,4,5
 -192 370 -192 370 -234.5 328.5 c 128,-1,6
 -277 287 -277 287 -357 287 c 0,7,8
 -438 287 -438 287 -482.5 328 c 128,-1,9
 -527 369 -527 369 -527 445 c 0,10,11
 -527 485 -527 485 -512.5 523 c 128,-1,12
 -498 561 -498 561 -459 606.5 c 128,-1,13
 -420 652 -420 652 -348 714 c 1,14,-1
 -316 679 l 1,15,16
 -399 603 -399 603 -433 550 c 128,-1,17
 -467 497 -467 497 -467 451 c 0,18,19
 -467 402 -467 402 -437.5 381.5 c 128,-1,20
 -408 361 -408 361 -363 361 c 0,21,22
 -312 361 -312 361 -284 384 c 128,-1,23
 -256 407 -256 407 -256 449 c 0,24,25
 -256 503 -256 503 -314 535 c 1,26,-1
 -293 570 l 1,27,28
 -246 549 -246 549 -219 515 c 128,-1,29
 -192 481 -192 481 -192 434 c 0,4,5
EndSplineSet
Substitution2: "Single Substitution lookup 279 subtable" baSub-soyo.ini2
Substitution2: "Single Substitution lookup 277 subtable" baSub-soyo.2
Substitution2: "Single Substitution lookup 276 subtable" baSub-soyo.ini2
Substitution2: "Single Substitution lookup 274 subtable" baSub-soyo.3
Substitution2: "Single Substitution lookup 272 subtable" baSub-soyo.ini3
Substitution2: "Single Substitution lookup 270 subtable" baSub-soyo.3
Substitution2: "Single Substitution lookup 269 subtable" baSub-soyo.3
Substitution2: "Single Substitution lookup 268 subtable" baSub-soyo.3
Substitution2: "Single Substitution lookup 267 subtable" baSub-soyo.3
Substitution2: "Single Substitution lookup 266 subtable" baSub-soyo.3
Substitution2: "Single Substitution lookup 265 subtable" baSub-soyo.3
Substitution2: "Single Substitution lookup 264 subtable" baSub-soyo.3
Substitution2: "Single Substitution lookup 263 subtable" baSub-soyo.3
Substitution2: "Single Substitution lookup 262 subtable" baSub-soyo.3
Substitution2: "Single Substitution lookup 260 subtable" baSub-soyo.ini3
Ligature2: "'half' Half Forms in Soyombo lookup 188 subtable" subjoiner-soyo ba-soyo
MultipleSubs2: "Multiple Substitution lookup 164 subtable" baSub-soyo joiner-soyo.right
MultipleSubs2: "Multiple Substitution lookup 122 subtable" baSub-soyo tail-soyo.long
EndChar

StartChar: baSub-soyo.2
Encoding: 103 -1 25
Width: 0
GlyphClass: 4
Flags: W
HStem: 387 74<-442.971 -279.153>
VStem: -527 60<479.437 574.492> -256 64<479.333 551.032> -148 94<387 714>
AnchorPoint: "+BBEENQQ3BEsEPARPBD0EPQQ+BDUA--2" -148 387 basemark 0
AnchorPoint: "+BBEENQQ3BEsEPARPBD0EPQQ+BDUA--2" -148 714 mark 0
AnchorPoint: "+BBEENQQ3BEsEPARPBD0EPQQ+BDUA--0" -148 714 mark 0
LayerCount: 2
Fore
SplineSet
-148 714 m 1,0,-1
 -54 714 l 1,1,-1
 -54 337 l 1,2,-1
 -148 387 l 1,3,-1
 -148 714 l 1,0,-1
-192 500 m 0,4,5
 -192 451 -192 451 -234.5 419 c 128,-1,6
 -277 387 -277 387 -357 387 c 0,7,8
 -438 387 -438 387 -482.5 420.5 c 128,-1,9
 -527 454 -527 454 -527 515 c 0,10,11
 -527 548 -527 548 -511.5 577 c 128,-1,12
 -496 606 -496 606 -456.5 638.5 c 128,-1,13
 -417 671 -417 671 -344 714 c 1,14,-1
 -321 675 l 1,15,16
 -401 624 -401 624 -434 588 c 128,-1,17
 -467 552 -467 552 -467 522 c 0,18,19
 -467 489 -467 489 -437.5 475 c 128,-1,20
 -408 461 -408 461 -363 461 c 0,21,22
 -312 461 -312 461 -284 475.5 c 128,-1,23
 -256 490 -256 490 -256 515 c 0,24,25
 -256 548 -256 548 -314 570 c 1,26,-1
 -298 607 l 1,27,28
 -248 591 -248 591 -220 565.5 c 128,-1,29
 -192 540 -192 540 -192 500 c 0,4,5
EndSplineSet
EndChar

StartChar: baSub-soyo.3
Encoding: 104 -1 26
Width: 0
GlyphClass: 4
Flags: W
HStem: 487 74<-463.518 -256.244> 605 38<-305.026 -259.194>
VStem: -527 60<570.512 619.652> -256 64<549 595.385> -148 94<487 714>
AnchorPoint: "+BBEENQQ3BEsEPARPBD0EPQQ+BDUA--2" -148 487 basemark 0
AnchorPoint: "+BBEENQQ3BEsEPARPBD0EPQQ+BDUA--2" -148 714 mark 0
AnchorPoint: "+BBEENQQ3BEsEPARPBD0EPQQ+BDUA--0" -148 714 mark 0
LayerCount: 2
Fore
SplineSet
-148 714 m 1,0,-1
 -54 714 l 1,1,-1
 -54 437 l 1,2,-1
 -148 487 l 1,3,-1
 -148 714 l 1,0,-1
-192 566 m 0,4,5
 -192 532 -192 532 -234.5 509.5 c 128,-1,6
 -277 487 -277 487 -357 487 c 0,7,8
 -438 487 -438 487 -482.5 512.5 c 128,-1,9
 -527 538 -527 538 -527 585 c 0,10,11
 -527 610 -527 610 -511 630 c 128,-1,12
 -495 650 -495 650 -454.5 670 c 128,-1,13
 -414 690 -414 690 -341 714 c 1,14,-1
 -326 671 l 1,15,16
 -404 645 -404 645 -435.5 626 c 128,-1,17
 -467 607 -467 607 -467 593 c 0,18,19
 -467 575 -467 575 -437.5 568 c 128,-1,20
 -408 561 -408 561 -363 561 c 0,21,22
 -312 561 -312 561 -284 566 c 128,-1,23
 -256 571 -256 571 -256 581 c 0,24,25
 -256 593 -256 593 -314 605 c 1,26,-1
 -303 643 l 1,27,28
 -251 633 -251 633 -221.5 615.5 c 128,-1,29
 -192 598 -192 598 -192 566 c 0,4,5
EndSplineSet
EndChar

StartChar: baSub-soyo.ini2
Encoding: 105 -1 27
Width: 0
GlyphClass: 4
Flags: W
HStem: 387 74<-442.971 -279.153>
VStem: -527 60<479.437 574.492> -256 64<479.333 551.032> -148 94<387 714>
AnchorPoint: "+BBEENQQ3BEsEPARPBD0EPQQ+BDUA--2" -148 387 basemark 0
AnchorPoint: "+BBEENQQ3BEsEPARPBD0EPQQ+BDUA--2" -148 714 mark 0
AnchorPoint: "+BBEENQQ3BEsEPARPBD0EPQQ+BDUA--0" -148 714 mark 0
LayerCount: 2
Fore
SplineSet
-148 714 m 1,0,-1
 -54 714 l 1,1,-1
 -54 337 l 1,2,-1
 -148 387 l 1,3,-1
 -148 714 l 1,0,-1
-192 500 m 0,4,5
 -192 451 -192 451 -234.5 419 c 128,-1,6
 -277 387 -277 387 -357 387 c 0,7,8
 -438 387 -438 387 -482.5 420.5 c 128,-1,9
 -527 454 -527 454 -527 515 c 0,10,11
 -527 548 -527 548 -511.5 577 c 128,-1,12
 -496 606 -496 606 -456.5 638.5 c 128,-1,13
 -417 671 -417 671 -344 714 c 1,14,-1
 -321 675 l 1,15,16
 -401 624 -401 624 -434 588 c 128,-1,17
 -467 552 -467 552 -467 522 c 0,18,19
 -467 489 -467 489 -437.5 475 c 128,-1,20
 -408 461 -408 461 -363 461 c 0,21,22
 -312 461 -312 461 -284 475.5 c 128,-1,23
 -256 490 -256 490 -256 515 c 0,24,25
 -256 548 -256 548 -314 570 c 1,26,-1
 -298 607 l 1,27,28
 -248 591 -248 591 -220 565.5 c 128,-1,29
 -192 540 -192 540 -192 500 c 0,4,5
EndSplineSet
EndChar

StartChar: baSub-soyo.ini3
Encoding: 106 -1 28
Width: 0
GlyphClass: 4
Flags: W
HStem: 487 74<-463.518 -256.244> 605 38<-305.026 -259.194>
VStem: -527 60<570.512 619.652> -256 64<549 595.385> -148 94<487 714>
AnchorPoint: "+BBEENQQ3BEsEPARPBD0EPQQ+BDUA--2" -148 487 basemark 0
AnchorPoint: "+BBEENQQ3BEsEPARPBD0EPQQ+BDUA--2" -148 714 mark 0
AnchorPoint: "+BBEENQQ3BEsEPARPBD0EPQQ+BDUA--0" -148 714 mark 0
LayerCount: 2
Fore
SplineSet
-148 714 m 1,0,-1
 -54 714 l 1,1,-1
 -54 437 l 1,2,-1
 -148 487 l 1,3,-1
 -148 714 l 1,0,-1
-192 566 m 0,4,5
 -192 532 -192 532 -234.5 509.5 c 128,-1,6
 -277 487 -277 487 -357 487 c 0,7,8
 -438 487 -438 487 -482.5 512.5 c 128,-1,9
 -527 538 -527 538 -527 585 c 0,10,11
 -527 610 -527 610 -511 630 c 128,-1,12
 -495 650 -495 650 -454.5 670 c 128,-1,13
 -414 690 -414 690 -341 714 c 1,14,-1
 -326 671 l 1,15,16
 -404 645 -404 645 -435.5 626 c 128,-1,17
 -467 607 -467 607 -467 593 c 0,18,19
 -467 575 -467 575 -437.5 568 c 128,-1,20
 -408 561 -408 561 -363 561 c 0,21,22
 -312 561 -312 561 -284 566 c 128,-1,23
 -256 571 -256 571 -256 581 c 0,24,25
 -256 593 -256 593 -314 605 c 1,26,-1
 -303 643 l 1,27,28
 -251 633 -251 633 -221.5 615.5 c 128,-1,29
 -192 598 -192 598 -192 566 c 0,4,5
EndSplineSet
EndChar

StartChar: bha-soyo
Encoding: 40 72307 29
Width: 610
GlyphClass: 2
Flags: MW
HStem: 75 74<147.029 310.847> 433 71<152.839 304.72> 589 125<238.235 261.789>
VStem: 24 114<516.801 589.16> 63 60<167.437 262.492> 334 64<167.333 239.032> 442 94<0 703>
AnchorPoint: "+BBEENQQ3BEsEPARPBD0EPQQ+BDUA--1" 250 714 basechar 0
AnchorPoint: "+BBEENQQ3BEsEPARPBD0EPQQ+BDUA--0" 442 0 basechar 0
LayerCount: 2
Fore
SplineSet
50 714 m 1,0,-1
 536 714 l 1,1,-1
 536 -50 l 1,2,-1
 442 0 l 1,3,-1
 442 703 l 1,4,-1
 250 589 l 1,5,-1
 50 708 l 1,6,-1
 50 714 l 1,0,-1
100 609 m 0,7,8
 137 609 137 609 153 591 c 1,9,10
 146 584 146 584 142 574 c 128,-1,11
 138 564 138 564 138 553 c 0,12,13
 138 531 138 531 157 517.5 c 128,-1,14
 176 504 176 504 215 504 c 0,15,16
 264 504 264 504 306.5 521.5 c 128,-1,17
 349 539 349 539 389 572 c 1,18,-1
 418 535 l 1,19,20
 365 480 365 480 309.5 456.5 c 128,-1,21
 254 433 254 433 186 433 c 0,22,23
 115 433 115 433 69.5 459 c 128,-1,24
 24 485 24 485 24 535 c 0,25,26
 24 570 24 570 46 589.5 c 128,-1,27
 68 609 68 609 100 609 c 0,7,8
398 188 m 0,28,29
 398 139 398 139 355.5 107 c 128,-1,30
 313 75 313 75 233 75 c 0,31,32
 152 75 152 75 107.5 108.5 c 128,-1,33
 63 142 63 142 63 203 c 0,34,35
 63 236 63 236 78.5 265 c 128,-1,36
 94 294 94 294 133.5 326.5 c 128,-1,37
 173 359 173 359 246 402 c 1,38,-1
 269 363 l 1,39,40
 189 312 189 312 156 276 c 128,-1,41
 123 240 123 240 123 210 c 0,42,43
 123 177 123 177 152.5 163 c 128,-1,44
 182 149 182 149 227 149 c 0,45,46
 278 149 278 149 306 163.5 c 128,-1,47
 334 178 334 178 334 203 c 0,48,49
 334 236 334 236 276 258 c 1,50,-1
 292 295 l 1,51,52
 342 279 342 279 370 253.5 c 128,-1,53
 398 228 398 228 398 188 c 0,28,29
EndSplineSet
MultipleSubs2: "Multiple Substitution lookup 250 subtable" head-soyo bhaSub-soyo
MultipleSubs2: "Multiple Substitution lookup 81 subtable" head-soyo bhaSub-soyo
EndChar

StartChar: bhaSub-soyo
Encoding: 107 -1 30
Width: 0
GlyphClass: 4
Flags: W
HStem: 240 74<-452.971 -289.153> 598 71<-447.161 -295.28>
VStem: -576 114<681.801 754.16> -537 60<332.437 427.492> -266 64<332.333 404.032> -158 94<240 714>
AnchorPoint: "+BBEENQQ3BEsEPARPBD0EPQQ+BDUA--2" -158 240 basemark 0
AnchorPoint: "+BBEENQQ3BEsEPARPBD0EPQQ+BDUA--2" -158 714 mark 0
AnchorPoint: "+BBEENQQ3BEsEPARPBD0EPQQ+BDUA--0" -158 714 mark 0
LayerCount: 2
Fore
SplineSet
-500 774 m 0,0,1
 -463 774 -463 774 -447 756 c 1,2,3
 -454 749 -454 749 -458 739 c 128,-1,4
 -462 729 -462 729 -462 718 c 0,5,6
 -462 696 -462 696 -443 682.5 c 128,-1,7
 -424 669 -424 669 -385 669 c 0,8,9
 -336 669 -336 669 -293.5 686.5 c 128,-1,10
 -251 704 -251 704 -211 737 c 1,11,-1
 -182 700 l 1,12,13
 -235 645 -235 645 -290.5 621.5 c 128,-1,14
 -346 598 -346 598 -414 598 c 0,15,16
 -485 598 -485 598 -530.5 624 c 128,-1,17
 -576 650 -576 650 -576 700 c 0,18,19
 -576 735 -576 735 -554 754.5 c 128,-1,20
 -532 774 -532 774 -500 774 c 0,0,1
-158 714 m 1,21,-1
 -64 714 l 1,22,-1
 -64 190 l 1,23,-1
 -158 240 l 1,24,-1
 -158 714 l 1,21,-1
-202 353 m 0,25,26
 -202 304 -202 304 -244.5 272 c 128,-1,27
 -287 240 -287 240 -367 240 c 0,28,29
 -448 240 -448 240 -492.5 273.5 c 128,-1,30
 -537 307 -537 307 -537 368 c 0,31,32
 -537 401 -537 401 -521.5 430 c 128,-1,33
 -506 459 -506 459 -466.5 491.5 c 128,-1,34
 -427 524 -427 524 -354 567 c 1,35,-1
 -331 528 l 1,36,37
 -411 477 -411 477 -444 441 c 128,-1,38
 -477 405 -477 405 -477 375 c 0,39,40
 -477 342 -477 342 -447.5 328 c 128,-1,41
 -418 314 -418 314 -373 314 c 0,42,43
 -322 314 -322 314 -294 328.5 c 128,-1,44
 -266 343 -266 343 -266 368 c 0,45,46
 -266 401 -266 401 -324 423 c 1,47,-1
 -308 460 l 1,48,49
 -258 444 -258 444 -230 418.5 c 128,-1,50
 -202 393 -202 393 -202 353 c 0,25,26
EndSplineSet
Substitution2: "Single Substitution lookup 279 subtable" bhaSub-soyo.ini2
Substitution2: "Single Substitution lookup 277 subtable" bhaSub-soyo.2
Substitution2: "Single Substitution lookup 276 subtable" bhaSub-soyo.ini2
Substitution2: "Single Substitution lookup 274 subtable" bhaSub-soyo.3
Substitution2: "Single Substitution lookup 272 subtable" bhaSub-soyo.ini3
Substitution2: "Single Substitution lookup 270 subtable" bhaSub-soyo.3
Substitution2: "Single Substitution lookup 269 subtable" bhaSub-soyo.3
Substitution2: "Single Substitution lookup 268 subtable" bhaSub-soyo.3
Substitution2: "Single Substitution lookup 267 subtable" bhaSub-soyo.3
Substitution2: "Single Substitution lookup 266 subtable" bhaSub-soyo.3
Substitution2: "Single Substitution lookup 265 subtable" bhaSub-soyo.3
Substitution2: "Single Substitution lookup 264 subtable" bhaSub-soyo.3
Substitution2: "Single Substitution lookup 263 subtable" bhaSub-soyo.3
Substitution2: "Single Substitution lookup 262 subtable" bhaSub-soyo.3
Substitution2: "Single Substitution lookup 260 subtable" bhaSub-soyo.ini3
Ligature2: "'half' Half Forms in Soyombo lookup 188 subtable" subjoiner-soyo bha-soyo
MultipleSubs2: "Multiple Substitution lookup 165 subtable" bhaSub-soyo joiner-soyo.right
MultipleSubs2: "Multiple Substitution lookup 123 subtable" bhaSub-soyo tail-soyo.long
EndChar

StartChar: bhaSub-soyo.2
Encoding: 108 -1 31
Width: 0
GlyphClass: 4
Flags: W
HStem: 245 74<-476.442 -282.596> 396 37<-322.649 -290.801> 542 69<-458.157 -299.368>
VStem: -586 114<623.027 685.654> -547 60<333.203 405.178> -276 64<331.5 381.904> -168 94<245 714>
AnchorPoint: "+BBEENQQ3BEsEPARPBD0EPQQ+BDUA--2" -168 245 basemark 0
AnchorPoint: "+BBEENQQ3BEsEPARPBD0EPQQ+BDUA--2" -168 714 mark 0
AnchorPoint: "+BBEENQQ3BEsEPARPBD0EPQQ+BDUA--0" -168 714 mark 0
LayerCount: 2
Fore
SplineSet
-168 714 m 1,0,-1
 -74 714 l 1,1,-1
 -74 195 l 1,2,-1
 -168 245 l 1,3,-1
 -168 714 l 1,0,-1
-513 704 m 0,4,5
 -476 704 -476 704 -460 686 c 1,6,7
 -466 682 -466 682 -469 673 c 128,-1,8
 -472 664 -472 664 -472 656 c 0,9,10
 -472 636 -472 636 -453.5 623.5 c 128,-1,11
 -435 611 -435 611 -396 611 c 0,12,13
 -346 611 -346 611 -303.5 627.5 c 128,-1,14
 -261 644 -261 644 -219 675 c 1,15,-1
 -192 636 l 1,16,17
 -244 584 -244 584 -301 563 c 128,-1,18
 -358 542 -358 542 -426 542 c 0,19,20
 -496 542 -496 542 -541 566 c 128,-1,21
 -586 590 -586 590 -586 636 c 0,22,23
 -586 668 -586 668 -565 686 c 128,-1,24
 -544 704 -544 704 -513 704 c 0,4,5
-212 341 m 0,25,26
 -212 299 -212 299 -254.5 272 c 128,-1,27
 -297 245 -297 245 -377 245 c 0,28,29
 -458 245 -458 245 -502.5 274 c 128,-1,30
 -547 303 -547 303 -547 358 c 0,31,32
 -547 387 -547 387 -531.5 411.5 c 128,-1,33
 -516 436 -516 436 -476 462.5 c 128,-1,34
 -436 489 -436 489 -363 522 c 1,35,-1
 -343 481 l 1,36,37
 -422 442 -422 442 -454.5 415 c 128,-1,38
 -487 388 -487 388 -487 366 c 0,39,40
 -487 340 -487 340 -457.5 329.5 c 128,-1,41
 -428 319 -428 319 -383 319 c 0,42,43
 -332 319 -332 319 -304 328.5 c 128,-1,44
 -276 338 -276 338 -276 356 c 0,45,46
 -276 379 -276 379 -334 396 c 1,47,-1
 -320 433 l 1,48,49
 -270 420 -270 420 -241 398.5 c 128,-1,50
 -212 377 -212 377 -212 341 c 0,25,26
EndSplineSet
EndChar

StartChar: bhaSub-soyo.3
Encoding: 109 -1 32
Width: 0
GlyphClass: 4
Flags: W
HStem: 310 74<-483.518 -276.244> 428 38<-325.026 -279.194> 555 69<-458.896 -296.257>
VStem: -586 114<634.734 686.88> -547 60<393.512 442.652> -276 64<372 418.385> -168 94<310 714>
AnchorPoint: "+BBEENQQ3BEsEPARPBD0EPQQ+BDUA--2" -168 310 basemark 0
AnchorPoint: "+BBEENQQ3BEsEPARPBD0EPQQ+BDUA--2" -168 714 mark 0
AnchorPoint: "+BBEENQQ3BEsEPARPBD0EPQQ+BDUA--0" -168 714 mark 0
LayerCount: 2
Fore
SplineSet
-168 714 m 1,0,-1
 -74 714 l 1,1,-1
 -74 260 l 1,2,-1
 -168 310 l 1,3,-1
 -168 714 l 1,0,-1
-515 704 m 0,4,5
 -480 704 -480 704 -463 687 c 1,6,7
 -472 680 -472 680 -472 663 c 256,8,9
 -472 646 -472 646 -453.5 635 c 128,-1,10
 -435 624 -435 624 -397 624 c 0,11,12
 -347 624 -347 624 -304 639 c 128,-1,13
 -261 654 -261 654 -218 682 c 1,14,-1
 -192 642 l 1,15,16
 -244 594 -244 594 -302 574.5 c 128,-1,17
 -360 555 -360 555 -428 555 c 0,18,19
 -497 555 -497 555 -541.5 577 c 128,-1,20
 -586 599 -586 599 -586 642 c 0,21,22
 -586 671 -586 671 -565.5 687.5 c 128,-1,23
 -545 704 -545 704 -515 704 c 0,4,5
-212 389 m 0,24,25
 -212 355 -212 355 -254.5 332.5 c 128,-1,26
 -297 310 -297 310 -377 310 c 0,27,28
 -458 310 -458 310 -502.5 335.5 c 128,-1,29
 -547 361 -547 361 -547 408 c 0,30,31
 -547 433 -547 433 -531 453 c 128,-1,32
 -515 473 -515 473 -474.5 493 c 128,-1,33
 -434 513 -434 513 -361 537 c 1,34,-1
 -346 494 l 1,35,36
 -424 468 -424 468 -455.5 449 c 128,-1,37
 -487 430 -487 430 -487 416 c 0,38,39
 -487 398 -487 398 -457.5 391 c 128,-1,40
 -428 384 -428 384 -383 384 c 0,41,42
 -332 384 -332 384 -304 389 c 128,-1,43
 -276 394 -276 394 -276 404 c 0,44,45
 -276 416 -276 416 -334 428 c 1,46,-1
 -323 466 l 1,47,48
 -271 456 -271 456 -241.5 438.5 c 128,-1,49
 -212 421 -212 421 -212 389 c 0,24,25
EndSplineSet
EndChar

StartChar: bhaSub-soyo.ini2
Encoding: 110 -1 33
Width: 0
GlyphClass: 4
Flags: W
HStem: 150 74<-476.442 -282.596> 301 37<-322.649 -290.801> 447 69<-458.157 -299.884>
VStem: -586 114<528.027 590.654> -547 60<238.203 310.178> -276 64<236.5 286.904> -168 94<150 549>
AnchorPoint: "+BBEENQQ3BEsEPARPBD0EPQQ+BDUA--2" -168 150 basemark 0
AnchorPoint: "+BBEENQQ3BEsEPARPBD0EPQQ+BDUA--2" -168 549 mark 0
AnchorPoint: "+BBEENQQ3BEsEPARPBD0EPQQ+BDUA--0" -168 549 mark 0
LayerCount: 2
Fore
SplineSet
-513 609 m 0,0,1
 -476 609 -476 609 -460 591 c 1,2,3
 -466 587 -466 587 -469 578 c 128,-1,4
 -472 569 -472 569 -472 561 c 0,5,6
 -472 541 -472 541 -453.5 528.5 c 128,-1,7
 -435 516 -435 516 -396 516 c 0,8,9
 -346 516 -346 516 -303.5 532.5 c 128,-1,10
 -261 549 -261 549 -219 580 c 1,11,-1
 -192 541 l 1,12,13
 -246 489 -246 489 -302 468 c 128,-1,14
 -358 447 -358 447 -426 447 c 0,15,16
 -496 447 -496 447 -541 471 c 128,-1,17
 -586 495 -586 495 -586 541 c 0,18,19
 -586 573 -586 573 -565 591 c 128,-1,20
 -544 609 -544 609 -513 609 c 0,0,1
-168 549 m 1,21,-1
 -74 549 l 1,22,-1
 -74 100 l 1,23,-1
 -168 150 l 1,24,-1
 -168 549 l 1,21,-1
-212 246 m 0,25,26
 -212 204 -212 204 -254.5 177 c 128,-1,27
 -297 150 -297 150 -377 150 c 0,28,29
 -458 150 -458 150 -502.5 179 c 128,-1,30
 -547 208 -547 208 -547 263 c 0,31,32
 -547 292 -547 292 -531.5 316.5 c 128,-1,33
 -516 341 -516 341 -476 367.5 c 128,-1,34
 -436 394 -436 394 -363 427 c 1,35,-1
 -343 386 l 1,36,37
 -422 347 -422 347 -454.5 320 c 128,-1,38
 -487 293 -487 293 -487 271 c 0,39,40
 -487 245 -487 245 -457.5 234.5 c 128,-1,41
 -428 224 -428 224 -383 224 c 0,42,43
 -332 224 -332 224 -304 233.5 c 128,-1,44
 -276 243 -276 243 -276 261 c 0,45,46
 -276 284 -276 284 -334 301 c 1,47,-1
 -320 338 l 1,48,49
 -270 325 -270 325 -241 303.5 c 128,-1,50
 -212 282 -212 282 -212 246 c 0,25,26
EndSplineSet
EndChar

StartChar: bhaSub-soyo.ini3
Encoding: 111 -1 34
Width: 0
GlyphClass: 4
Flags: W
HStem: 215 74<-483.518 -276.244> 333 38<-325.026 -279.194> 460 69<-458.896 -297.744>
VStem: -586 114<539.734 591.88> -547 60<298.512 347.652> -276 64<277 323.385> -168 94<215 549>
AnchorPoint: "+BBEENQQ3BEsEPARPBD0EPQQ+BDUA--2" -168 215 basemark 0
AnchorPoint: "+BBEENQQ3BEsEPARPBD0EPQQ+BDUA--2" -168 549 mark 0
AnchorPoint: "+BBEENQQ3BEsEPARPBD0EPQQ+BDUA--0" -168 549 mark 0
LayerCount: 2
Fore
SplineSet
-515 609 m 0,0,1
 -480 609 -480 609 -463 592 c 1,2,3
 -472 585 -472 585 -472 568 c 256,4,5
 -472 551 -472 551 -453.5 540 c 128,-1,6
 -435 529 -435 529 -397 529 c 0,7,8
 -347 529 -347 529 -304 544 c 128,-1,9
 -261 559 -261 559 -218 587 c 1,10,-1
 -192 547 l 1,11,12
 -247 499 -247 499 -303.5 479.5 c 128,-1,13
 -360 460 -360 460 -428 460 c 0,14,15
 -497 460 -497 460 -541.5 482 c 128,-1,16
 -586 504 -586 504 -586 547 c 0,17,18
 -586 576 -586 576 -565.5 592.5 c 128,-1,19
 -545 609 -545 609 -515 609 c 0,0,1
-168 549 m 1,20,-1
 -74 549 l 1,21,-1
 -74 165 l 1,22,-1
 -168 215 l 1,23,-1
 -168 549 l 1,20,-1
-212 294 m 0,24,25
 -212 260 -212 260 -254.5 237.5 c 128,-1,26
 -297 215 -297 215 -377 215 c 0,27,28
 -458 215 -458 215 -502.5 240.5 c 128,-1,29
 -547 266 -547 266 -547 313 c 0,30,31
 -547 338 -547 338 -531 358 c 128,-1,32
 -515 378 -515 378 -474.5 398 c 128,-1,33
 -434 418 -434 418 -361 442 c 1,34,-1
 -346 399 l 1,35,36
 -424 373 -424 373 -455.5 354 c 128,-1,37
 -487 335 -487 335 -487 321 c 0,38,39
 -487 303 -487 303 -457.5 296 c 128,-1,40
 -428 289 -428 289 -383 289 c 0,41,42
 -332 289 -332 289 -304 294 c 128,-1,43
 -276 299 -276 299 -276 309 c 0,44,45
 -276 321 -276 321 -334 333 c 1,46,-1
 -323 371 l 1,47,48
 -271 361 -271 361 -241.5 343.5 c 128,-1,49
 -212 326 -212 326 -212 294 c 0,24,25
EndSplineSet
EndChar

StartChar: ca-soyo
Encoding: 22 72289 35
Width: 570
GlyphClass: 2
Flags: MW
HStem: 589 125<198.235 221.789>
VStem: 402 94<0 703>
AnchorPoint: "+BBEENQQ3BEsEPARPBD0EPQQ+BDUA--1" 210 714 basechar 0
AnchorPoint: "+BBEENQQ3BEsEPARPBD0EPQQ+BDUA--0" 402 0 basechar 0
LayerCount: 2
Fore
SplineSet
10 714 m 1,0,-1
 496 714 l 1,1,-1
 496 -50 l 1,2,-1
 402 0 l 1,3,-1
 402 703 l 1,4,-1
 210 589 l 1,5,-1
 10 708 l 1,6,-1
 10 714 l 1,0,-1
207 159 m 1,7,-1
 12 354 l 1,8,-1
 59 401 l 1,9,-1
 207 253 l 1,10,-1
 308 354 l 1,11,-1
 160 502 l 1,12,-1
 207 549 l 1,13,-1
 402 354 l 1,14,-1
 207 159 l 1,7,-1
EndSplineSet
MultipleSubs2: "Multiple Substitution lookup 63 subtable" head-soyo caSub-soyo
EndChar

StartChar: caSub-soyo
Encoding: 112 -1 36
Width: 0
GlyphClass: 4
Flags: W
VStem: -148 94<324 714>
AnchorPoint: "+BBEENQQ3BEsEPARPBD0EPQQ+BDUA--2" -148 324 basemark 0
AnchorPoint: "+BBEENQQ3BEsEPARPBD0EPQQ+BDUA--2" -148 714 mark 0
AnchorPoint: "+BBEENQQ3BEsEPARPBD0EPQQ+BDUA--0" -148 714 mark 0
LayerCount: 2
Fore
SplineSet
-148 714 m 1,0,-1
 -54 714 l 1,1,-1
 -54 274 l 1,2,-1
 -148 324 l 1,3,-1
 -148 714 l 1,0,-1
-343 324 m 1,4,-1
 -538 519 l 1,5,-1
 -491 566 l 1,6,-1
 -343 418 l 1,7,-1
 -242 519 l 1,8,-1
 -390 667 l 1,9,-1
 -343 714 l 1,10,-1
 -148 519 l 1,11,-1
 -343 324 l 1,4,-1
EndSplineSet
Substitution2: "Single Substitution lookup 279 subtable" caSub-soyo.ini2
Substitution2: "Single Substitution lookup 277 subtable" caSub-soyo.2
Substitution2: "Single Substitution lookup 276 subtable" caSub-soyo.ini2
Substitution2: "Single Substitution lookup 274 subtable" caSub-soyo.3
Substitution2: "Single Substitution lookup 272 subtable" caSub-soyo.ini3
Substitution2: "Single Substitution lookup 270 subtable" caSub-soyo.3
Substitution2: "Single Substitution lookup 269 subtable" caSub-soyo.3
Substitution2: "Single Substitution lookup 268 subtable" caSub-soyo.3
Substitution2: "Single Substitution lookup 267 subtable" caSub-soyo.3
Substitution2: "Single Substitution lookup 266 subtable" caSub-soyo.3
Substitution2: "Single Substitution lookup 265 subtable" caSub-soyo.3
Substitution2: "Single Substitution lookup 264 subtable" caSub-soyo.3
Substitution2: "Single Substitution lookup 263 subtable" caSub-soyo.3
Substitution2: "Single Substitution lookup 262 subtable" caSub-soyo.3
Substitution2: "Single Substitution lookup 260 subtable" caSub-soyo.ini3
Ligature2: "'half' Half Forms in Soyombo lookup 188 subtable" subjoiner-soyo ca-soyo
MultipleSubs2: "Multiple Substitution lookup 147 subtable" caSub-soyo joiner-soyo.right
MultipleSubs2: "Multiple Substitution lookup 105 subtable" caSub-soyo tail-soyo.long
EndChar

StartChar: caSub-soyo.2
Encoding: 113 -1 37
Width: 0
GlyphClass: 4
Flags: W
VStem: -148 94<394 714>
AnchorPoint: "+BBEENQQ3BEsEPARPBD0EPQQ+BDUA--2" -148 394 basemark 0
AnchorPoint: "+BBEENQQ3BEsEPARPBD0EPQQ+BDUA--2" -148 714 mark 0
AnchorPoint: "+BBEENQQ3BEsEPARPBD0EPQQ+BDUA--0" -148 714 mark 0
LayerCount: 2
Fore
SplineSet
-148 714 m 1,0,-1
 -54 714 l 1,1,-1
 -54 344 l 1,2,-1
 -148 394 l 1,3,-1
 -148 714 l 1,0,-1
-343 394 m 1,4,-1
 -396 437 l 1,5,-1
 -538 554 l 1,6,-1
 -485 597 l 1,7,-1
 -343 480 l 1,8,-1
 -253 555 l 1,9,-1
 -396 672 l 1,10,-1
 -343 714 l 1,11,-1
 -148 554 l 1,12,-1
 -290 437 l 1,13,-1
 -343 394 l 1,4,-1
EndSplineSet
EndChar

StartChar: caSub-soyo.3
Encoding: 114 -1 38
Width: 0
GlyphClass: 4
Flags: W
HStem: 414 300
VStem: -148 94<464 714>
AnchorPoint: "+BBEENQQ3BEsEPARPBD0EPQQ+BDUA--2" -148 464 basemark 0
AnchorPoint: "+BBEENQQ3BEsEPARPBD0EPQQ+BDUA--2" -148 714 mark 0
AnchorPoint: "+BBEENQQ3BEsEPARPBD0EPQQ+BDUA--0" -148 714 mark 0
LayerCount: 2
Fore
SplineSet
-148 714 m 1,0,-1
 -54 714 l 1,1,-1
 -54 414 l 1,2,-1
 -148 464 l 1,3,-1
 -148 714 l 1,0,-1
-343 464 m 1,4,-1
 -538 589 l 1,5,-1
 -479 627 l 1,6,-1
 -343 540 l 1,7,-1
 -266 589 l 1,8,-1
 -402 676 l 1,9,-1
 -343 714 l 1,10,-1
 -207 627 l 1,11,-1
 -148 589 l 1,12,-1
 -207 551 l 1,13,-1
 -343 464 l 1,4,-1
EndSplineSet
EndChar

StartChar: caSub-soyo.ini2
Encoding: 115 -1 39
Width: 0
GlyphClass: 4
Flags: W
VStem: -148 94<394 684>
AnchorPoint: "+BBEENQQ3BEsEPARPBD0EPQQ+BDUA--2" -148 394 basemark 0
AnchorPoint: "+BBEENQQ3BEsEPARPBD0EPQQ+BDUA--2" -148 684 mark 0
AnchorPoint: "+BBEENQQ3BEsEPARPBD0EPQQ+BDUA--0" -148 684 mark 0
LayerCount: 2
Fore
SplineSet
-343 394 m 1,0,-1
 -396 437 l 1,1,-1
 -538 554 l 1,2,-1
 -485 597 l 1,3,-1
 -343 480 l 1,4,-1
 -253 555 l 1,5,-1
 -396 672 l 1,6,-1
 -343 714 l 1,7,-1
 -148 554 l 1,8,-1
 -290 437 l 1,9,-1
 -343 394 l 1,0,-1
-148 684 m 1,10,-1
 -54 684 l 1,11,-1
 -54 344 l 1,12,-1
 -148 394 l 1,13,-1
 -148 684 l 1,10,-1
EndSplineSet
EndChar

StartChar: caSub-soyo.ini3
Encoding: 116 -1 40
Width: 0
GlyphClass: 4
Flags: W
HStem: 414 300
VStem: -148 94<464 684>
AnchorPoint: "+BBEENQQ3BEsEPARPBD0EPQQ+BDUA--2" -148 464 basemark 0
AnchorPoint: "+BBEENQQ3BEsEPARPBD0EPQQ+BDUA--2" -148 684 mark 0
AnchorPoint: "+BBEENQQ3BEsEPARPBD0EPQQ+BDUA--0" -148 684 mark 0
LayerCount: 2
Fore
SplineSet
-343 464 m 1,0,-1
 -538 589 l 1,1,-1
 -479 627 l 1,2,-1
 -343 540 l 1,3,-1
 -266 589 l 1,4,-1
 -402 676 l 1,5,-1
 -343 714 l 1,6,-1
 -207 627 l 1,7,-1
 -148 589 l 1,8,-1
 -207 551 l 1,9,-1
 -343 464 l 1,0,-1
-148 684 m 1,10,-1
 -54 684 l 1,11,-1
 -54 414 l 1,12,-1
 -148 464 l 1,13,-1
 -148 684 l 1,10,-1
EndSplineSet
EndChar

StartChar: cha-soyo
Encoding: 23 72290 41
Width: 620
GlyphClass: 2
Flags: MW
HStem: 589 125<248.235 271.789>
VStem: 452 94<0 703>
AnchorPoint: "+BBEENQQ3BEsEPARPBD0EPQQ+BDUA--1" 260 714 basechar 0
AnchorPoint: "+BBEENQQ3BEsEPARPBD0EPQQ+BDUA--0" 452 0 basechar 0
LayerCount: 2
Fore
SplineSet
60 714 m 1,0,-1
 546 714 l 1,1,-1
 546 -50 l 1,2,-1
 452 0 l 1,3,-1
 452 703 l 1,4,-1
 260 589 l 1,5,-1
 60 708 l 1,6,-1
 60 714 l 1,0,-1
277 199 m 1,7,-1
 149 327 l 1,8,-1
 69 247 l 1,9,-1
 22 294 l 1,10,-1
 102 374 l 1,11,-1
 22 454 l 1,12,-1
 69 501 l 1,13,-1
 149 421 l 1,14,-1
 277 549 l 1,15,-1
 452 374 l 1,16,-1
 277 199 l 1,7,-1
196 374 m 1,17,-1
 277 293 l 1,18,-1
 358 374 l 1,19,-1
 277 455 l 1,20,-1
 196 374 l 1,17,-1
EndSplineSet
MultipleSubs2: "Multiple Substitution lookup 64 subtable" head-soyo chaSub-soyo
EndChar

StartChar: chaSub-soyo
Encoding: 117 -1 42
Width: 0
GlyphClass: 4
Flags: W
VStem: -148 94<364 714>
AnchorPoint: "+BBEENQQ3BEsEPARPBD0EPQQ+BDUA--2" -148 364 basemark 0
AnchorPoint: "+BBEENQQ3BEsEPARPBD0EPQQ+BDUA--2" -148 714 mark 0
AnchorPoint: "+BBEENQQ3BEsEPARPBD0EPQQ+BDUA--0" -148 714 mark 0
LayerCount: 2
Fore
SplineSet
-148 714 m 1,0,-1
 -54 714 l 1,1,-1
 -54 314 l 1,2,-1
 -148 364 l 1,3,-1
 -148 714 l 1,0,-1
-323 364 m 1,4,-1
 -451 492 l 1,5,-1
 -531 412 l 1,6,-1
 -578 459 l 1,7,-1
 -498 539 l 1,8,-1
 -578 619 l 1,9,-1
 -531 666 l 1,10,-1
 -451 586 l 1,11,-1
 -323 714 l 1,12,-1
 -148 539 l 1,13,-1
 -323 364 l 1,4,-1
-404 539 m 1,14,-1
 -323 458 l 1,15,-1
 -242 539 l 1,16,-1
 -323 620 l 1,17,-1
 -404 539 l 1,14,-1
EndSplineSet
Substitution2: "Single Substitution lookup 279 subtable" chaSub-soyo.ini2
Substitution2: "Single Substitution lookup 277 subtable" chaSub-soyo.2
Substitution2: "Single Substitution lookup 276 subtable" chaSub-soyo.ini2
Substitution2: "Single Substitution lookup 274 subtable" chaSub-soyo.3
Substitution2: "Single Substitution lookup 272 subtable" chaSub-soyo.ini3
Substitution2: "Single Substitution lookup 270 subtable" chaSub-soyo.3
Substitution2: "Single Substitution lookup 269 subtable" chaSub-soyo.3
Substitution2: "Single Substitution lookup 268 subtable" chaSub-soyo.3
Substitution2: "Single Substitution lookup 267 subtable" chaSub-soyo.3
Substitution2: "Single Substitution lookup 266 subtable" chaSub-soyo.3
Substitution2: "Single Substitution lookup 265 subtable" chaSub-soyo.3
Substitution2: "Single Substitution lookup 264 subtable" chaSub-soyo.3
Substitution2: "Single Substitution lookup 263 subtable" chaSub-soyo.3
Substitution2: "Single Substitution lookup 262 subtable" chaSub-soyo.3
Substitution2: "Single Substitution lookup 260 subtable" chaSub-soyo.ini3
Ligature2: "'half' Half Forms in Soyombo lookup 188 subtable" subjoiner-soyo cha-soyo
MultipleSubs2: "Multiple Substitution lookup 148 subtable" chaSub-soyo joiner-soyo.right
MultipleSubs2: "Multiple Substitution lookup 106 subtable" chaSub-soyo tail-soyo.long
EndChar

StartChar: chaSub-soyo.2
Encoding: 118 -1 43
Width: 0
GlyphClass: 4
Flags: W
VStem: -148 94<414 714>
AnchorPoint: "+BBEENQQ3BEsEPARPBD0EPQQ+BDUA--2" -148 414 basemark 0
AnchorPoint: "+BBEENQQ3BEsEPARPBD0EPQQ+BDUA--2" -148 714 mark 0
AnchorPoint: "+BBEENQQ3BEsEPARPBD0EPQQ+BDUA--0" -148 714 mark 0
LayerCount: 2
Fore
SplineSet
-148 714 m 1,0,-1
 -54 714 l 1,1,-1
 -54 364 l 1,2,-1
 -148 414 l 1,3,-1
 -148 714 l 1,0,-1
-323 414 m 1,4,-1
 -448 522 l 1,5,-1
 -528 453 l 1,6,-1
 -578 496 l 1,7,-1
 -498 564 l 1,8,-1
 -578 633 l 1,9,-1
 -528 675 l 1,10,-1
 -448 607 l 1,11,-1
 -373 672 l 1,12,-1
 -323 714 l 1,13,-1
 -273 672 l 1,14,-1
 -198 607 l 1,15,-1
 -148 564 l 1,16,-1
 -323 414 l 1,4,-1
-398 564 m 1,17,-1
 -323 500 l 1,18,-1
 -248 565 l 1,19,-1
 -323 629 l 1,20,-1
 -398 564 l 1,17,-1
EndSplineSet
EndChar

StartChar: chaSub-soyo.3
Encoding: 119 -1 44
Width: 0
GlyphClass: 4
Flags: W
HStem: 414 300
VStem: -148 94<464 714>
AnchorPoint: "+BBEENQQ3BEsEPARPBD0EPQQ+BDUA--2" -148 464 basemark 0
AnchorPoint: "+BBEENQQ3BEsEPARPBD0EPQQ+BDUA--2" -148 714 mark 0
AnchorPoint: "+BBEENQQ3BEsEPARPBD0EPQQ+BDUA--0" -148 714 mark 0
LayerCount: 2
Fore
SplineSet
-148 714 m 1,0,-1
 -54 714 l 1,1,-1
 -54 414 l 1,2,-1
 -148 464 l 1,3,-1
 -148 714 l 1,0,-1
-323 464 m 1,4,-1
 -445 551 l 1,5,-1
 -525 494 l 1,6,-1
 -578 532 l 1,7,-1
 -498 589 l 1,8,-1
 -578 646 l 1,9,-1
 -525 684 l 1,10,-1
 -445 627 l 1,11,-1
 -323 714 l 1,12,-1
 -201 627 l 1,13,-1
 -148 589 l 1,14,-1
 -201 551 l 1,15,-1
 -323 464 l 1,4,-1
-392 589 m 1,16,-1
 -323 540 l 1,17,-1
 -254 589 l 1,18,-1
 -323 638 l 1,19,-1
 -392 589 l 1,16,-1
EndSplineSet
EndChar

StartChar: chaSub-soyo.ini2
Encoding: 120 -1 45
Width: 0
GlyphClass: 4
Flags: W
VStem: -148 94<414 684>
AnchorPoint: "+BBEENQQ3BEsEPARPBD0EPQQ+BDUA--2" -148 414 basemark 0
AnchorPoint: "+BBEENQQ3BEsEPARPBD0EPQQ+BDUA--2" -148 684 mark 0
AnchorPoint: "+BBEENQQ3BEsEPARPBD0EPQQ+BDUA--0" -148 684 mark 0
LayerCount: 2
Fore
SplineSet
-323 414 m 1,0,-1
 -448 522 l 1,1,-1
 -528 453 l 1,2,-1
 -578 495 l 1,3,-1
 -498 564 l 1,4,-1
 -578 633 l 1,5,-1
 -528 675 l 1,6,-1
 -448 607 l 1,7,-1
 -372 672 l 1,8,-1
 -373 672 l 1,9,-1
 -323 714 l 1,10,-1
 -273 672 l 1,11,-1
 -198 607 l 1,12,-1
 -148 564 l 1,13,-1
 -323 414 l 1,0,-1
-148 684 m 1,14,-1
 -54 684 l 1,15,-1
 -54 364 l 1,16,-1
 -148 414 l 1,17,-1
 -148 684 l 1,14,-1
-398 564 m 1,18,-1
 -323 500 l 1,19,-1
 -248 565 l 1,20,-1
 -323 629 l 1,21,-1
 -398 564 l 1,18,-1
EndSplineSet
EndChar

StartChar: chaSub-soyo.ini3
Encoding: 121 -1 46
Width: 0
GlyphClass: 4
Flags: W
HStem: 414 300
VStem: -148 94<464 684>
AnchorPoint: "+BBEENQQ3BEsEPARPBD0EPQQ+BDUA--2" -148 464 basemark 0
AnchorPoint: "+BBEENQQ3BEsEPARPBD0EPQQ+BDUA--2" -148 684 mark 0
AnchorPoint: "+BBEENQQ3BEsEPARPBD0EPQQ+BDUA--0" -148 684 mark 0
LayerCount: 2
Fore
SplineSet
-323 464 m 1,0,-1
 -445 551 l 1,1,-1
 -525 494 l 1,2,-1
 -578 532 l 1,3,-1
 -498 589 l 1,4,-1
 -578 646 l 1,5,-1
 -525 684 l 1,6,-1
 -445 627 l 1,7,-1
 -323 714 l 1,8,-1
 -201 627 l 1,9,-1
 -148 589 l 1,10,-1
 -201 551 l 1,11,-1
 -323 464 l 1,0,-1
-148 684 m 1,12,-1
 -54 684 l 1,13,-1
 -54 414 l 1,14,-1
 -148 464 l 1,15,-1
 -148 684 l 1,12,-1
-392 589 m 1,16,-1
 -323 540 l 1,17,-1
 -254 589 l 1,18,-1
 -323 638 l 1,19,-1
 -392 589 l 1,16,-1
EndSplineSet
EndChar

StartChar: dFinal-soyo
Encoding: 66 72333 47
Width: 0
GlyphClass: 4
Flags: W
HStem: 0 35<-287.5 -248.721> 112 58<-295.585 -181.448>
VStem: -377 74<48.417 104.656>
AnchorPoint: "+BBEENQQ3BEsEPARPBD0EPQQ+BDUA--2" -148 0 basemark 0
AnchorPoint: "+BBEENQQ3BEsEPARPBD0EPQQ+BDUA--2" -148 0 mark 0
AnchorPoint: "+BBEENQQ3BEsEPARPBD0EPQQ+BDUA--0" -148 0 mark 0
LayerCount: 2
Fore
SplineSet
-302 0 m 0,0,1
 -334 0 -334 0 -355.5 20.5 c 128,-1,2
 -377 41 -377 41 -377 78 c 0,3,4
 -377 120 -377 120 -348 145 c 128,-1,5
 -319 170 -319 170 -267 170 c 0,6,7
 -230 170 -230 170 -194 154.5 c 128,-1,8
 -158 139 -158 139 -123 100 c 1,9,-1
 -123 45 l 1,10,11
 -154 80 -154 80 -187.5 96 c 128,-1,12
 -221 112 -221 112 -253 112 c 0,13,14
 -280 112 -280 112 -291.5 102.5 c 128,-1,15
 -303 93 -303 93 -303 79 c 0,16,17
 -303 47 -303 47 -241 35 c 1,18,-1
 -239 27 l 1,19,20
 -261 0 -261 0 -302 0 c 0,0,1
EndSplineSet
MultipleSubs2: "Multiple Substitution lookup 231 subtable" dFinal-soyo tail-soyo
Substitution2: "Single Substitution lookup 226 subtable" dFinal-soyo.half
Substitution2: "Single Substitution lookup 225 subtable" dFinal-soyo.half
Substitution2: "Single Substitution lookup 220 subtable" dFinal-soyo
Substitution2: "Single Substitution lookup 55 subtable" lVocalicMatra-soyo
Substitution2: "Single Substitution lookup 54 subtable" rVocalicMatra-soyo
Substitution2: "Single Substitution lookup 53 subtable" oeMatra-soyo
Substitution2: "Single Substitution lookup 52 subtable" oMatra-soyo
Substitution2: "Single Substitution lookup 51 subtable" eMatra-soyo
Substitution2: "Single Substitution lookup 50 subtable" uMatra-soyo
Substitution2: "Single Substitution lookup 49 subtable" ueMatra-soyo
Substitution2: "Single Substitution lookup 48 subtable" iMatra-soyo
Substitution2: "Single Substitution lookup 34 subtable" aFinal-soyo
Substitution2: "Single Substitution lookup 33 subtable" vowelLength-soyo
Substitution2: "Single Substitution lookup 19 subtable" visagra-soyo
Substitution2: "Single Substitution lookup 18 subtable" auMatra-soyo
Substitution2: "Single Substitution lookup 17 subtable" aiMatra-soyo
Substitution2: "Single Substitution lookup 16 subtable" visagra-soyo
Substitution2: "Single Substitution lookup 15 subtable" auMatra-soyo
Substitution2: "Single Substitution lookup 14 subtable" aiMatra-soyo
EndChar

StartChar: dFinal-soyo.half
Encoding: 122 -1 48
Width: 0
GlyphClass: 4
Flags: W
HStem: 0 35<-239 -213.954> 112 58<-243.424 -172.48>
VStem: -313 64<43.0652 106.307>
AnchorPoint: "+BBEENQQ3BEsEPARPBD0EPQQ+BDUA--2" -148 0 basemark 0
AnchorPoint: "+BBEENQQ3BEsEPARPBD0EPQQ+BDUA--2" -148 0 mark 0
AnchorPoint: "+BBEENQQ3BEsEPARPBD0EPQQ+BDUA--0" -148 0 mark 0
LayerCount: 2
Fore
SplineSet
-250 0 m 0,0,1
 -278 0 -278 0 -295.5 20.5 c 128,-1,2
 -313 41 -313 41 -313 78 c 0,3,4
 -313 120 -313 120 -291.5 145 c 128,-1,5
 -270 170 -270 170 -230 170 c 0,6,7
 -205 170 -205 170 -183.5 157 c 128,-1,8
 -162 144 -162 144 -143 110 c 1,9,-1
 -143 55 l 1,10,11
 -182 112 -182 112 -216 112 c 0,12,13
 -232 112 -232 112 -240.5 102.5 c 128,-1,14
 -249 93 -249 93 -249 79 c 0,15,16
 -249 47 -249 47 -209 35 c 1,17,-1
 -207 27 l 1,18,19
 -223 0 -223 0 -250 0 c 0,0,1
EndSplineSet
EndChar

StartChar: da-soyo
Encoding: 34 72301 49
Width: 600
GlyphClass: 2
Flags: MW
HStem: 617 97
VStem: 27 74<321.199 447.303> 193 94<111 228.406 539.594 617> 432 94<0 703>
AnchorPoint: "+BBEENQQ3BEsEPARPBD0EPQQ+BDUA--1" 240 714 basechar 0
AnchorPoint: "+BBEENQQ3BEsEPARPBD0EPQQ+BDUA--0" 432 0 basechar 0
LayerCount: 2
Fore
SplineSet
287 283 m 1,0,-1
 287 61 l 1,1,-1
 193 111 l 1,2,-1
 193 225 l 1,3,4
 108 237 108 237 67.5 275 c 128,-1,5
 27 313 27 313 27 384 c 256,6,7
 27 455 27 455 68 493 c 128,-1,8
 109 531 109 531 193 543 c 1,9,-1
 193 617 l 1,10,-1
 40 708 l 1,11,-1
 40 714 l 1,12,-1
 526 714 l 1,13,-1
 526 -50 l 1,14,-1
 432 0 l 1,15,-1
 432 703 l 1,16,-1
 287 617 l 1,17,-1
 287 485 l 1,18,19
 186 485 186 485 143.5 463 c 128,-1,20
 101 441 101 441 101 384 c 256,21,22
 101 327 101 327 144.5 305 c 128,-1,23
 188 283 188 283 287 283 c 1,0,-1
EndSplineSet
MultipleSubs2: "Multiple Substitution lookup 75 subtable" head-soyo daSub-soyo
EndChar

StartChar: daSub-soyo
Encoding: 123 -1 50
Width: 0
GlyphClass: 4
Flags: W
HStem: 650 154<-385.973 -293>
VStem: -553 74<486.199 612.303> -387 94<276 393.406 704.594 804> -148 94<226 714>
AnchorPoint: "+BBEENQQ3BEsEPARPBD0EPQQ+BDUA--2" -148 226 basemark 0
AnchorPoint: "+BBEENQQ3BEsEPARPBD0EPQQ+BDUA--2" -148 714 mark 0
AnchorPoint: "+BBEENQQ3BEsEPARPBD0EPQQ+BDUA--0" -148 714 mark 0
LayerCount: 2
Fore
SplineSet
-293 448 m 1,0,-1
 -293 226 l 1,1,-1
 -387 276 l 1,2,-1
 -387 390 l 1,3,4
 -472 402 -472 402 -512.5 440 c 128,-1,5
 -553 478 -553 478 -553 549 c 256,6,7
 -553 620 -553 620 -512 658 c 128,-1,8
 -471 696 -471 696 -387 708 c 1,9,-1
 -387 804 l 1,10,-1
 -293 804 l 1,11,-1
 -293 650 l 1,12,13
 -394 650 -394 650 -436.5 628 c 128,-1,14
 -479 606 -479 606 -479 549 c 256,15,16
 -479 492 -479 492 -435.5 470 c 128,-1,17
 -392 448 -392 448 -293 448 c 1,0,-1
-148 714 m 1,18,-1
 -54 714 l 1,19,-1
 -54 176 l 1,20,-1
 -148 226 l 1,21,-1
 -148 714 l 1,18,-1
EndSplineSet
Substitution2: "Single Substitution lookup 279 subtable" daSub-soyo.ini2
Substitution2: "Single Substitution lookup 277 subtable" daSub-soyo.2
Substitution2: "Single Substitution lookup 276 subtable" daSub-soyo.ini2
Substitution2: "Single Substitution lookup 274 subtable" daSub-soyo.3
Substitution2: "Single Substitution lookup 272 subtable" daSub-soyo.ini3
Substitution2: "Single Substitution lookup 270 subtable" daSub-soyo.3
Substitution2: "Single Substitution lookup 269 subtable" daSub-soyo.3
Substitution2: "Single Substitution lookup 268 subtable" daSub-soyo.3
Substitution2: "Single Substitution lookup 267 subtable" daSub-soyo.3
Substitution2: "Single Substitution lookup 266 subtable" daSub-soyo.3
Substitution2: "Single Substitution lookup 265 subtable" daSub-soyo.3
Substitution2: "Single Substitution lookup 264 subtable" daSub-soyo.3
Substitution2: "Single Substitution lookup 263 subtable" daSub-soyo.3
Substitution2: "Single Substitution lookup 262 subtable" daSub-soyo.3
Substitution2: "Single Substitution lookup 260 subtable" daSub-soyo.ini3
Ligature2: "'half' Half Forms in Soyombo lookup 188 subtable" subjoiner-soyo da-soyo
MultipleSubs2: "Multiple Substitution lookup 159 subtable" daSub-soyo joiner-soyo.right
MultipleSubs2: "Multiple Substitution lookup 117 subtable" daSub-soyo tail-soyo.long
EndChar

StartChar: daSub-soyo.2
Encoding: 124 -1 51
Width: 0
GlyphClass: 4
Flags: W
HStem: 657 127<-385.973 -293>
VStem: -553 74<542.309 631.057> -387 94<376 464.805 706.43 784> -148 94<326 784>
AnchorPoint: "+BBEENQQ3BEsEPARPBD0EPQQ+BDUA--2" -148 326 basemark 0
AnchorPoint: "+BBEENQQ3BEsEPARPBD0EPQQ+BDUA--2" -148 784 mark 0
AnchorPoint: "+BBEENQQ3BEsEPARPBD0EPQQ+BDUA--0" -148 784 mark 0
LayerCount: 2
Fore
SplineSet
-148 784 m 1,0,-1
 -54 784 l 1,1,-1
 -54 276 l 1,2,-1
 -148 326 l 1,3,-1
 -148 784 l 1,0,-1
-293 515 m 1,4,-1
 -293 326 l 1,5,-1
 -387 376 l 1,6,-1
 -387 462 l 1,7,8
 -472 472 -472 472 -512.5 501.5 c 128,-1,9
 -553 531 -553 531 -553 586 c 256,10,11
 -553 641 -553 641 -512 670.5 c 128,-1,12
 -471 700 -471 700 -387 709 c 1,13,-1
 -387 784 l 1,14,-1
 -293 784 l 1,15,-1
 -293 657 l 1,16,17
 -394 657 -394 657 -436.5 642 c 128,-1,18
 -479 627 -479 627 -479 586 c 0,19,20
 -479 546 -479 546 -435.5 530.5 c 128,-1,21
 -392 515 -392 515 -293 515 c 1,4,-1
EndSplineSet
EndChar

StartChar: daSub-soyo.3
Encoding: 125 -1 52
Width: 0
GlyphClass: 4
Flags: W
HStem: 664 90<-385.973 -293>
VStem: -553 74<597.946 647.89> -387 94<476 536.969 709.133 754> -148 94<426 754>
AnchorPoint: "+BBEENQQ3BEsEPARPBD0EPQQ+BDUA--2" -148 426 basemark 0
AnchorPoint: "+BBEENQQ3BEsEPARPBD0EPQQ+BDUA--2" -148 754 mark 0
AnchorPoint: "+BBEENQQ3BEsEPARPBD0EPQQ+BDUA--0" -148 754 mark 0
LayerCount: 2
Fore
SplineSet
-148 754 m 1,0,-1
 -54 754 l 1,1,-1
 -54 376 l 1,2,-1
 -148 426 l 1,3,-1
 -148 754 l 1,0,-1
-293 582 m 1,4,-1
 -293 426 l 1,5,-1
 -387 476 l 1,6,-1
 -387 535 l 1,7,8
 -472 542 -472 542 -512.5 563 c 128,-1,9
 -553 584 -553 584 -553 623 c 0,10,11
 -553 698 -553 698 -387 711 c 1,12,-1
 -387 754 l 1,13,-1
 -293 754 l 1,14,-1
 -293 664 l 1,15,16
 -394 664 -394 664 -436.5 655 c 128,-1,17
 -479 646 -479 646 -479 623 c 256,18,19
 -479 600 -479 600 -435.5 591 c 128,-1,20
 -392 582 -392 582 -293 582 c 1,4,-1
EndSplineSet
EndChar

StartChar: daSub-soyo.ini2
Encoding: 126 -1 53
Width: 0
GlyphClass: 4
Flags: W
HStem: 492 127<-405.973 -313>
VStem: -573 74<376.926 466.108> -407 94<211 299.812 542.422 619> -168 94<161 529>
AnchorPoint: "+BBEENQQ3BEsEPARPBD0EPQQ+BDUA--2" -168 161 basemark 0
AnchorPoint: "+BBEENQQ3BEsEPARPBD0EPQQ+BDUA--2" -168 529 mark 0
AnchorPoint: "+BBEENQQ3BEsEPARPBD0EPQQ+BDUA--0" -168 529 mark 0
LayerCount: 2
Fore
SplineSet
-313 350 m 1,0,-1
 -313 161 l 1,1,-1
 -407 211 l 1,2,-1
 -407 297 l 1,3,4
 -492 307 -492 307 -532.5 337 c 128,-1,5
 -573 367 -573 367 -573 421 c 0,6,7
 -573 476 -573 476 -532 506 c 128,-1,8
 -491 536 -491 536 -407 545 c 1,9,-1
 -407 619 l 1,10,-1
 -313 619 l 1,11,-1
 -313 492 l 1,12,13
 -414 492 -414 492 -456.5 477 c 128,-1,14
 -499 462 -499 462 -499 421 c 0,15,16
 -499 381 -499 381 -455.5 365.5 c 128,-1,17
 -412 350 -412 350 -313 350 c 1,0,-1
-168 529 m 1,18,-1
 -74 529 l 1,19,-1
 -74 111 l 1,20,-1
 -168 161 l 1,21,-1
 -168 529 l 1,18,-1
EndSplineSet
EndChar

StartChar: daSub-soyo.ini3
Encoding: 127 -1 54
Width: 0
GlyphClass: 4
Flags: W
HStem: 499 100<-405.973 -313>
VStem: -573 74<432.946 482.89> -407 94<311 371.969 544.133 599> -168 94<261 509>
AnchorPoint: "+BBEENQQ3BEsEPARPBD0EPQQ+BDUA--2" -168 261 basemark 0
AnchorPoint: "+BBEENQQ3BEsEPARPBD0EPQQ+BDUA--2" -168 509 mark 0
AnchorPoint: "+BBEENQQ3BEsEPARPBD0EPQQ+BDUA--0" -168 509 mark 0
LayerCount: 2
Fore
SplineSet
-313 417 m 1,0,-1
 -313 261 l 1,1,-1
 -407 311 l 1,2,-1
 -407 370 l 1,3,4
 -492 377 -492 377 -532.5 398 c 128,-1,5
 -573 419 -573 419 -573 458 c 0,6,7
 -573 533 -573 533 -407 546 c 1,8,-1
 -407 599 l 1,9,-1
 -313 599 l 1,10,-1
 -313 499 l 1,11,12
 -414 499 -414 499 -456.5 490 c 128,-1,13
 -499 481 -499 481 -499 458 c 256,14,15
 -499 435 -499 435 -455.5 426 c 128,-1,16
 -412 417 -412 417 -313 417 c 1,0,-1
-168 509 m 1,17,-1
 -74 509 l 1,18,-1
 -74 211 l 1,19,-1
 -168 261 l 1,20,-1
 -168 509 l 1,17,-1
EndSplineSet
EndChar

StartChar: dda-soyo
Encoding: 29 72296 55
Width: 570
GlyphClass: 2
Flags: MW
HStem: 617 97
VStem: 163 94<111 324 444 617> 402 94<0 703>
AnchorPoint: "+BBEENQQ3BEsEPARPBD0EPQQ+BDUA--1" 210 714 basechar 0
AnchorPoint: "+BBEENQQ3BEsEPARPBD0EPQQ+BDUA--0" 402 0 basechar 0
LayerCount: 2
Fore
SplineSet
51 384 m 1,0,-1
 163 444 l 1,1,-1
 163 617 l 1,2,-1
 10 708 l 1,3,-1
 10 714 l 1,4,-1
 496 714 l 1,5,-1
 496 -50 l 1,6,-1
 402 0 l 1,7,-1
 402 703 l 1,8,-1
 257 617 l 1,9,-1
 257 61 l 1,10,-1
 163 111 l 1,11,-1
 163 324 l 1,12,-1
 51 384 l 1,0,-1
EndSplineSet
MultipleSubs2: "Multiple Substitution lookup 70 subtable" head-soyo ddaSub-soyo
EndChar

StartChar: ddaSub-soyo
Encoding: 128 -1 56
Width: 0
GlyphClass: 4
Flags: W
VStem: -357 94<276 489 609 814> -118 94<226 714>
AnchorPoint: "+BBEENQQ3BEsEPARPBD0EPQQ+BDUA--2" -118 226 basemark 0
AnchorPoint: "+BBEENQQ3BEsEPARPBD0EPQQ+BDUA--2" -118 714 mark 0
AnchorPoint: "+BBEENQQ3BEsEPARPBD0EPQQ+BDUA--0" -118 714 mark 0
LayerCount: 2
Fore
SplineSet
-469 549 m 1,0,-1
 -357 609 l 1,1,-1
 -357 814 l 1,2,-1
 -263 814 l 1,3,-1
 -263 226 l 1,4,-1
 -357 276 l 1,5,-1
 -357 489 l 1,6,-1
 -469 549 l 1,0,-1
-118 714 m 1,7,-1
 -24 714 l 1,8,-1
 -24 176 l 1,9,-1
 -118 226 l 1,10,-1
 -118 714 l 1,7,-1
EndSplineSet
Substitution2: "Single Substitution lookup 279 subtable" ddaSub-soyo.ini2
Substitution2: "Single Substitution lookup 277 subtable" ddaSub-soyo.2
Substitution2: "Single Substitution lookup 276 subtable" ddaSub-soyo.ini2
Substitution2: "Single Substitution lookup 274 subtable" ddaSub-soyo.3
Substitution2: "Single Substitution lookup 272 subtable" ddaSub-soyo.ini3
Substitution2: "Single Substitution lookup 270 subtable" ddaSub-soyo.3
Substitution2: "Single Substitution lookup 269 subtable" ddaSub-soyo.3
Substitution2: "Single Substitution lookup 268 subtable" ddaSub-soyo.3
Substitution2: "Single Substitution lookup 267 subtable" ddaSub-soyo.3
Substitution2: "Single Substitution lookup 266 subtable" ddaSub-soyo.3
Substitution2: "Single Substitution lookup 265 subtable" ddaSub-soyo.3
Substitution2: "Single Substitution lookup 264 subtable" ddaSub-soyo.3
Substitution2: "Single Substitution lookup 263 subtable" ddaSub-soyo.3
Substitution2: "Single Substitution lookup 262 subtable" ddaSub-soyo.3
Substitution2: "Single Substitution lookup 260 subtable" ddaSub-soyo.ini3
Ligature2: "'half' Half Forms in Soyombo lookup 188 subtable" subjoiner-soyo dda-soyo
MultipleSubs2: "Multiple Substitution lookup 154 subtable" ddaSub-soyo joiner-soyo.right
MultipleSubs2: "Multiple Substitution lookup 112 subtable" ddaSub-soyo tail-soyo.long
EndChar

StartChar: ddaSub-soyo.2
Encoding: 129 -1 57
Width: 0
GlyphClass: 4
Flags: W
VStem: -387 94<376 514 634 714> -148 94<326 714>
AnchorPoint: "+BBEENQQ3BEsEPARPBD0EPQQ+BDUA--2" -148 326 basemark 0
AnchorPoint: "+BBEENQQ3BEsEPARPBD0EPQQ+BDUA--2" -148 714 mark 0
AnchorPoint: "+BBEENQQ3BEsEPARPBD0EPQQ+BDUA--0" -148 714 mark 0
LayerCount: 2
Fore
SplineSet
-148 714 m 1,0,-1
 -54 714 l 1,1,-1
 -54 276 l 1,2,-1
 -148 326 l 1,3,-1
 -148 714 l 1,0,-1
-499 574 m 1,4,-1
 -387 634 l 1,5,-1
 -387 714 l 1,6,-1
 -293 714 l 1,7,-1
 -293 326 l 1,8,-1
 -387 376 l 1,9,-1
 -387 514 l 1,10,-1
 -499 574 l 1,4,-1
EndSplineSet
EndChar

StartChar: ddaSub-soyo.3
Encoding: 130 -1 58
Width: 0
GlyphClass: 4
Flags: W
VStem: -387 94<476 539 659 714> -148 94<426 714>
AnchorPoint: "+BBEENQQ3BEsEPARPBD0EPQQ+BDUA--2" -148 426 basemark 0
AnchorPoint: "+BBEENQQ3BEsEPARPBD0EPQQ+BDUA--2" -148 714 mark 0
AnchorPoint: "+BBEENQQ3BEsEPARPBD0EPQQ+BDUA--0" -148 714 mark 0
LayerCount: 2
Fore
SplineSet
-148 714 m 1,0,-1
 -54 714 l 1,1,-1
 -54 376 l 1,2,-1
 -148 426 l 1,3,-1
 -148 714 l 1,0,-1
-499 599 m 1,4,-1
 -387 659 l 1,5,-1
 -387 714 l 1,6,-1
 -293 714 l 1,7,-1
 -293 426 l 1,8,-1
 -387 476 l 1,9,-1
 -387 539 l 1,10,-1
 -499 599 l 1,4,-1
EndSplineSet
EndChar

StartChar: ddaSub-soyo.ini2
Encoding: 131 -1 59
Width: 0
GlyphClass: 4
Flags: W
VStem: -407 94<211 349 469 589> -168 94<161 489>
AnchorPoint: "+BBEENQQ3BEsEPARPBD0EPQQ+BDUA--2" -168 161 basemark 0
AnchorPoint: "+BBEENQQ3BEsEPARPBD0EPQQ+BDUA--2" -168 489 mark 0
AnchorPoint: "+BBEENQQ3BEsEPARPBD0EPQQ+BDUA--0" -168 489 mark 0
LayerCount: 2
Fore
SplineSet
-519 409 m 1,0,-1
 -407 469 l 1,1,-1
 -407 589 l 1,2,-1
 -313 589 l 1,3,-1
 -313 161 l 1,4,-1
 -407 211 l 1,5,-1
 -407 349 l 1,6,-1
 -519 409 l 1,0,-1
-168 489 m 1,7,-1
 -74 489 l 1,8,-1
 -74 111 l 1,9,-1
 -168 161 l 1,10,-1
 -168 489 l 1,7,-1
EndSplineSet
EndChar

StartChar: ddaSub-soyo.ini3
Encoding: 132 -1 60
Width: 0
GlyphClass: 4
Flags: W
VStem: -407 94<311 374 494 579> -168 94<261 479>
AnchorPoint: "+BBEENQQ3BEsEPARPBD0EPQQ+BDUA--2" -168 261 basemark 0
AnchorPoint: "+BBEENQQ3BEsEPARPBD0EPQQ+BDUA--2" -168 479 mark 0
AnchorPoint: "+BBEENQQ3BEsEPARPBD0EPQQ+BDUA--0" -168 479 mark 0
LayerCount: 2
Fore
SplineSet
-519 434 m 1,0,-1
 -407 494 l 1,1,-1
 -407 579 l 1,2,-1
 -313 579 l 1,3,-1
 -313 261 l 1,4,-1
 -407 311 l 1,5,-1
 -407 374 l 1,6,-1
 -519 434 l 1,0,-1
-168 479 m 1,7,-1
 -74 479 l 1,8,-1
 -74 211 l 1,9,-1
 -168 261 l 1,10,-1
 -168 479 l 1,7,-1
EndSplineSet
EndChar

StartChar: ddha-soyo
Encoding: 30 72297 61
Width: 670
GlyphClass: 2
Flags: MW
HStem: 376 50<157.75 263> 617 97
VStem: 24 94<463.039 596.793> 263 94<63 164 284 376 426 617> 502 94<0 703>
CounterMasks: 1 38
AnchorPoint: "+BBEENQQ3BEsEPARPBD0EPQQ+BDUA--1" 310 714 basechar 0
AnchorPoint: "+BBEENQQ3BEsEPARPBD0EPQQ+BDUA--0" 502 0 basechar 0
LayerCount: 2
Fore
SplineSet
151 224 m 1,0,-1
 263 284 l 1,1,-1
 263 376 l 1,2,-1
 259 376 l 2,3,4
 144 376 144 376 84 415 c 128,-1,5
 24 454 24 454 24 530 c 0,6,7
 24 614 24 614 95 614 c 0,8,9
 120 614 120 614 140 604 c 1,10,11
 118 572 118 572 118 526 c 0,12,13
 118 477 118 477 152 451.5 c 128,-1,14
 186 426 186 426 259 426 c 2,15,-1
 263 426 l 1,16,-1
 263 617 l 1,17,-1
 110 708 l 1,18,-1
 110 714 l 1,19,-1
 596 714 l 1,20,-1
 596 -50 l 1,21,-1
 502 0 l 1,22,-1
 502 703 l 1,23,-1
 357 617 l 1,24,-1
 357 13 l 1,25,-1
 263 63 l 1,26,-1
 263 164 l 1,27,-1
 151 224 l 1,0,-1
EndSplineSet
MultipleSubs2: "Multiple Substitution lookup 71 subtable" head-soyo ddhaSub-soyo
EndChar

StartChar: ddhaSub-soyo
Encoding: 133 -1 62
Width: 0
GlyphClass: 4
Flags: W
HStem: 441 50<-562.25 -457>
VStem: -696 94<528.039 661.793> -457 94<128 229 349 441 491 714> -218 94<78 614>
CounterMasks: 1 70
AnchorPoint: "+BBEENQQ3BEsEPARPBD0EPQQ+BDUA--2" -218 78 basemark 0
AnchorPoint: "+BBEENQQ3BEsEPARPBD0EPQQ+BDUA--2" -218 614 mark 0
AnchorPoint: "+BBEENQQ3BEsEPARPBD0EPQQ+BDUA--0" -218 614 mark 0
LayerCount: 2
Fore
SplineSet
-569 289 m 1,0,-1
 -457 349 l 1,1,-1
 -457 441 l 1,2,-1
 -461 441 l 2,3,4
 -576 441 -576 441 -636 480 c 128,-1,5
 -696 519 -696 519 -696 595 c 0,6,7
 -696 679 -696 679 -625 679 c 0,8,9
 -600 679 -600 679 -580 669 c 1,10,11
 -602 637 -602 637 -602 591 c 0,12,13
 -602 542 -602 542 -568 516.5 c 128,-1,14
 -534 491 -534 491 -461 491 c 2,15,-1
 -457 491 l 1,16,-1
 -457 714 l 1,17,-1
 -363 714 l 1,18,-1
 -363 78 l 1,19,-1
 -457 128 l 1,20,-1
 -457 229 l 1,21,-1
 -569 289 l 1,0,-1
-218 614 m 1,22,-1
 -124 664 l 1,23,-1
 -124 28 l 1,24,-1
 -218 78 l 1,25,-1
 -218 614 l 1,22,-1
EndSplineSet
Substitution2: "Single Substitution lookup 279 subtable" ddhaSub-soyo.ini2
Substitution2: "Single Substitution lookup 277 subtable" ddhaSub-soyo.2
Substitution2: "Single Substitution lookup 276 subtable" ddhaSub-soyo.ini2
Substitution2: "Single Substitution lookup 274 subtable" ddhaSub-soyo.3
Substitution2: "Single Substitution lookup 272 subtable" ddhaSub-soyo.ini3
Substitution2: "Single Substitution lookup 270 subtable" ddhaSub-soyo.3
Substitution2: "Single Substitution lookup 269 subtable" ddhaSub-soyo.3
Substitution2: "Single Substitution lookup 268 subtable" ddhaSub-soyo.3
Substitution2: "Single Substitution lookup 267 subtable" ddhaSub-soyo.3
Substitution2: "Single Substitution lookup 266 subtable" ddhaSub-soyo.3
Substitution2: "Single Substitution lookup 265 subtable" ddhaSub-soyo.3
Substitution2: "Single Substitution lookup 264 subtable" ddhaSub-soyo.3
Substitution2: "Single Substitution lookup 263 subtable" ddhaSub-soyo.3
Substitution2: "Single Substitution lookup 262 subtable" ddhaSub-soyo.3
Substitution2: "Single Substitution lookup 260 subtable" ddhaSub-soyo.ini3
Ligature2: "'half' Half Forms in Soyombo lookup 188 subtable" subjoiner-soyo ddha-soyo
MultipleSubs2: "Multiple Substitution lookup 155 subtable" ddhaSub-soyo joiner-soyo.right
MultipleSubs2: "Multiple Substitution lookup 113 subtable" ddhaSub-soyo tail-soyo.long
EndChar

StartChar: ddhaSub-soyo.2
Encoding: 134 -1 63
Width: 0
GlyphClass: 4
Flags: W
HStem: 473 50<-496.062 -387>
VStem: -626 94<553.816 670.863> -387 94<221 303 423 473 523 717> -148 94<171 717>
CounterMasks: 1 70
AnchorPoint: "+BBEENQQ3BEsEPARPBD0EPQQ+BDUA--2" -148 171 basemark 0
AnchorPoint: "+BBEENQQ3BEsEPARPBD0EPQQ+BDUA--2" -148 717 mark 0
AnchorPoint: "+BBEENQQ3BEsEPARPBD0EPQQ+BDUA--0" -148 717 mark 0
LayerCount: 2
Fore
SplineSet
-148 717 m 1,0,-1
 -54 767 l 1,1,-1
 -54 121 l 1,2,-1
 -148 171 l 1,3,-1
 -148 717 l 1,0,-1
-499 363 m 1,4,-1
 -387 423 l 1,5,-1
 -387 473 l 1,6,-1
 -395 473 l 2,7,8
 -626 473 -626 473 -626 612 c 0,9,10
 -626 685 -626 685 -558 685 c 0,11,12
 -532 685 -532 685 -513 674 c 1,13,14
 -532 648 -532 648 -532 609 c 0,15,16
 -532 567 -532 567 -500 545 c 128,-1,17
 -468 523 -468 523 -395 523 c 2,18,-1
 -387 523 l 1,19,-1
 -387 717 l 1,20,-1
 -293 717 l 1,21,-1
 -293 171 l 1,22,-1
 -387 221 l 1,23,-1
 -387 303 l 1,24,-1
 -499 363 l 1,4,-1
EndSplineSet
EndChar

StartChar: ddhaSub-soyo.3
Encoding: 135 -1 64
Width: 0
GlyphClass: 4
Flags: W
HStem: 499 50<-500.537 -387>
VStem: -626 94<574.172 673.227> -387 94<308 371 491 499 549 714> -148 94<258 714>
CounterMasks: 1 70
AnchorPoint: "+BBEENQQ3BEsEPARPBD0EPQQ+BDUA--2" -148 258 basemark 0
AnchorPoint: "+BBEENQQ3BEsEPARPBD0EPQQ+BDUA--2" -148 714 mark 0
AnchorPoint: "+BBEENQQ3BEsEPARPBD0EPQQ+BDUA--0" -148 714 mark 0
LayerCount: 2
Fore
SplineSet
-148 714 m 1,0,-1
 -54 764 l 1,1,-1
 -54 208 l 1,2,-1
 -148 258 l 1,3,-1
 -148 714 l 1,0,-1
-499 431 m 1,4,-1
 -387 491 l 1,5,-1
 -387 499 l 1,6,-1
 -400 499 l 2,7,8
 -626 499 -626 499 -626 623 c 0,9,10
 -626 684 -626 684 -561 684 c 0,11,12
 -536 684 -536 684 -516 674 c 1,13,14
 -532 652 -532 652 -532 620 c 0,15,16
 -532 586 -532 586 -501.5 567.5 c 128,-1,17
 -471 549 -471 549 -400 549 c 2,18,-1
 -387 549 l 1,19,-1
 -387 714 l 1,20,-1
 -293 714 l 1,21,-1
 -293 258 l 1,22,-1
 -387 308 l 1,23,-1
 -387 371 l 1,24,-1
 -499 431 l 1,4,-1
EndSplineSet
EndChar

StartChar: ddhaSub-soyo.ini2
Encoding: 136 -1 65
Width: 0
GlyphClass: 4
Flags: W
HStem: 405 50<-516.062 -407>
VStem: -646 94<485.816 602.863> -407 94<153 235 355 405 455 649> -168 94<103 549>
CounterMasks: 1 70
AnchorPoint: "+BBEENQQ3BEsEPARPBD0EPQQ+BDUA--2" -168 103 basemark 0
AnchorPoint: "+BBEENQQ3BEsEPARPBD0EPQQ+BDUA--2" -168 549 mark 0
AnchorPoint: "+BBEENQQ3BEsEPARPBD0EPQQ+BDUA--0" -168 549 mark 0
LayerCount: 2
Fore
SplineSet
-519 295 m 1,0,-1
 -407 355 l 1,1,-1
 -407 405 l 1,2,-1
 -415 405 l 2,3,4
 -646 405 -646 405 -646 544 c 0,5,6
 -646 617 -646 617 -578 617 c 0,7,8
 -552 617 -552 617 -533 606 c 1,9,10
 -552 580 -552 580 -552 541 c 0,11,12
 -552 499 -552 499 -520 477 c 128,-1,13
 -488 455 -488 455 -415 455 c 2,14,-1
 -407 455 l 1,15,-1
 -407 649 l 1,16,-1
 -313 649 l 1,17,-1
 -313 103 l 1,18,-1
 -407 153 l 1,19,-1
 -407 235 l 1,20,-1
 -519 295 l 1,0,-1
-168 549 m 1,21,-1
 -74 599 l 1,22,-1
 -74 53 l 1,23,-1
 -168 103 l 1,24,-1
 -168 549 l 1,21,-1
EndSplineSet
EndChar

StartChar: ddhaSub-soyo.ini3
Encoding: 137 -1 66
Width: 0
GlyphClass: 4
Flags: W
HStem: 434 50<-520.537 -407>
VStem: -646 94<509.172 608.227> -407 94<243 306 426 434 484 649> -168 94<193 549>
CounterMasks: 1 70
AnchorPoint: "+BBEENQQ3BEsEPARPBD0EPQQ+BDUA--2" -168 193 basemark 0
AnchorPoint: "+BBEENQQ3BEsEPARPBD0EPQQ+BDUA--2" -168 549 mark 0
AnchorPoint: "+BBEENQQ3BEsEPARPBD0EPQQ+BDUA--0" -168 549 mark 0
LayerCount: 2
Fore
SplineSet
-519 366 m 1,0,-1
 -407 426 l 1,1,-1
 -407 434 l 1,2,-1
 -420 434 l 2,3,4
 -646 434 -646 434 -646 558 c 0,5,6
 -646 619 -646 619 -581 619 c 0,7,8
 -556 619 -556 619 -536 609 c 1,9,10
 -552 587 -552 587 -552 555 c 0,11,12
 -552 521 -552 521 -521.5 502.5 c 128,-1,13
 -491 484 -491 484 -420 484 c 2,14,-1
 -407 484 l 1,15,-1
 -407 649 l 1,16,-1
 -313 649 l 1,17,-1
 -313 193 l 1,18,-1
 -407 243 l 1,19,-1
 -407 306 l 1,20,-1
 -519 366 l 1,0,-1
-168 549 m 1,21,-1
 -74 599 l 1,22,-1
 -74 143 l 1,23,-1
 -168 193 l 1,24,-1
 -168 549 l 1,21,-1
EndSplineSet
EndChar

StartChar: dha-soyo
Encoding: 35 72302 67
Width: 660
GlyphClass: 2
Flags: MW
HStem: 50 64<203.826 342.545> 326 50<147.75 253> 617 97
VStem: 14 94<413.039 546.793> 124 74<122.333 193.913> 253 94<265.561 326 376 617> 492 94<0 703>
AnchorPoint: "+BBEENQQ3BEsEPARPBD0EPQQ+BDUA--1" 300 714 basechar 0
AnchorPoint: "+BBEENQQ3BEsEPARPBD0EPQQ+BDUA--0" 492 0 basechar 0
LayerCount: 2
Fore
SplineSet
250 50 m 0,0,1
 193 50 193 50 158.5 76.5 c 128,-1,2
 124 103 124 103 124 150 c 0,3,4
 124 199 124 199 159.5 227.5 c 128,-1,5
 195 256 195 256 253 272 c 1,6,-1
 253 326 l 1,7,-1
 249 326 l 2,8,9
 134 326 134 326 74 365 c 128,-1,10
 14 404 14 404 14 480 c 0,11,12
 14 564 14 564 85 564 c 0,13,14
 110 564 110 564 130 554 c 1,15,16
 108 522 108 522 108 476 c 0,17,18
 108 427 108 427 142 401.5 c 128,-1,19
 176 376 176 376 249 376 c 2,20,-1
 253 376 l 1,21,-1
 253 617 l 5,22,-1
 100 708 l 1,23,-1
 100 714 l 1,24,-1
 586 714 l 1,25,-1
 586 -50 l 1,26,-1
 492 0 l 1,27,-1
 492 703 l 1,28,-1
 347 617 l 1,29,-1
 347 241 l 1,30,31
 265 221 265 221 231.5 202 c 128,-1,32
 198 183 198 183 198 156 c 0,33,34
 198 114 198 114 264 114 c 0,35,36
 302 114 302 114 338 125 c 1,37,-1
 358 76 l 1,38,39
 306 50 306 50 250 50 c 0,0,1
EndSplineSet
MultipleSubs2: "Multiple Substitution lookup 76 subtable" head-soyo dhaSub-soyo
EndChar

StartChar: dhaSub-soyo
Encoding: 138 -1 68
Width: 0
GlyphClass: 4
Flags: W
HStem: 165 64<-506.174 -367.455> 441 50<-562.25 -457>
VStem: -696 94<528.039 661.793> -586 74<237.333 308.913> -457 94<380.561 441 491 754> -218 94<150 664>
AnchorPoint: "+BBEENQQ3BEsEPARPBD0EPQQ+BDUA--2" -218 150 basemark 0
AnchorPoint: "+BBEENQQ3BEsEPARPBD0EPQQ+BDUA--2" -218 664 mark 0
AnchorPoint: "+BBEENQQ3BEsEPARPBD0EPQQ+BDUA--0" -218 664 mark 0
LayerCount: 2
Fore
SplineSet
-460 165 m 0,0,1
 -517 165 -517 165 -551.5 191.5 c 128,-1,2
 -586 218 -586 218 -586 265 c 0,3,4
 -586 314 -586 314 -550.5 342.5 c 128,-1,5
 -515 371 -515 371 -457 387 c 1,6,-1
 -457 441 l 1,7,-1
 -461 441 l 2,8,9
 -576 441 -576 441 -636 480 c 128,-1,10
 -696 519 -696 519 -696 595 c 0,11,12
 -696 679 -696 679 -625 679 c 0,13,14
 -600 679 -600 679 -580 669 c 1,15,16
 -602 637 -602 637 -602 591 c 0,17,18
 -602 542 -602 542 -568 516.5 c 128,-1,19
 -534 491 -534 491 -461 491 c 2,20,-1
 -457 491 l 1,21,-1
 -457 754 l 1,22,-1
 -363 754 l 1,23,-1
 -363 356 l 1,24,25
 -445 336 -445 336 -478.5 317 c 128,-1,26
 -512 298 -512 298 -512 271 c 0,27,28
 -512 229 -512 229 -446 229 c 0,29,30
 -408 229 -408 229 -372 240 c 1,31,-1
 -352 191 l 1,32,33
 -404 165 -404 165 -460 165 c 0,0,1
-218 664 m 1,34,-1
 -124 714 l 1,35,-1
 -124 100 l 1,36,-1
 -218 150 l 1,37,-1
 -218 664 l 1,34,-1
EndSplineSet
Substitution2: "Single Substitution lookup 279 subtable" dhaSub-soyo.ini2
Substitution2: "Single Substitution lookup 277 subtable" dhaSub-soyo.2
Substitution2: "Single Substitution lookup 276 subtable" dhaSub-soyo.ini2
Substitution2: "Single Substitution lookup 274 subtable" dhaSub-soyo.3
Substitution2: "Single Substitution lookup 272 subtable" dhaSub-soyo.ini3
Substitution2: "Single Substitution lookup 270 subtable" dhaSub-soyo.3
Substitution2: "Single Substitution lookup 269 subtable" dhaSub-soyo.3
Substitution2: "Single Substitution lookup 268 subtable" dhaSub-soyo.3
Substitution2: "Single Substitution lookup 267 subtable" dhaSub-soyo.3
Substitution2: "Single Substitution lookup 266 subtable" dhaSub-soyo.3
Substitution2: "Single Substitution lookup 265 subtable" dhaSub-soyo.3
Substitution2: "Single Substitution lookup 264 subtable" dhaSub-soyo.3
Substitution2: "Single Substitution lookup 263 subtable" dhaSub-soyo.3
Substitution2: "Single Substitution lookup 262 subtable" dhaSub-soyo.3
Substitution2: "Single Substitution lookup 260 subtable" dhaSub-soyo.ini3
Ligature2: "'half' Half Forms in Soyombo lookup 188 subtable" subjoiner-soyo dha-soyo
MultipleSubs2: "Multiple Substitution lookup 160 subtable" dhaSub-soyo joiner-soyo.right
MultipleSubs2: "Multiple Substitution lookup 118 subtable" dhaSub-soyo tail-soyo.long
EndChar

StartChar: dhaSub-soyo.2
Encoding: 139 -1 69
Width: 0
GlyphClass: 4
Flags: W
HStem: 238 64<-459.398 -317.471> 470 50<-516.062 -407>
VStem: -646 94<550.816 667.863> -536 74<307.232 368.991> -407 94<435.988 470 520 714> -168 94<230 634>
AnchorPoint: "+BBEENQQ3BEsEPARPBD0EPQQ+BDUA--2" -168 230 basemark 0
AnchorPoint: "+BBEENQQ3BEsEPARPBD0EPQQ+BDUA--2" -168 714 mark 0
AnchorPoint: "+BBEENQQ3BEsEPARPBD0EPQQ+BDUA--0" -168 714 mark 0
LayerCount: 2
Fore
SplineSet
-416 238 m 0,0,1
 -470 238 -470 238 -503 262.5 c 128,-1,2
 -536 287 -536 287 -536 330 c 0,3,4
 -536 375 -536 375 -500.5 401 c 128,-1,5
 -465 427 -465 427 -407 442 c 1,6,-1
 -407 470 l 1,7,-1
 -415 470 l 2,8,9
 -646 470 -646 470 -646 609 c 0,10,11
 -646 682 -646 682 -578 682 c 0,12,13
 -552 682 -552 682 -533 671 c 1,14,15
 -552 645 -552 645 -552 606 c 0,16,17
 -552 564 -552 564 -520 542 c 128,-1,18
 -488 520 -488 520 -415 520 c 2,19,-1
 -407 520 l 1,20,-1
 -407 714 l 1,21,-1
 -313 714 l 1,22,-1
 -313 411 l 1,23,24
 -395 393 -395 393 -428.5 376 c 128,-1,25
 -462 359 -462 359 -462 336 c 0,26,27
 -462 302 -462 302 -403 302 c 0,28,29
 -384 302 -384 302 -362.5 305 c 128,-1,30
 -341 308 -341 308 -322 313 c 1,31,-1
 -302 264 l 1,32,33
 -357 238 -357 238 -416 238 c 0,0,1
-168 634 m 1,34,-1
 -74 684 l 1,35,-1
 -74 180 l 1,36,-1
 -168 230 l 1,37,-1
 -168 634 l 1,34,-1
EndSplineSet
EndChar

StartChar: dhaSub-soyo.3
Encoding: 140 -1 70
Width: 0
GlyphClass: 4
Flags: W
HStem: 302 64<-461.555 -318.107> 499 50<-520.537 -407>
VStem: -646 94<574.172 673.227> -536 74<369.161 419.077> -407 94<481.721 499 549 714> -168 94<300 634>
AnchorPoint: "+BBEENQQ3BEsEPARPBD0EPQQ+BDUA--2" -168 300 basemark 0
AnchorPoint: "+BBEENQQ3BEsEPARPBD0EPQQ+BDUA--2" -168 714 mark 0
AnchorPoint: "+BBEENQQ3BEsEPARPBD0EPQQ+BDUA--0" -168 714 mark 0
LayerCount: 2
Fore
SplineSet
-421 302 m 0,0,1
 -473 302 -473 302 -504.5 324 c 128,-1,2
 -536 346 -536 346 -536 384 c 0,3,4
 -536 425 -536 425 -500.5 449.5 c 128,-1,5
 -465 474 -465 474 -407 487 c 1,6,-1
 -407 499 l 1,7,-1
 -420 499 l 2,8,9
 -646 499 -646 499 -646 623 c 0,10,11
 -646 684 -646 684 -581 684 c 0,12,13
 -556 684 -556 684 -536 674 c 1,14,15
 -552 652 -552 652 -552 620 c 0,16,17
 -552 586 -552 586 -521.5 567.5 c 128,-1,18
 -491 549 -491 549 -420 549 c 2,19,-1
 -407 549 l 1,20,-1
 -407 714 l 1,21,-1
 -313 714 l 1,22,-1
 -313 456 l 1,23,24
 -395 440 -395 440 -428.5 425.5 c 128,-1,25
 -462 411 -462 411 -462 390 c 0,26,27
 -462 366 -462 366 -409 366 c 0,28,29
 -364 366 -364 366 -322 377 c 1,30,-1
 -302 328 l 1,31,32
 -360 302 -360 302 -421 302 c 0,0,1
-168 634 m 1,33,-1
 -74 684 l 1,34,-1
 -74 250 l 1,35,-1
 -168 300 l 1,36,-1
 -168 634 l 1,33,-1
EndSplineSet
EndChar

StartChar: dhaSub-soyo.ini2
Encoding: 141 -1 71
Width: 0
GlyphClass: 4
Flags: W
HStem: 238 64<-509.398 -367.471> 470 50<-566.062 -457>
VStem: -696 94<550.816 667.863> -586 74<307.232 368.991> -457 94<435.988 470 520 754> -218 94<230 664>
AnchorPoint: "+BBEENQQ3BEsEPARPBD0EPQQ+BDUA--2" -218 230 basemark 0
AnchorPoint: "+BBEENQQ3BEsEPARPBD0EPQQ+BDUA--2" -218 634 mark 0
AnchorPoint: "+BBEENQQ3BEsEPARPBD0EPQQ+BDUA--0" -218 634 mark 0
LayerCount: 2
Fore
SplineSet
-466 238 m 0,0,1
 -520 238 -520 238 -553 262.5 c 128,-1,2
 -586 287 -586 287 -586 330 c 0,3,4
 -586 375 -586 375 -550.5 401 c 128,-1,5
 -515 427 -515 427 -457 442 c 1,6,-1
 -457 470 l 1,7,-1
 -465 470 l 2,8,9
 -696 470 -696 470 -696 609 c 0,10,11
 -696 682 -696 682 -628 682 c 0,12,13
 -602 682 -602 682 -583 671 c 1,14,15
 -602 645 -602 645 -602 606 c 0,16,17
 -602 564 -602 564 -570 542 c 128,-1,18
 -538 520 -538 520 -465 520 c 2,19,-1
 -457 520 l 1,20,-1
 -457 754 l 1,21,-1
 -363 754 l 1,22,-1
 -363 411 l 1,23,24
 -445 393 -445 393 -478.5 376 c 128,-1,25
 -512 359 -512 359 -512 336 c 0,26,27
 -512 302 -512 302 -453 302 c 0,28,29
 -434 302 -434 302 -412.5 305 c 128,-1,30
 -391 308 -391 308 -372 313 c 1,31,-1
 -352 264 l 1,32,33
 -407 238 -407 238 -466 238 c 0,0,1
-218 664 m 1,34,-1
 -124 714 l 1,35,-1
 -124 180 l 1,36,-1
 -218 230 l 1,37,-1
 -218 664 l 1,34,-1
EndSplineSet
EndChar

StartChar: dhaSub-soyo.ini3
Encoding: 142 -1 72
Width: 0
GlyphClass: 4
Flags: W
HStem: 302 64<-511.555 -368.107> 499 50<-570.537 -457>
VStem: -696 94<574.172 673.227> -586 74<369.161 419.077> -457 94<481.721 499 549 754> -218 94<300 664>
AnchorPoint: "+BBEENQQ3BEsEPARPBD0EPQQ+BDUA--2" -218 300 basemark 0
AnchorPoint: "+BBEENQQ3BEsEPARPBD0EPQQ+BDUA--2" -218 634 mark 0
AnchorPoint: "+BBEENQQ3BEsEPARPBD0EPQQ+BDUA--0" -218 634 mark 0
LayerCount: 2
Fore
SplineSet
-471 302 m 0,0,1
 -523 302 -523 302 -554.5 324 c 128,-1,2
 -586 346 -586 346 -586 384 c 0,3,4
 -586 425 -586 425 -550.5 449.5 c 128,-1,5
 -515 474 -515 474 -457 487 c 1,6,-1
 -457 499 l 1,7,-1
 -470 499 l 2,8,9
 -696 499 -696 499 -696 623 c 0,10,11
 -696 684 -696 684 -631 684 c 0,12,13
 -606 684 -606 684 -586 674 c 1,14,15
 -602 652 -602 652 -602 620 c 0,16,17
 -602 586 -602 586 -571.5 567.5 c 128,-1,18
 -541 549 -541 549 -470 549 c 2,19,-1
 -457 549 l 1,20,-1
 -457 754 l 1,21,-1
 -363 754 l 1,22,-1
 -363 456 l 1,23,24
 -445 440 -445 440 -478.5 425.5 c 128,-1,25
 -512 411 -512 411 -512 390 c 0,26,27
 -512 366 -512 366 -459 366 c 0,28,29
 -414 366 -414 366 -372 377 c 1,30,-1
 -352 328 l 1,31,32
 -410 302 -410 302 -471 302 c 0,0,1
-218 664 m 1,33,-1
 -124 714 l 1,34,-1
 -124 250 l 1,35,-1
 -218 300 l 1,36,-1
 -218 664 l 1,33,-1
EndSplineSet
EndChar

StartChar: dottedCircle
Encoding: 4 9676 73
Width: 594
GlyphClass: 2
Flags: W
HStem: 42 52<271.383 315.265> 60 52<187.383 231.265 355.383 399.265> 107 52<113.383 157.265 429.383 473.265> 181 52<66.3828 110.265 476.383 520.265> 265 52<48.3828 92.2648 494.383 538.265> 349 52<66.3828 110.265 476.383 520.265> 423 52<113.383 157.265 429.383 473.265> 470 52<187.383 231.265 355.383 399.265> 488 52<271.383 315.265>
VStem: 48 52<265.383 309.265> 66 52<181.383 225.265 349.383 393.265> 113 52<107.383 151.265 423.383 467.265> 187 52<60.3828 104.265 470.383 514.265> 271 52<42.3828 86.2648 488.383 532.265> 355 52<60.3828 104.265 470.383 514.265> 429 52<107.383 151.265 423.383 467.265> 476 52<181.383 225.265 349.383 393.265> 494 52<265.383 309.265>
AnchorPoint: "+BBEENQQ3BEsEPARPBD0EPQQ+BDUA--1" 294 714 basechar 0
AnchorPoint: "+BBEENQQ3BEsEPARPBD0EPQQ+BDUA--0" 508 -171 basechar 0
LayerCount: 2
Fore
SplineSet
297 540 m 0,0,1
 308 540 308 540 315.5 532.5 c 128,-1,2
 323 525 323 525 323 514 c 0,3,4
 323 504 323 504 315.5 496 c 128,-1,5
 308 488 308 488 297 488 c 0,6,7
 287 488 287 488 279 496 c 128,-1,8
 271 504 271 504 271 514 c 0,9,10
 271 525 271 525 279 532.5 c 128,-1,11
 287 540 287 540 297 540 c 0,0,1
213 522 m 0,12,13
 224 522 224 522 231.5 514.5 c 128,-1,14
 239 507 239 507 239 496 c 0,15,16
 239 486 239 486 231.5 478 c 128,-1,17
 224 470 224 470 213 470 c 0,18,19
 203 470 203 470 195 478 c 128,-1,20
 187 486 187 486 187 496 c 0,21,22
 187 507 187 507 195 514.5 c 128,-1,23
 203 522 203 522 213 522 c 0,12,13
381 522 m 0,24,25
 392 522 392 522 399.5 514.5 c 128,-1,26
 407 507 407 507 407 496 c 0,27,28
 407 486 407 486 399.5 478 c 128,-1,29
 392 470 392 470 381 470 c 0,30,31
 371 470 371 470 363 478 c 128,-1,32
 355 486 355 486 355 496 c 0,33,34
 355 507 355 507 363 514.5 c 128,-1,35
 371 522 371 522 381 522 c 0,24,25
113 449 m 0,36,37
 113 460 113 460 121 467.5 c 128,-1,38
 129 475 129 475 139 475 c 0,39,40
 150 475 150 475 157.5 467.5 c 128,-1,41
 165 460 165 460 165 449 c 0,42,43
 165 439 165 439 157.5 431 c 128,-1,44
 150 423 150 423 139 423 c 0,45,46
 129 423 129 423 121 431 c 128,-1,47
 113 439 113 439 113 449 c 0,36,37
429 449 m 0,48,49
 429 460 429 460 437 467.5 c 128,-1,50
 445 475 445 475 455 475 c 0,51,52
 466 475 466 475 473.5 467.5 c 128,-1,53
 481 460 481 460 481 449 c 0,54,55
 481 439 481 439 473.5 431 c 128,-1,56
 466 423 466 423 455 423 c 0,57,58
 445 423 445 423 437 431 c 128,-1,59
 429 439 429 439 429 449 c 0,48,49
66 375 m 0,60,61
 66 386 66 386 74 393.5 c 128,-1,62
 82 401 82 401 92 401 c 0,63,64
 103 401 103 401 110.5 393.5 c 128,-1,65
 118 386 118 386 118 375 c 0,66,67
 118 365 118 365 110.5 357 c 128,-1,68
 103 349 103 349 92 349 c 0,69,70
 82 349 82 349 74 357 c 128,-1,71
 66 365 66 365 66 375 c 0,60,61
476 375 m 0,72,73
 476 386 476 386 484 393.5 c 128,-1,74
 492 401 492 401 502 401 c 0,75,76
 513 401 513 401 520.5 393.5 c 128,-1,77
 528 386 528 386 528 375 c 0,78,79
 528 365 528 365 520.5 357 c 128,-1,80
 513 349 513 349 502 349 c 0,81,82
 492 349 492 349 484 357 c 128,-1,83
 476 365 476 365 476 375 c 0,72,73
48 291 m 0,84,85
 48 302 48 302 56 309.5 c 128,-1,86
 64 317 64 317 74 317 c 0,87,88
 85 317 85 317 92.5 309.5 c 128,-1,89
 100 302 100 302 100 291 c 0,90,91
 100 281 100 281 92.5 273 c 128,-1,92
 85 265 85 265 74 265 c 0,93,94
 64 265 64 265 56 273 c 128,-1,95
 48 281 48 281 48 291 c 0,84,85
494 291 m 0,96,97
 494 302 494 302 502 309.5 c 128,-1,98
 510 317 510 317 520 317 c 0,99,100
 531 317 531 317 538.5 309.5 c 128,-1,101
 546 302 546 302 546 291 c 0,102,103
 546 281 546 281 538.5 273 c 128,-1,104
 531 265 531 265 520 265 c 0,105,106
 510 265 510 265 502 273 c 128,-1,107
 494 281 494 281 494 291 c 0,96,97
66 207 m 0,108,109
 66 218 66 218 74 225.5 c 128,-1,110
 82 233 82 233 92 233 c 0,111,112
 103 233 103 233 110.5 225.5 c 128,-1,113
 118 218 118 218 118 207 c 0,114,115
 118 197 118 197 110.5 189 c 128,-1,116
 103 181 103 181 92 181 c 0,117,118
 82 181 82 181 74 189 c 128,-1,119
 66 197 66 197 66 207 c 0,108,109
476 207 m 0,120,121
 476 218 476 218 484 225.5 c 128,-1,122
 492 233 492 233 502 233 c 0,123,124
 513 233 513 233 520.5 225.5 c 128,-1,125
 528 218 528 218 528 207 c 0,126,127
 528 197 528 197 520.5 189 c 128,-1,128
 513 181 513 181 502 181 c 0,129,130
 492 181 492 181 484 189 c 128,-1,131
 476 197 476 197 476 207 c 0,120,121
113 133 m 0,132,133
 113 144 113 144 121 151.5 c 128,-1,134
 129 159 129 159 139 159 c 0,135,136
 150 159 150 159 157.5 151.5 c 128,-1,137
 165 144 165 144 165 133 c 0,138,139
 165 123 165 123 157.5 115 c 128,-1,140
 150 107 150 107 139 107 c 0,141,142
 129 107 129 107 121 115 c 128,-1,143
 113 123 113 123 113 133 c 0,132,133
429 133 m 0,144,145
 429 144 429 144 437 151.5 c 128,-1,146
 445 159 445 159 455 159 c 0,147,148
 466 159 466 159 473.5 151.5 c 128,-1,149
 481 144 481 144 481 133 c 0,150,151
 481 123 481 123 473.5 115 c 128,-1,152
 466 107 466 107 455 107 c 0,153,154
 445 107 445 107 437 115 c 128,-1,155
 429 123 429 123 429 133 c 0,144,145
213 112 m 0,156,157
 224 112 224 112 231.5 104.5 c 128,-1,158
 239 97 239 97 239 86 c 0,159,160
 239 76 239 76 231.5 68 c 128,-1,161
 224 60 224 60 213 60 c 0,162,163
 203 60 203 60 195 68 c 128,-1,164
 187 76 187 76 187 86 c 0,165,166
 187 97 187 97 195 104.5 c 128,-1,167
 203 112 203 112 213 112 c 0,156,157
381 112 m 0,168,169
 392 112 392 112 399.5 104.5 c 128,-1,170
 407 97 407 97 407 86 c 0,171,172
 407 76 407 76 399.5 68 c 128,-1,173
 392 60 392 60 381 60 c 0,174,175
 371 60 371 60 363 68 c 128,-1,176
 355 76 355 76 355 86 c 0,177,178
 355 97 355 97 363 104.5 c 128,-1,179
 371 112 371 112 381 112 c 0,168,169
297 94 m 0,180,181
 308 94 308 94 315.5 86.5 c 128,-1,182
 323 79 323 79 323 68 c 0,183,184
 323 58 323 58 315.5 50 c 128,-1,185
 308 42 308 42 297 42 c 0,186,187
 287 42 287 42 279 50 c 128,-1,188
 271 58 271 58 271 68 c 0,189,190
 271 79 271 79 279 86.5 c 128,-1,191
 287 94 287 94 297 94 c 0,180,181
EndSplineSet
EndChar

StartChar: dza-soyo
Encoding: 44 72311 74
Width: 570
GlyphClass: 2
Flags: MW
HStem: 324 60<132 282> 589 125<198.235 221.789>
VStem: 402 94<0 703>
AnchorPoint: "+BBEENQQ3BEsEPARPBD0EPQQ+BDUA--1" 210 714 basechar 0
AnchorPoint: "+BBEENQQ3BEsEPARPBD0EPQQ+BDUA--0" 402 0 basechar 0
LayerCount: 2
Fore
SplineSet
10 714 m 1,0,-1
 496 714 l 1,1,-1
 496 -50 l 1,2,-1
 402 0 l 1,3,-1
 402 703 l 1,4,-1
 210 589 l 5,5,-1
 10 708 l 1,6,-1
 10 714 l 1,0,-1
207 159 m 1,7,-1
 12 354 l 1,8,-1
 207 549 l 1,9,-1
 402 354 l 1,10,-1
 207 159 l 1,7,-1
132 384 m 1,11,-1
 282 384 l 1,12,-1
 207 459 l 1,13,-1
 132 384 l 1,11,-1
132 324 m 1,14,-1
 207 249 l 1,15,-1
 282 324 l 1,16,-1
 132 324 l 1,14,-1
EndSplineSet
MultipleSubs2: "Multiple Substitution lookup 85 subtable" head-soyo dzaSub-soyo
EndChar

StartChar: dzaSub-soyo
Encoding: 143 -1 75
Width: 0
GlyphClass: 4
Flags: W
HStem: 489 60<-418 -268>
VStem: -148 94<324 714>
AnchorPoint: "+BBEENQQ3BEsEPARPBD0EPQQ+BDUA--2" -148 324 basemark 0
AnchorPoint: "+BBEENQQ3BEsEPARPBD0EPQQ+BDUA--2" -148 714 mark 0
AnchorPoint: "+BBEENQQ3BEsEPARPBD0EPQQ+BDUA--0" -148 714 mark 0
LayerCount: 2
Fore
SplineSet
-148 714 m 1,0,-1
 -54 714 l 1,1,-1
 -54 274 l 1,2,-1
 -148 324 l 1,3,-1
 -148 714 l 1,0,-1
-343 324 m 1,4,-1
 -538 519 l 1,5,-1
 -343 714 l 1,6,-1
 -148 519 l 1,7,-1
 -343 324 l 1,4,-1
-418 549 m 1,8,-1
 -268 549 l 1,9,-1
 -343 624 l 1,10,-1
 -418 549 l 1,8,-1
-418 489 m 1,11,-1
 -343 414 l 1,12,-1
 -268 489 l 1,13,-1
 -418 489 l 1,11,-1
EndSplineSet
LCarets2: 1 0
Substitution2: "Single Substitution lookup 279 subtable" dzaSub-soyo.ini2
Substitution2: "Single Substitution lookup 277 subtable" dzaSub-soyo.2
Substitution2: "Single Substitution lookup 276 subtable" dzaSub-soyo.ini2
Substitution2: "Single Substitution lookup 274 subtable" dzaSub-soyo.3
Substitution2: "Single Substitution lookup 272 subtable" dzaSub-soyo.ini3
Substitution2: "Single Substitution lookup 270 subtable" dzaSub-soyo.3
Substitution2: "Single Substitution lookup 269 subtable" dzaSub-soyo.3
Substitution2: "Single Substitution lookup 268 subtable" dzaSub-soyo.3
Substitution2: "Single Substitution lookup 267 subtable" dzaSub-soyo.3
Substitution2: "Single Substitution lookup 266 subtable" dzaSub-soyo.3
Substitution2: "Single Substitution lookup 265 subtable" dzaSub-soyo.3
Substitution2: "Single Substitution lookup 264 subtable" dzaSub-soyo.3
Substitution2: "Single Substitution lookup 263 subtable" dzaSub-soyo.3
Substitution2: "Single Substitution lookup 262 subtable" dzaSub-soyo.3
Substitution2: "Single Substitution lookup 260 subtable" dzaSub-soyo.ini3
Ligature2: "'half' Half Forms in Soyombo lookup 188 subtable" subjoiner-soyo dza-soyo
MultipleSubs2: "Multiple Substitution lookup 169 subtable" dzaSub-soyo joiner-soyo.right
MultipleSubs2: "Multiple Substitution lookup 127 subtable" dzaSub-soyo tail-soyo.long
EndChar

StartChar: dzaSub-soyo.2
Encoding: 144 -1 76
Width: 0
GlyphClass: 4
Flags: W
HStem: 528 52<-411 -274>
VStem: -148 94<394 714>
AnchorPoint: "+BBEENQQ3BEsEPARPBD0EPQQ+BDUA--2" -148 394 basemark 0
AnchorPoint: "+BBEENQQ3BEsEPARPBD0EPQQ+BDUA--2" -148 714 mark 0
AnchorPoint: "+BBEENQQ3BEsEPARPBD0EPQQ+BDUA--0" -148 714 mark 0
LayerCount: 2
Fore
SplineSet
-148 714 m 1,0,-1
 -54 714 l 1,1,-1
 -54 344 l 1,2,-1
 -148 394 l 1,3,-1
 -148 714 l 1,0,-1
-343 394 m 1,4,-1
 -538 554 l 1,5,-1
 -390 676 l 1,6,-1
 -343 714 l 1,7,-1
 -295 676 l 1,8,-1
 -296 675 l 1,9,-1
 -195 593 l 1,10,-1
 -148 554 l 1,11,-1
 -295 433 l 1,12,-1
 -343 394 l 1,4,-1
-412 580 m 1,13,-1
 -273 580 l 1,14,-1
 -342 637 l 1,15,-1
 -412 580 l 1,13,-1
-411 528 m 1,16,-1
 -342 472 l 1,17,-1
 -274 528 l 1,18,-1
 -411 528 l 1,16,-1
EndSplineSet
EndChar

StartChar: dzaSub-soyo.3
Encoding: 145 -1 77
Width: 0
GlyphClass: 4
Flags: W
HStem: 567 44<-404 -282>
VStem: -148 94<464 714>
AnchorPoint: "+BBEENQQ3BEsEPARPBD0EPQQ+BDUA--2" -148 464 basemark 0
AnchorPoint: "+BBEENQQ3BEsEPARPBD0EPQQ+BDUA--2" -148 714 mark 0
AnchorPoint: "+BBEENQQ3BEsEPARPBD0EPQQ+BDUA--0" -148 714 mark 0
LayerCount: 2
Fore
SplineSet
-148 714 m 1,0,-1
 -54 714 l 1,1,-1
 -54 414 l 1,2,-1
 -148 464 l 1,3,-1
 -148 714 l 1,0,-1
-343 464 m 1,4,-1
 -393 496 l 1,5,-1
 -538 589 l 1,6,-1
 -393 682 l 1,7,-1
 -343 714 l 1,8,-1
 -293 682 l 1,9,-1
 -148 589 l 1,10,-1
 -293 496 l 1,11,-1
 -343 464 l 1,4,-1
-404 611 m 1,12,-1
 -282 611 l 1,13,-1
 -343 650 l 1,14,-1
 -404 611 l 1,12,-1
-404 567 m 1,15,-1
 -343 528 l 1,16,-1
 -282 567 l 1,17,-1
 -404 567 l 1,15,-1
EndSplineSet
EndChar

StartChar: dzaSub-soyo.ini2
Encoding: 146 -1 78
Width: 0
GlyphClass: 4
Flags: W
HStem: 528 52<-411 -274>
VStem: -148 94<394 684>
AnchorPoint: "+BBEENQQ3BEsEPARPBD0EPQQ+BDUA--2" -148 394 basemark 0
AnchorPoint: "+BBEENQQ3BEsEPARPBD0EPQQ+BDUA--2" -148 684 mark 0
AnchorPoint: "+BBEENQQ3BEsEPARPBD0EPQQ+BDUA--0" -148 684 mark 0
LayerCount: 2
Fore
SplineSet
-343 394 m 1,0,-1
 -391 432 l 1,1,-1
 -390 433 l 1,2,-1
 -538 554 l 1,3,-1
 -390 675 l 1,4,-1
 -391 676 l 1,5,-1
 -343 714 l 1,6,-1
 -295 676 l 1,7,-1
 -296 675 l 1,8,-1
 -195 593 l 1,9,-1
 -148 554 l 1,10,-1
 -296 433 l 1,11,-1
 -295 432 l 1,12,-1
 -343 394 l 1,0,-1
-148 684 m 1,13,-1
 -54 684 l 1,14,-1
 -54 344 l 1,15,-1
 -148 394 l 1,16,-1
 -148 684 l 1,13,-1
-412 580 m 1,17,-1
 -273 580 l 1,18,-1
 -343 637 l 1,19,-1
 -412 580 l 1,17,-1
-411 528 m 1,20,-1
 -343 472 l 1,21,-1
 -274 528 l 1,22,-1
 -411 528 l 1,20,-1
EndSplineSet
EndChar

StartChar: dzaSub-soyo.ini3
Encoding: 147 -1 79
Width: 0
GlyphClass: 4
Flags: W
HStem: 567 44<-404 -282>
VStem: -148 94<464 684>
AnchorPoint: "+BBEENQQ3BEsEPARPBD0EPQQ+BDUA--2" -148 464 basemark 0
AnchorPoint: "+BBEENQQ3BEsEPARPBD0EPQQ+BDUA--2" -148 684 mark 0
AnchorPoint: "+BBEENQQ3BEsEPARPBD0EPQQ+BDUA--0" -148 684 mark 0
LayerCount: 2
Fore
SplineSet
-343 464 m 1,0,-1
 -393 496 l 1,1,-1
 -538 589 l 1,2,-1
 -393 682 l 1,3,-1
 -343 714 l 1,4,-1
 -293 682 l 1,5,-1
 -148 589 l 1,6,-1
 -293 496 l 1,7,-1
 -343 464 l 1,0,-1
-148 684 m 1,8,-1
 -54 684 l 1,9,-1
 -54 414 l 1,10,-1
 -148 464 l 1,11,-1
 -148 684 l 1,8,-1
-404 611 m 1,12,-1
 -282 611 l 1,13,-1
 -343 650 l 1,14,-1
 -404 611 l 1,12,-1
-404 567 m 1,15,-1
 -343 528 l 1,16,-1
 -282 567 l 1,17,-1
 -404 567 l 1,15,-1
EndSplineSet
EndChar

StartChar: eMatra-soyo
Encoding: 9 72276 80
Width: 0
GlyphClass: 4
Flags: W
HStem: 806 80<-554 -80>
VStem: -80 36<727 806>
AnchorPoint: "+BBEENQQ3BEsEPARPBD0EPQQ+BDUA--3" -320 886 basemark 0
AnchorPoint: "+BBEENQQ3BEsEPARPBD0EPQQ+BDUA--3" -320 714 mark 0
AnchorPoint: "+BBEENQQ3BEsEPARPBD0EPQQ+BDUA--1" -320 714 mark 0
LayerCount: 2
Fore
SplineSet
-554 886 m 1,0,-1
 -44 886 l 1,1,-1
 -44 727 l 1,2,-1
 -80 708 l 1,3,-1
 -80 806 l 1,4,-1
 -554 806 l 1,5,-1
 -554 886 l 1,0,-1
6 754 m 1,6,-1
 -44 688 l 1,7,-1
 -44 727 l 1,8,-1
 6 754 l 1,6,-1
EndSplineSet
Substitution2: "Single Substitution lookup 47 subtable" aFinal-soyo
Substitution2: "Single Substitution lookup 46 subtable" sFinal-soyo
Substitution2: "Single Substitution lookup 45 subtable" shFinal-soyo
Substitution2: "Single Substitution lookup 44 subtable" lFinal-soyo
Substitution2: "Single Substitution lookup 43 subtable" rFinal-soyo
Substitution2: "Single Substitution lookup 42 subtable" mFinal-soyo
Substitution2: "Single Substitution lookup 41 subtable" bFinal-soyo
Substitution2: "Single Substitution lookup 40 subtable" nFinal-soyo
Substitution2: "Single Substitution lookup 39 subtable" dFinal-soyo
Substitution2: "Single Substitution lookup 38 subtable" ngFinal-soyo
Substitution2: "Single Substitution lookup 37 subtable" kFinal-soyo
Substitution2: "Single Substitution lookup 36 subtable" gFinal-soyo
EndChar

StartChar: gFinal-soyo
Encoding: 63 72330 81
Width: 0
GlyphClass: 4
Flags: W
HStem: 0 44<-269.387 -123>
VStem: -377 74<73.6315 162.715>
AnchorPoint: "+BBEENQQ3BEsEPARPBD0EPQQ+BDUA--2" -148 0 basemark 0
AnchorPoint: "+BBEENQQ3BEsEPARPBD0EPQQ+BDUA--2" -148 -11 mark 0
AnchorPoint: "+BBEENQQ3BEsEPARPBD0EPQQ+BDUA--0" -148 -11 mark 0
LayerCount: 2
Fore
SplineSet
-325 170 m 0,0,1
 -307 170 -307 170 -294 163 c 1,2,3
 -303 144 -303 144 -303 120 c 0,4,5
 -303 83 -303 83 -266 63.5 c 128,-1,6
 -229 44 -229 44 -141 44 c 2,7,-1
 -123 44 l 1,8,-1
 -123 0 l 1,9,-1
 -141 0 l 2,10,11
 -377 0 -377 0 -377 116 c 0,12,13
 -377 170 -377 170 -325 170 c 0,0,1
EndSplineSet
MultipleSubs2: "Multiple Substitution lookup 228 subtable" gFinal-soyo tail-soyo
Substitution2: "Single Substitution lookup 226 subtable" gFinal-soyo.half
Substitution2: "Single Substitution lookup 225 subtable" gFinal-soyo.half
Substitution2: "Single Substitution lookup 220 subtable" gFinal-soyo
Substitution2: "Single Substitution lookup 55 subtable" lVocalicMatra-soyo
Substitution2: "Single Substitution lookup 54 subtable" rVocalicMatra-soyo
Substitution2: "Single Substitution lookup 53 subtable" oeMatra-soyo
Substitution2: "Single Substitution lookup 52 subtable" oMatra-soyo
Substitution2: "Single Substitution lookup 51 subtable" eMatra-soyo
Substitution2: "Single Substitution lookup 50 subtable" uMatra-soyo
Substitution2: "Single Substitution lookup 49 subtable" ueMatra-soyo
Substitution2: "Single Substitution lookup 48 subtable" iMatra-soyo
Substitution2: "Single Substitution lookup 34 subtable" aFinal-soyo
Substitution2: "Single Substitution lookup 33 subtable" vowelLength-soyo
Substitution2: "Single Substitution lookup 19 subtable" visagra-soyo
Substitution2: "Single Substitution lookup 18 subtable" auMatra-soyo
Substitution2: "Single Substitution lookup 17 subtable" aiMatra-soyo
Substitution2: "Single Substitution lookup 16 subtable" visagra-soyo
Substitution2: "Single Substitution lookup 15 subtable" auMatra-soyo
Substitution2: "Single Substitution lookup 14 subtable" aiMatra-soyo
EndChar

StartChar: gFinal-soyo.half
Encoding: 148 -1 82
Width: 0
GlyphClass: 4
Flags: W
HStem: 0 44<-218.4 -123>
VStem: -312 74<63.3366 162.715>
AnchorPoint: "+BBEENQQ3BEsEPARPBD0EPQQ+BDUA--2" -148 0 basemark 0
AnchorPoint: "+BBEENQQ3BEsEPARPBD0EPQQ+BDUA--2" -148 -11 mark 0
AnchorPoint: "+BBEENQQ3BEsEPARPBD0EPQQ+BDUA--0" -148 -11 mark 0
LayerCount: 2
Fore
SplineSet
-260 170 m 0,0,1
 -242 170 -242 170 -229 163 c 1,2,3
 -238 144 -238 144 -238 120 c 0,4,5
 -238 83 -238 83 -219 63.5 c 128,-1,6
 -200 44 -200 44 -156 44 c 2,7,-1
 -123 44 l 1,8,-1
 -123 0 l 1,9,-1
 -156 0 l 2,10,11
 -312 0 -312 0 -312 116 c 0,12,13
 -312 170 -312 170 -260 170 c 0,0,1
EndSplineSet
EndChar

StartChar: ga-soyo
Encoding: 19 72286 83
Width: 660
GlyphClass: 2
Flags: MW
HStem: 364 50<108 253 347 492> 617 97
VStem: 14 94<294.067 364 414 483.933> 253 94<181 364 414 617> 492 94<0 364 414 574>
CounterMasks: 1 38
AnchorPoint: "+BBEENQQ3BEsEPARPBD0EPQQ+BDUA--1" 300 714 basechar 0
AnchorPoint: "+BBEENQQ3BEsEPARPBD0EPQQ+BDUA--0" 492 0 basechar 0
LayerCount: 2
Fore
SplineSet
108 551 m 1,0,-1
 108 414 l 1,1,-1
 253 414 l 1,2,-1
 253 617 l 1,3,-1
 100 708 l 1,4,-1
 100 714 l 1,5,-1
 500 714 l 1,6,-1
 500 708 l 1,7,-1
 347 617 l 1,8,-1
 347 414 l 1,9,-1
 492 414 l 1,10,-1
 492 574 l 1,11,-1
 586 634 l 1,12,-1
 586 -50 l 1,13,-1
 492 0 l 1,14,-1
 492 364 l 1,15,-1
 347 364 l 1,16,-1
 347 131 l 1,17,-1
 253 181 l 1,18,-1
 253 364 l 1,19,-1
 108 364 l 1,20,-1
 108 227 l 1,21,22
 62 253 62 253 38 290.5 c 128,-1,23
 14 328 14 328 14 389 c 256,24,25
 14 450 14 450 38 487.5 c 128,-1,26
 62 525 62 525 108 551 c 1,0,-1
EndSplineSet
MultipleSubs2: "Multiple Substitution lookup 60 subtable" head-soyo gaSub-soyo
EndChar

StartChar: gaSub-soyo
Encoding: 149 -1 84
Width: 0
GlyphClass: 4
Flags: W
HStem: 479 50<-532 -387 -293 -148>
VStem: -626 94<409.067 479 529 598.933> -387 94<296 479 529 754> -148 94<246 479 529 664>
CounterMasks: 1 70
AnchorPoint: "+BBEENQQ3BEsEPARPBD0EPQQ+BDUA--2" -148 246 basemark 0
AnchorPoint: "+BBEENQQ3BEsEPARPBD0EPQQ+BDUA--2" -148 614 mark 0
AnchorPoint: "+BBEENQQ3BEsEPARPBD0EPQQ+BDUA--0" -148 614 mark 0
LayerCount: 2
Fore
SplineSet
-148 664 m 1,0,-1
 -54 714 l 1,1,-1
 -54 196 l 1,2,-1
 -148 246 l 1,3,-1
 -148 479 l 1,4,-1
 -293 479 l 1,5,-1
 -293 246 l 1,6,-1
 -387 296 l 1,7,-1
 -387 479 l 1,8,-1
 -532 479 l 1,9,-1
 -532 342 l 1,10,11
 -578 368 -578 368 -602 405.5 c 128,-1,12
 -626 443 -626 443 -626 504 c 256,13,14
 -626 565 -626 565 -602 602.5 c 128,-1,15
 -578 640 -578 640 -532 666 c 1,16,-1
 -532 529 l 1,17,-1
 -387 529 l 1,18,-1
 -387 754 l 1,19,-1
 -293 754 l 1,20,-1
 -293 529 l 1,21,-1
 -148 529 l 1,22,-1
 -148 664 l 1,0,-1
EndSplineSet
LCarets2: 1 0
Substitution2: "Single Substitution lookup 279 subtable" gaSub-soyo.ini2
Substitution2: "Single Substitution lookup 277 subtable" gaSub-soyo.2
Substitution2: "Single Substitution lookup 276 subtable" gaSub-soyo.ini2
Substitution2: "Single Substitution lookup 274 subtable" gaSub-soyo.3
Substitution2: "Single Substitution lookup 272 subtable" gaSub-soyo.ini3
Substitution2: "Single Substitution lookup 270 subtable" gaSub-soyo.3
Substitution2: "Single Substitution lookup 269 subtable" gaSub-soyo.3
Substitution2: "Single Substitution lookup 268 subtable" gaSub-soyo.3
Substitution2: "Single Substitution lookup 267 subtable" gaSub-soyo.3
Substitution2: "Single Substitution lookup 266 subtable" gaSub-soyo.3
Substitution2: "Single Substitution lookup 265 subtable" gaSub-soyo.3
Substitution2: "Single Substitution lookup 264 subtable" gaSub-soyo.3
Substitution2: "Single Substitution lookup 263 subtable" gaSub-soyo.3
Substitution2: "Single Substitution lookup 262 subtable" gaSub-soyo.3
Substitution2: "Single Substitution lookup 260 subtable" gaSub-soyo.ini3
Ligature2: "'half' Half Forms in Soyombo lookup 188 subtable" subjoiner-soyo ga-soyo
MultipleSubs2: "Multiple Substitution lookup 144 subtable" gaSub-soyo joiner-soyo.right
MultipleSubs2: "Multiple Substitution lookup 102 subtable" gaSub-soyo tail-soyo.long
EndChar

StartChar: gaSub-soyo.2
Encoding: 150 -1 85
Width: 0
GlyphClass: 4
Flags: W
HStem: 524 50<-532 -387 -293 -148>
VStem: -626 94<475.758 524 574 622.242> -387 94<386 524 574 714> -148 94<336 524 574 614>
CounterMasks: 1 70
AnchorPoint: "+BBEENQQ3BEsEPARPBD0EPQQ+BDUA--2" -148 336 basemark 0
AnchorPoint: "+BBEENQQ3BEsEPARPBD0EPQQ+BDUA--2" -148 714 mark 0
AnchorPoint: "+BBEENQQ3BEsEPARPBD0EPQQ+BDUA--0" -148 714 mark 0
LayerCount: 2
Fore
SplineSet
-148 614 m 1,0,-1
 -54 664 l 1,1,-1
 -54 286 l 1,2,-1
 -148 336 l 1,3,-1
 -148 524 l 1,4,-1
 -293 524 l 1,5,-1
 -293 336 l 1,6,-1
 -387 386 l 1,7,-1
 -387 524 l 1,8,-1
 -532 524 l 1,9,-1
 -532 423 l 1,10,11
 -578 444 -578 444 -602 473 c 128,-1,12
 -626 502 -626 502 -626 549 c 256,13,14
 -626 596 -626 596 -602 625 c 128,-1,15
 -578 654 -578 654 -532 675 c 1,16,-1
 -532 574 l 1,17,-1
 -387 574 l 1,18,-1
 -387 714 l 1,19,-1
 -293 714 l 1,20,-1
 -293 574 l 1,21,-1
 -148 574 l 1,22,-1
 -148 614 l 1,0,-1
EndSplineSet
EndChar

StartChar: gaSub-soyo.3
Encoding: 151 -1 86
Width: 0
GlyphClass: 4
Flags: W
HStem: 569 50<-532 -387 -293 -148>
VStem: -626 94<541.452 569 619 646.548> -387 94<476 569 619 714> -148 94<426 569 619 634>
CounterMasks: 1 70
AnchorPoint: "+BBEENQQ3BEsEPARPBD0EPQQ+BDUA--2" -148 426 basemark 0
AnchorPoint: "+BBEENQQ3BEsEPARPBD0EPQQ+BDUA--2" -148 714 mark 0
AnchorPoint: "+BBEENQQ3BEsEPARPBD0EPQQ+BDUA--0" -148 714 mark 0
LayerCount: 2
Fore
SplineSet
-148 634 m 1,0,-1
 -54 684 l 1,1,-1
 -54 376 l 1,2,-1
 -148 426 l 1,3,-1
 -148 569 l 1,4,-1
 -293 569 l 1,5,-1
 -293 426 l 1,6,-1
 -387 476 l 1,7,-1
 -387 569 l 1,8,-1
 -532 569 l 1,9,-1
 -532 504 l 1,10,11
 -578 519 -578 519 -602 539.5 c 128,-1,12
 -626 560 -626 560 -626 594 c 256,13,14
 -626 628 -626 628 -602 648.5 c 128,-1,15
 -578 669 -578 669 -532 684 c 1,16,-1
 -532 619 l 1,17,-1
 -387 619 l 1,18,-1
 -387 714 l 1,19,-1
 -293 714 l 1,20,-1
 -293 619 l 1,21,-1
 -148 619 l 1,22,-1
 -148 634 l 1,0,-1
EndSplineSet
EndChar

StartChar: gaSub-soyo.ini2
Encoding: 152 -1 87
Width: 0
GlyphClass: 4
Flags: W
HStem: 524 50<-532 -387 -293 -148>
VStem: -626 94<475.758 524 574 622.242> -387 94<386 524 574 754> -148 94<336 524 574 664>
CounterMasks: 1 70
AnchorPoint: "+BBEENQQ3BEsEPARPBD0EPQQ+BDUA--2" -148 336 basemark 0
AnchorPoint: "+BBEENQQ3BEsEPARPBD0EPQQ+BDUA--2" -148 614 mark 0
AnchorPoint: "+BBEENQQ3BEsEPARPBD0EPQQ+BDUA--0" -148 614 mark 0
LayerCount: 2
Fore
SplineSet
-148 664 m 1,0,-1
 -54 714 l 1,1,-1
 -54 286 l 1,2,-1
 -148 336 l 1,3,-1
 -148 524 l 1,4,-1
 -293 524 l 1,5,-1
 -293 336 l 1,6,-1
 -387 386 l 1,7,-1
 -387 524 l 1,8,-1
 -532 524 l 1,9,-1
 -532 423 l 1,10,11
 -578 444 -578 444 -602 473 c 128,-1,12
 -626 502 -626 502 -626 549 c 256,13,14
 -626 596 -626 596 -602 625 c 128,-1,15
 -578 654 -578 654 -532 675 c 1,16,-1
 -532 574 l 1,17,-1
 -387 574 l 1,18,-1
 -387 754 l 1,19,-1
 -293 754 l 1,20,-1
 -293 574 l 1,21,-1
 -148 574 l 1,22,-1
 -148 664 l 1,0,-1
EndSplineSet
EndChar

StartChar: gaSub-soyo.ini3
Encoding: 153 -1 88
Width: 0
GlyphClass: 4
Flags: W
HStem: 569 50<-532 -387 -293 -148>
VStem: -626 94<541.452 569 619 646.548> -387 94<476 569 619 754> -148 94<426 569 619 664>
CounterMasks: 1 70
AnchorPoint: "+BBEENQQ3BEsEPARPBD0EPQQ+BDUA--2" -148 426 basemark 0
AnchorPoint: "+BBEENQQ3BEsEPARPBD0EPQQ+BDUA--2" -148 614 mark 0
AnchorPoint: "+BBEENQQ3BEsEPARPBD0EPQQ+BDUA--0" -148 614 mark 0
LayerCount: 2
Fore
SplineSet
-148 664 m 1,0,-1
 -54 714 l 1,1,-1
 -54 376 l 1,2,-1
 -148 426 l 1,3,-1
 -148 569 l 1,4,-1
 -293 569 l 1,5,-1
 -293 426 l 1,6,-1
 -387 476 l 1,7,-1
 -387 569 l 1,8,-1
 -532 569 l 1,9,-1
 -532 504 l 1,10,11
 -578 519 -578 519 -602 539.5 c 128,-1,12
 -626 560 -626 560 -626 594 c 256,13,14
 -626 628 -626 628 -602 648.5 c 128,-1,15
 -578 669 -578 669 -532 684 c 1,16,-1
 -532 619 l 1,17,-1
 -387 619 l 1,18,-1
 -387 754 l 1,19,-1
 -293 754 l 1,20,-1
 -293 619 l 1,21,-1
 -148 619 l 1,22,-1
 -148 664 l 1,0,-1
EndSplineSet
EndChar

StartChar: gemination-soyo
Encoding: 77 72344 89
Width: 620
GlyphClass: 2
Flags: W
HStem: 589 125
AnchorPoint: "+BBEENQQ3BEsEPARPBD0EPQQ+BDUA--1" 260 714 basechar 0
AnchorPoint: "+BBEENQQ3BEsEPARPBD0EPQQ+BDUA--0" 452 614 basechar 0
LayerCount: 2
Fore
SplineSet
460 708 m 5,0,-1
 260 589 l 5,1,-1
 60 708 l 5,2,-1
 60 714 l 5,3,-1
 460 714 l 5,4,-1
 460 708 l 5,0,-1
EndSplineSet
Position2: "Single Positioning lookup 60 subtable" dx=40 dy=0 dh=40 dv=0
Position2: "Single Positioning lookup 58 subtable" dx=40 dy=0 dh=40 dv=0
Position2: "Single Positioning lookup 56 subtable" dx=50 dy=0 dh=50 dv=0
Position2: "Single Positioning lookup 54 subtable" dx=50 dy=0 dh=50 dv=0
Position2: "Single Positioning lookup 52 subtable" dx=60 dy=0 dh=60 dv=0
Position2: "Single Positioning lookup 50 subtable" dx=60 dy=0 dh=60 dv=0
Position2: "Single Positioning lookup 48 subtable" dx=70 dy=0 dh=70 dv=0
Position2: "Single Positioning lookup 46 subtable" dx=70 dy=0 dh=70 dv=0
Position2: "Single Positioning lookup 44 subtable" dx=80 dy=0 dh=80 dv=0
Position2: "Single Positioning lookup 29 subtable" dx=-50 dy=0 dh=-50 dv=0
Position2: "Single Positioning lookup 28 subtable" dx=-40 dy=0 dh=-40 dv=0
Position2: "Single Positioning lookup 27 subtable" dx=-30 dy=0 dh=-30 dv=0
Position2: "Single Positioning lookup 26 subtable" dx=-20 dy=0 dh=-20 dv=0
Position2: "Single Positioning lookup 25 subtable" dx=-10 dy=0 dh=-10 dv=0
Position2: "Single Positioning lookup 24 subtable" dx=10 dy=0 dh=10 dv=0
Position2: "Single Positioning lookup 23 subtable" dx=40 dy=0 dh=40 dv=0
Position2: "Single Positioning lookup 22 subtable" dx=50 dy=0 dh=50 dv=0
Substitution2: "'pref' Pre Base Forms in Soyombo lookup 187 subtable" gemination-soyo
EndChar

StartChar: gha-soyo
Encoding: 20 72287 90
Width: 660
GlyphClass: 2
Flags: MW
HStem: 364 50<153.042 253 347 492> 617 97
VStem: 253 94<181 364 414 617> 492 94<0 364 414 574>
AnchorPoint: "+BBEENQQ3BEsEPARPBD0EPQQ+BDUA--1" 300 714 basechar 0
AnchorPoint: "+BBEENQQ3BEsEPARPBD0EPQQ+BDUA--0" 492 0 basechar 0
LayerCount: 2
Fore
SplineSet
24 551 m 1,0,1
 82 533 82 533 116 501.5 c 128,-1,2
 150 470 150 470 157 414 c 1,3,-1
 253 414 l 1,4,-1
 253 617 l 1,5,-1
 100 708 l 1,6,-1
 100 714 l 1,7,-1
 500 714 l 1,8,-1
 500 708 l 1,9,-1
 347 617 l 1,10,-1
 347 414 l 1,11,-1
 492 414 l 1,12,-1
 492 574 l 1,13,-1
 586 634 l 1,14,-1
 586 -50 l 1,15,-1
 492 0 l 1,16,-1
 492 364 l 1,17,-1
 347 364 l 1,18,-1
 347 131 l 1,19,-1
 253 181 l 1,20,-1
 253 364 l 1,21,-1
 157 364 l 1,22,23
 150 309 150 309 116 277 c 128,-1,24
 82 245 82 245 24 227 c 1,25,-1
 14 259 l 1,26,27
 49 278 49 278 66.5 306.5 c 128,-1,28
 84 335 84 335 84 389 c 256,29,30
 84 443 84 443 66.5 471.5 c 128,-1,31
 49 500 49 500 14 519 c 1,32,-1
 24 551 l 1,0,1
EndSplineSet
MultipleSubs2: "Multiple Substitution lookup 61 subtable" head-soyo ghaSub-soyo
EndChar

StartChar: ghaSub-soyo
Encoding: 154 -1 91
Width: 0
GlyphClass: 4
Flags: W
HStem: 479 50<-486.958 -387 -293 -148>
VStem: -387 94<296 479 529 754> -148 94<246 479 529 664>
AnchorPoint: "+BBEENQQ3BEsEPARPBD0EPQQ+BDUA--2" -148 246 basemark 0
AnchorPoint: "+BBEENQQ3BEsEPARPBD0EPQQ+BDUA--2" -148 614 mark 0
AnchorPoint: "+BBEENQQ3BEsEPARPBD0EPQQ+BDUA--0" -148 614 mark 0
LayerCount: 2
Fore
SplineSet
-148 664 m 1,0,-1
 -54 714 l 1,1,-1
 -54 196 l 1,2,-1
 -148 246 l 1,3,-1
 -148 479 l 1,4,-1
 -293 479 l 1,5,-1
 -293 246 l 1,6,-1
 -387 296 l 1,7,-1
 -387 479 l 1,8,-1
 -483 479 l 1,9,10
 -490 424 -490 424 -524 392 c 128,-1,11
 -558 360 -558 360 -616 342 c 1,12,-1
 -626 374 l 1,13,14
 -591 393 -591 393 -573.5 421.5 c 128,-1,15
 -556 450 -556 450 -556 504 c 256,16,17
 -556 558 -556 558 -573.5 586.5 c 128,-1,18
 -591 615 -591 615 -626 634 c 1,19,-1
 -616 666 l 1,20,21
 -558 648 -558 648 -524 616.5 c 128,-1,22
 -490 585 -490 585 -483 529 c 1,23,-1
 -387 529 l 1,24,-1
 -387 754 l 1,25,-1
 -293 754 l 1,26,-1
 -293 529 l 1,27,-1
 -148 529 l 1,28,-1
 -148 664 l 1,0,-1
EndSplineSet
Substitution2: "Single Substitution lookup 279 subtable" ghaSub-soyo.ini2
Substitution2: "Single Substitution lookup 277 subtable" ghaSub-soyo.2
Substitution2: "Single Substitution lookup 276 subtable" ghaSub-soyo.ini2
Substitution2: "Single Substitution lookup 274 subtable" ghaSub-soyo.3
Substitution2: "Single Substitution lookup 272 subtable" ghaSub-soyo.ini3
Substitution2: "Single Substitution lookup 270 subtable" ghaSub-soyo.3
Substitution2: "Single Substitution lookup 269 subtable" ghaSub-soyo.3
Substitution2: "Single Substitution lookup 268 subtable" ghaSub-soyo.3
Substitution2: "Single Substitution lookup 267 subtable" ghaSub-soyo.3
Substitution2: "Single Substitution lookup 266 subtable" ghaSub-soyo.3
Substitution2: "Single Substitution lookup 265 subtable" ghaSub-soyo.3
Substitution2: "Single Substitution lookup 264 subtable" ghaSub-soyo.3
Substitution2: "Single Substitution lookup 263 subtable" ghaSub-soyo.3
Substitution2: "Single Substitution lookup 262 subtable" ghaSub-soyo.3
Substitution2: "Single Substitution lookup 260 subtable" ghaSub-soyo.ini3
Ligature2: "'half' Half Forms in Soyombo lookup 188 subtable" subjoiner-soyo gha-soyo
MultipleSubs2: "Multiple Substitution lookup 145 subtable" ghaSub-soyo joiner-soyo.right
MultipleSubs2: "Multiple Substitution lookup 103 subtable" ghaSub-soyo tail-soyo.long
EndChar

StartChar: ghaSub-soyo.2
Encoding: 155 -1 92
Width: 0
GlyphClass: 4
Flags: W
HStem: 524 50<-490.557 -387 -293 -148>
VStem: -387 94<386 524 574 714> -148 94<336 524 574 614>
AnchorPoint: "+BBEENQQ3BEsEPARPBD0EPQQ+BDUA--2" -148 336 basemark 0
AnchorPoint: "+BBEENQQ3BEsEPARPBD0EPQQ+BDUA--2" -148 714 mark 0
AnchorPoint: "+BBEENQQ3BEsEPARPBD0EPQQ+BDUA--0" -148 714 mark 0
LayerCount: 2
Fore
SplineSet
-148 614 m 1,0,-1
 -54 664 l 1,1,-1
 -54 286 l 1,2,-1
 -148 336 l 1,3,-1
 -148 524 l 1,4,-1
 -293 524 l 1,5,-1
 -293 336 l 1,6,-1
 -387 386 l 1,7,-1
 -387 524 l 1,8,-1
 -484 524 l 1,9,10
 -492 484 -492 484 -526 460 c 128,-1,11
 -560 436 -560 436 -618 423 c 1,12,-1
 -626 453 l 1,13,14
 -591 467 -591 467 -573.5 488 c 128,-1,15
 -556 509 -556 509 -556 549 c 256,16,17
 -556 589 -556 589 -573.5 610.5 c 128,-1,18
 -591 632 -591 632 -626 645 c 1,19,-1
 -618 675 l 1,20,21
 -560 662 -560 662 -526 638 c 128,-1,22
 -492 614 -492 614 -484 574 c 1,23,-1
 -387 574 l 1,24,-1
 -387 714 l 1,25,-1
 -293 714 l 1,26,-1
 -293 574 l 1,27,-1
 -148 574 l 1,28,-1
 -148 614 l 1,0,-1
EndSplineSet
EndChar

StartChar: ghaSub-soyo.3
Encoding: 156 -1 93
Width: 0
GlyphClass: 4
Flags: W
HStem: 504 27<-621.556 -589.239> 569 50<-502.256 -387 -293 -148> 657 27<-621.556 -589.239>
VStem: -387 94<476 569 619 714> -148 94<426 569 619 634>
CounterMasks: 1 e0
AnchorPoint: "+BBEENQQ3BEsEPARPBD0EPQQ+BDUA--2" -148 426 basemark 0
AnchorPoint: "+BBEENQQ3BEsEPARPBD0EPQQ+BDUA--2" -148 714 mark 0
AnchorPoint: "+BBEENQQ3BEsEPARPBD0EPQQ+BDUA--0" -148 714 mark 0
LayerCount: 2
Fore
SplineSet
-148 634 m 1,0,-1
 -54 684 l 1,1,-1
 -54 376 l 1,2,-1
 -148 426 l 1,3,-1
 -148 569 l 1,4,-1
 -293 569 l 1,5,-1
 -293 426 l 1,6,-1
 -387 476 l 1,7,-1
 -387 569 l 1,8,-1
 -487 569 l 1,9,10
 -498 543 -498 543 -531.5 528 c 128,-1,11
 -565 513 -565 513 -620 504 c 1,12,-1
 -626 531 l 1,13,14
 -591 540 -591 540 -573.5 554 c 128,-1,15
 -556 568 -556 568 -556 594 c 256,16,17
 -556 620 -556 620 -573.5 634 c 128,-1,18
 -591 648 -591 648 -626 657 c 1,19,-1
 -620 684 l 1,20,21
 -565 675 -565 675 -531.5 660 c 128,-1,22
 -498 645 -498 645 -487 619 c 1,23,-1
 -387 619 l 1,24,-1
 -387 714 l 1,25,-1
 -293 714 l 1,26,-1
 -293 619 l 1,27,-1
 -148 619 l 1,28,-1
 -148 634 l 1,0,-1
EndSplineSet
EndChar

StartChar: ghaSub-soyo.ini2
Encoding: 157 -1 94
Width: 0
GlyphClass: 4
Flags: W
HStem: 519 50<-490.084 -387 -293 -148>
VStem: -387 94<376 519 569 754> -148 94<326 519 569 664>
AnchorPoint: "+BBEENQQ3BEsEPARPBD0EPQQ+BDUA--2" -148 326 basemark 0
AnchorPoint: "+BBEENQQ3BEsEPARPBD0EPQQ+BDUA--2" -148 614 mark 0
AnchorPoint: "+BBEENQQ3BEsEPARPBD0EPQQ+BDUA--0" -148 614 mark 0
LayerCount: 2
Fore
SplineSet
-148 664 m 1,0,-1
 -54 714 l 1,1,-1
 -54 276 l 1,2,-1
 -148 326 l 1,3,-1
 -148 519 l 1,4,-1
 -293 519 l 1,5,-1
 -293 326 l 1,6,-1
 -387 376 l 1,7,-1
 -387 519 l 1,8,-1
 -484 519 l 1,9,10
 -492 477 -492 477 -526 452.5 c 128,-1,11
 -560 428 -560 428 -618 414 c 1,12,-1
 -626 444 l 1,13,14
 -591 458 -591 458 -573.5 480.5 c 128,-1,15
 -556 503 -556 503 -556 544 c 0,16,17
 -556 586 -556 586 -573.5 608 c 128,-1,18
 -591 630 -591 630 -626 644 c 1,19,-1
 -618 674 l 1,20,21
 -560 661 -560 661 -526 636.5 c 128,-1,22
 -492 612 -492 612 -484 569 c 1,23,-1
 -387 569 l 1,24,-1
 -387 754 l 1,25,-1
 -293 754 l 1,26,-1
 -293 569 l 1,27,-1
 -148 569 l 1,28,-1
 -148 664 l 1,0,-1
EndSplineSet
EndChar

StartChar: ghaSub-soyo.ini3
Encoding: 158 -1 95
Width: 0
GlyphClass: 4
Flags: W
HStem: 504 27<-621.556 -589.239> 569 50<-502.256 -387 -293 -148> 657 27<-621.556 -589.239>
VStem: -387 94<476 569 619 754> -148 94<426 569 619 664>
CounterMasks: 1 e0
AnchorPoint: "+BBEENQQ3BEsEPARPBD0EPQQ+BDUA--2" -148 426 basemark 0
AnchorPoint: "+BBEENQQ3BEsEPARPBD0EPQQ+BDUA--2" -148 614 mark 0
AnchorPoint: "+BBEENQQ3BEsEPARPBD0EPQQ+BDUA--0" -148 614 mark 0
LayerCount: 2
Fore
SplineSet
-148 664 m 1,0,-1
 -54 714 l 1,1,-1
 -54 376 l 1,2,-1
 -148 426 l 1,3,-1
 -148 569 l 1,4,-1
 -293 569 l 1,5,-1
 -293 426 l 1,6,-1
 -387 476 l 1,7,-1
 -387 569 l 1,8,-1
 -487 569 l 1,9,10
 -498 543 -498 543 -531.5 528 c 128,-1,11
 -565 513 -565 513 -620 504 c 1,12,-1
 -626 531 l 1,13,14
 -591 540 -591 540 -573.5 554 c 128,-1,15
 -556 568 -556 568 -556 594 c 256,16,17
 -556 620 -556 620 -573.5 634 c 128,-1,18
 -591 648 -591 648 -626 657 c 1,19,-1
 -620 684 l 1,20,21
 -565 675 -565 675 -531.5 660 c 128,-1,22
 -498 645 -498 645 -487 619 c 1,23,-1
 -387 619 l 1,24,-1
 -387 754 l 1,25,-1
 -293 754 l 1,26,-1
 -293 619 l 1,27,-1
 -148 619 l 1,28,-1
 -148 664 l 1,0,-1
EndSplineSet
EndChar

StartChar: ha-soyo
Encoding: 55 72322 96
Width: 670
GlyphClass: 2
Flags: MW
HStem: 383 54<138.691 246.979> 616 98
VStem: 24 94<209 375.09 501 579> 263 94<252.009 366.685> 502 94<0 404 496 574>
CounterMasks: 1 38
AnchorPoint: "+BBEENQQ3BEsEPARPBD0EPQQ+BDUA--1" 310 714 basechar 0
AnchorPoint: "+BBEENQQ3BEsEPARPBD0EPQQ+BDUA--0" 502 0 basechar 0
LayerCount: 2
Fore
SplineSet
292 238 m 0,0,1
 267 238 267 238 247 248 c 1,2,3
 263 274 263 274 263 312 c 0,4,5
 263 347 263 347 247.5 365 c 128,-1,6
 232 383 232 383 194 383 c 0,7,8
 153 383 153 383 118 367 c 1,9,-1
 118 209 l 1,10,-1
 24 159 l 1,11,-1
 24 629 l 1,12,-1
 118 579 l 1,13,-1
 118 501 l 1,14,-1
 265 616 l 1,15,-1
 110 708 l 1,16,-1
 110 714 l 5,17,-1
 510 714 l 1,18,-1
 510 708 l 1,19,-1
 352 614 l 1,20,-1
 502 496 l 1,21,-1
 502 574 l 1,22,-1
 596 634 l 1,23,-1
 596 -50 l 1,24,-1
 502 0 l 1,25,-1
 502 404 l 1,26,-1
 307 556 l 1,27,-1
 138 424 l 1,28,29
 177 437 177 437 223 437 c 0,30,31
 357 437 357 437 357 316 c 0,32,33
 357 238 357 238 292 238 c 0,0,1
EndSplineSet
MultipleSubs2: "Multiple Substitution lookup 96 subtable" head-soyo haSub-soyo
EndChar

StartChar: haSub-soyo
Encoding: 159 -1 97
Width: 0
GlyphClass: 4
Flags: W
HStem: 448 54<-511.309 -403.021>
VStem: -626 94<274 440.09 566 644> -387 94<317.009 431.685> -148 94<224 469 561 614>
CounterMasks: 1 70
AnchorPoint: "+BBEENQQ3BEsEPARPBD0EPQQ+BDUA--2" -148 224 basemark 0
AnchorPoint: "+BBEENQQ3BEsEPARPBD0EPQQ+BDUA--2" -148 614 mark 0
AnchorPoint: "+BBEENQQ3BEsEPARPBD0EPQQ+BDUA--0" -148 614 mark 0
LayerCount: 2
Fore
SplineSet
-358 303 m 0,0,1
 -383 303 -383 303 -403 313 c 1,2,3
 -387 339 -387 339 -387 377 c 0,4,5
 -387 412 -387 412 -402.5 430 c 128,-1,6
 -418 448 -418 448 -456 448 c 0,7,8
 -497 448 -497 448 -532 432 c 1,9,-1
 -532 274 l 1,10,-1
 -626 224 l 1,11,-1
 -626 694 l 1,12,-1
 -532 644 l 1,13,-1
 -532 566 l 1,14,-1
 -343 714 l 1,15,-1
 -148 561 l 1,16,-1
 -148 614 l 1,17,-1
 -54 664 l 1,18,-1
 -54 174 l 1,19,-1
 -148 224 l 1,20,-1
 -148 469 l 1,21,-1
 -343 621 l 1,22,-1
 -512 489 l 1,23,24
 -473 502 -473 502 -427 502 c 0,25,26
 -293 502 -293 502 -293 381 c 0,27,28
 -293 303 -293 303 -358 303 c 0,0,1
EndSplineSet
Substitution2: "Single Substitution lookup 279 subtable" haSub-soyo.ini2
Substitution2: "Single Substitution lookup 277 subtable" haSub-soyo.2
Substitution2: "Single Substitution lookup 276 subtable" haSub-soyo.ini2
Substitution2: "Single Substitution lookup 274 subtable" haSub-soyo.3
Substitution2: "Single Substitution lookup 272 subtable" haSub-soyo.ini3
Substitution2: "Single Substitution lookup 270 subtable" haSub-soyo.3
Substitution2: "Single Substitution lookup 269 subtable" haSub-soyo.3
Substitution2: "Single Substitution lookup 268 subtable" haSub-soyo.3
Substitution2: "Single Substitution lookup 267 subtable" haSub-soyo.3
Substitution2: "Single Substitution lookup 266 subtable" haSub-soyo.3
Substitution2: "Single Substitution lookup 265 subtable" haSub-soyo.3
Substitution2: "Single Substitution lookup 264 subtable" haSub-soyo.3
Substitution2: "Single Substitution lookup 263 subtable" haSub-soyo.3
Substitution2: "Single Substitution lookup 262 subtable" haSub-soyo.3
Substitution2: "Single Substitution lookup 260 subtable" haSub-soyo.ini3
Ligature2: "'half' Half Forms in Soyombo lookup 188 subtable" subjoiner-soyo ha-soyo
MultipleSubs2: "Multiple Substitution lookup 180 subtable" haSub-soyo joiner-soyo.right
MultipleSubs2: "Multiple Substitution lookup 138 subtable" haSub-soyo tail-soyo.long
EndChar

StartChar: haSub-soyo.2
Encoding: 160 -1 98
Width: 0
GlyphClass: 4
Flags: W
HStem: 504 52<-497.183 -398.642>
VStem: -626 94<374 497.079 605 654> -387 94<396.094 492.298> -148 94<324 524 601 614>
CounterMasks: 1 70
AnchorPoint: "+BBEENQQ3BEsEPARPBD0EPQQ+BDUA--2" -148 326 basemark 0
AnchorPoint: "+BBEENQQ3BEsEPARPBD0EPQQ+BDUA--2" -148 714 mark 0
AnchorPoint: "+BBEENQQ3BEsEPARPBD0EPQQ+BDUA--0" -148 714 mark 0
LayerCount: 2
Fore
SplineSet
-358 384 m 0,0,1
 -383 384 -383 384 -403 394 c 1,2,3
 -387 416 -387 416 -387 448 c 0,4,5
 -387 476 -387 476 -401.5 490 c 128,-1,6
 -416 504 -416 504 -453 504 c 0,7,8
 -472 504 -472 504 -493.5 500.5 c 128,-1,9
 -515 497 -515 497 -532 490 c 1,10,-1
 -532 374 l 1,11,-1
 -626 324 l 1,12,-1
 -626 704 l 1,13,-1
 -532 654 l 1,14,-1
 -532 605 l 1,15,-1
 -343 714 l 1,16,-1
 -148 601 l 1,17,-1
 -148 614 l 1,18,-1
 -54 664 l 1,19,-1
 -54 274 l 1,20,-1
 -148 324 l 1,21,-1
 -148 524 l 1,22,-1
 -343 637 l 1,23,-1
 -498 547 l 1,24,25
 -462 556 -462 556 -422 556 c 0,26,27
 -293 556 -293 556 -293 452 c 0,28,29
 -293 384 -293 384 -358 384 c 0,0,1
EndSplineSet
EndChar

StartChar: haSub-soyo.3
Encoding: 161 -1 99
Width: 0
GlyphClass: 4
Flags: W
HStem: 560 50<-466 -401.443>
VStem: -626 94<474 553.801 642 664> -387 94<475.428 550.868> -148 94<424 578>
CounterMasks: 1 70
AnchorPoint: "+BBEENQQ3BEsEPARPBD0EPQQ+BDUA--2" -148 424 basemark 0
AnchorPoint: "+BBEENQQ3BEsEPARPBD0EPQQ+BDUA--2" -148 714 mark 0
AnchorPoint: "+BBEENQQ3BEsEPARPBD0EPQQ+BDUA--0" -148 714 mark 0
LayerCount: 2
Fore
SplineSet
-358 465 m 0,0,1
 -383 465 -383 465 -403 475 c 1,2,3
 -387 492 -387 492 -387 519 c 0,4,5
 -387 539 -387 539 -401 549.5 c 128,-1,6
 -415 560 -415 560 -450 560 c 0,7,8
 -469 560 -469 560 -491.5 557 c 128,-1,9
 -514 554 -514 554 -532 548 c 1,10,-1
 -532 474 l 1,11,-1
 -626 424 l 1,12,-1
 -626 714 l 1,13,-1
 -532 664 l 1,14,-1
 -532 642 l 1,15,-1
 -343 714 l 1,16,-1
 -121 628 l 1,17,-1
 -54 664 l 1,18,-1
 -54 374 l 1,19,-1
 -148 424 l 1,20,-1
 -148 578 l 1,21,-1
 -343 653 l 1,22,-1
 -466 606 l 1,23,24
 -442 610 -442 610 -417 610 c 0,25,26
 -293 610 -293 610 -293 523 c 0,27,28
 -293 465 -293 465 -358 465 c 0,0,1
EndSplineSet
EndChar

StartChar: haSub-soyo.ini2
Encoding: 162 -1 100
Width: 0
GlyphClass: 4
Flags: W
HStem: 504 52<-497.183 -398.642>
VStem: -626 94<374 497.079 605 654> -387 94<396.094 492.298> -148 94<324 524 601 614>
CounterMasks: 1 70
AnchorPoint: "+BBEENQQ3BEsEPARPBD0EPQQ+BDUA--2" -148 324 basemark 0
AnchorPoint: "+BBEENQQ3BEsEPARPBD0EPQQ+BDUA--2" -148 614 mark 0
AnchorPoint: "+BBEENQQ3BEsEPARPBD0EPQQ+BDUA--0" -148 614 mark 0
LayerCount: 2
Fore
SplineSet
-358 384 m 0,0,1
 -383 384 -383 384 -403 394 c 1,2,3
 -387 416 -387 416 -387 448 c 0,4,5
 -387 476 -387 476 -401.5 490 c 128,-1,6
 -416 504 -416 504 -453 504 c 0,7,8
 -472 504 -472 504 -493.5 500.5 c 128,-1,9
 -515 497 -515 497 -532 490 c 1,10,-1
 -532 374 l 1,11,-1
 -626 324 l 1,12,-1
 -626 704 l 1,13,-1
 -532 654 l 1,14,-1
 -532 605 l 1,15,-1
 -343 714 l 1,16,-1
 -148 601 l 1,17,-1
 -148 614 l 1,18,-1
 -54 664 l 1,19,-1
 -54 274 l 1,20,-1
 -148 324 l 1,21,-1
 -148 524 l 1,22,-1
 -343 637 l 1,23,-1
 -498 547 l 1,24,25
 -462 556 -462 556 -422 556 c 0,26,27
 -293 556 -293 556 -293 452 c 0,28,29
 -293 384 -293 384 -358 384 c 0,0,1
EndSplineSet
EndChar

StartChar: haSub-soyo.ini3
Encoding: 163 -1 101
Width: 0
GlyphClass: 4
Flags: W
HStem: 560 50<-466 -401.443>
VStem: -626 94<474 553.801 642 664> -387 94<475.428 550.868> -148 94<424 578>
CounterMasks: 1 70
AnchorPoint: "+BBEENQQ3BEsEPARPBD0EPQQ+BDUA--2" -148 424 basemark 0
AnchorPoint: "+BBEENQQ3BEsEPARPBD0EPQQ+BDUA--2" -148 614 mark 0
AnchorPoint: "+BBEENQQ3BEsEPARPBD0EPQQ+BDUA--0" -148 614 mark 0
LayerCount: 2
Fore
SplineSet
-358 465 m 0,0,1
 -383 465 -383 465 -403 475 c 1,2,3
 -387 492 -387 492 -387 519 c 0,4,5
 -387 539 -387 539 -401 549.5 c 128,-1,6
 -415 560 -415 560 -450 560 c 0,7,8
 -469 560 -469 560 -491.5 557 c 128,-1,9
 -514 554 -514 554 -532 548 c 1,10,-1
 -532 474 l 1,11,-1
 -626 424 l 1,12,-1
 -626 714 l 1,13,-1
 -532 664 l 1,14,-1
 -532 642 l 1,15,-1
 -343 714 l 1,16,-1
 -121 628 l 1,17,-1
 -54 664 l 1,18,-1
 -54 374 l 1,19,-1
 -148 424 l 1,20,-1
 -148 578 l 1,21,-1
 -343 653 l 1,22,-1
 -466 606 l 1,23,24
 -442 610 -442 610 -417 610 c 0,25,26
 -293 610 -293 610 -293 523 c 0,27,28
 -293 465 -293 465 -358 465 c 0,0,1
EndSplineSet
EndChar

StartChar: head-soyo
Encoding: 164 -1 102
Width: 620
GlyphClass: 2
Flags: W
HStem: 487 227<452 546>
VStem: 452 94<487 703>
AnchorPoint: "+BBEENQQ3BEsEPARPBD0EPQQ+BDUA--1" 260 714 basechar 0
AnchorPoint: "+BBEENQQ3BEsEPARPBD0EPQQ+BDUA--0" 452 549 basechar 0
LayerCount: 2
Fore
SplineSet
60 708 m 1,0,-1
 60 714 l 1,1,-1
 546 714 l 1,2,-1
 546 487 l 1,3,-1
 452 487 l 1,4,-1
 452 703 l 1,5,-1
 260 589 l 1,6,-1
 60 708 l 1,0,-1
EndSplineSet
MultipleSubs2: "Multiple Substitution lookup 283 subtable" head-soyo joiner-soyo.both.tight
MultipleSubs2: "Multiple Substitution lookup 281 subtable" head-soyo joiner-soyo.right.tight
MultipleSubs2: "Multiple Substitution lookup 258 subtable" head-soyo joiner-soyo.right
Substitution2: "Single Substitution lookup 223 subtable" headSub-soyo
Substitution2: "Single Substitution lookup 191 subtable" head-soyo.open
Position2: "Single Positioning lookup 60 subtable" dx=40 dy=0 dh=40 dv=0
Position2: "Single Positioning lookup 58 subtable" dx=40 dy=0 dh=40 dv=0
Position2: "Single Positioning lookup 56 subtable" dx=50 dy=0 dh=50 dv=0
Position2: "Single Positioning lookup 54 subtable" dx=50 dy=0 dh=50 dv=0
Position2: "Single Positioning lookup 52 subtable" dx=60 dy=0 dh=60 dv=0
Position2: "Single Positioning lookup 50 subtable" dx=60 dy=0 dh=60 dv=0
Position2: "Single Positioning lookup 48 subtable" dx=70 dy=0 dh=70 dv=0
Position2: "Single Positioning lookup 46 subtable" dx=70 dy=0 dh=70 dv=0
Position2: "Single Positioning lookup 44 subtable" dx=80 dy=0 dh=80 dv=0
Position2: "Single Positioning lookup 38 subtable" dx=-50 dy=0 dh=-50 dv=0
Position2: "Single Positioning lookup 37 subtable" dx=-40 dy=0 dh=-40 dv=0
Position2: "Single Positioning lookup 36 subtable" dx=-30 dy=0 dh=-30 dv=0
Position2: "Single Positioning lookup 35 subtable" dx=-20 dy=0 dh=-20 dv=0
Position2: "Single Positioning lookup 34 subtable" dx=-10 dy=0 dh=-10 dv=0
Position2: "Single Positioning lookup 33 subtable" dx=10 dy=0 dh=10 dv=0
Position2: "Single Positioning lookup 32 subtable" dx=40 dy=0 dh=40 dv=0
Position2: "Single Positioning lookup 31 subtable" dx=50 dy=0 dh=50 dv=0
EndChar

StartChar: head-soyo.open
Encoding: 165 -1 103
Width: 620
GlyphClass: 2
Flags: W
HStem: 487 227
VStem: 452 94<487 574>
AnchorPoint: "+BBEENQQ3BEsEPARPBD0EPQQ+BDUA--1" 260 714 basechar 0
AnchorPoint: "+BBEENQQ3BEsEPARPBD0EPQQ+BDUA--0" 452 549 basechar 0
LayerCount: 2
Fore
SplineSet
460 708 m 1,0,-1
 260 589 l 1,1,-1
 60 708 l 1,2,-1
 60 714 l 1,3,-1
 460 714 l 1,4,-1
 460 708 l 1,0,-1
452 574 m 1,5,-1
 546 634 l 1,6,-1
 546 487 l 1,7,-1
 452 487 l 1,8,-1
 452 574 l 1,5,-1
EndSplineSet
MultipleSubs2: "Multiple Substitution lookup 284 subtable" head-soyo.open joiner-soyo.both.tight
MultipleSubs2: "Multiple Substitution lookup 282 subtable" head-soyo.open joiner-soyo.blank
Substitution2: "Single Substitution lookup 223 subtable" headSub-soyo.open
Position2: "Single Positioning lookup 60 subtable" dx=40 dy=0 dh=40 dv=0
Position2: "Single Positioning lookup 58 subtable" dx=40 dy=0 dh=40 dv=0
Position2: "Single Positioning lookup 56 subtable" dx=50 dy=0 dh=50 dv=0
Position2: "Single Positioning lookup 54 subtable" dx=50 dy=0 dh=50 dv=0
Position2: "Single Positioning lookup 52 subtable" dx=60 dy=0 dh=60 dv=0
Position2: "Single Positioning lookup 50 subtable" dx=60 dy=0 dh=60 dv=0
Position2: "Single Positioning lookup 48 subtable" dx=70 dy=0 dh=70 dv=0
Position2: "Single Positioning lookup 46 subtable" dx=70 dy=0 dh=70 dv=0
Position2: "Single Positioning lookup 44 subtable" dx=80 dy=0 dh=80 dv=0
Position2: "Single Positioning lookup 38 subtable" dx=-50 dy=0 dh=-50 dv=0
Position2: "Single Positioning lookup 37 subtable" dx=-40 dy=0 dh=-40 dv=0
Position2: "Single Positioning lookup 36 subtable" dx=-30 dy=0 dh=-30 dv=0
Position2: "Single Positioning lookup 35 subtable" dx=-20 dy=0 dh=-20 dv=0
Position2: "Single Positioning lookup 34 subtable" dx=-10 dy=0 dh=-10 dv=0
Position2: "Single Positioning lookup 33 subtable" dx=10 dy=0 dh=10 dv=0
Position2: "Single Positioning lookup 32 subtable" dx=40 dy=0 dh=40 dv=0
Position2: "Single Positioning lookup 31 subtable" dx=50 dy=0 dh=50 dv=0
EndChar

StartChar: headMoonSun-soyo
Encoding: 85 72352 104
Width: 748
Flags: W
HStem: 0 21G<74 214 348.545 399.455 534 674> 136 70<234 514> 224 42<356.422 391.501> 462 42<356.144 391.578> 522 70<234 514> 744 49<299.378 448.953> 823 180<315.561 433.02>
VStem: 74 140<0 714> 234 61<280.366 373.322> 241 5<887.956 894> 284 180<854.561 972.02> 315 38<269.182 304.407> 395 38<423.593 458.818> 453 61<355.178 448.667> 502 5<887.956 894> 534 140<0 714>
LayerCount: 2
Fore
SplineSet
374 823 m 0,0,1
 337 823 337 823 310.5 849.5 c 128,-1,2
 284 876 284 876 284 913 c 0,3,4
 284 951 284 951 310.5 977 c 128,-1,5
 337 1003 337 1003 374 1003 c 0,6,7
 412 1003 412 1003 438 977 c 128,-1,8
 464 951 464 951 464 913 c 0,9,10
 464 876 464 876 438 849.5 c 128,-1,11
 412 823 412 823 374 823 c 0,0,1
374 744 m 0,12,13
 313 744 313 744 277 786.5 c 128,-1,14
 241 829 241 829 241 894 c 1,15,-1
 246 895 l 1,16,17
 258 851 258 851 287.5 822 c 128,-1,18
 317 793 317 793 374 793 c 256,19,20
 431 793 431 793 460.5 822 c 128,-1,21
 490 851 490 851 502 895 c 1,22,-1
 507 894 l 1,23,24
 507 829 507 829 471.5 786.5 c 128,-1,25
 436 744 436 744 374 744 c 0,12,13
534 0 m 1,26,-1
 534 714 l 1,27,-1
 674 714 l 1,28,-1
 674 0 l 1,29,-1
 534 0 l 1,26,-1
74 0 m 1,30,-1
 74 714 l 1,31,-1
 214 714 l 1,32,-1
 214 0 l 1,33,-1
 74 0 l 1,30,-1
374 604 m 1,34,-1
 234 714 l 1,35,-1
 514 714 l 1,36,-1
 374 604 l 1,34,-1
234 522 m 1,37,-1
 234 592 l 1,38,-1
 514 592 l 1,39,-1
 514 522 l 1,40,-1
 234 522 l 1,37,-1
317 236 m 1,41,42
 283 252 283 252 258.5 285.5 c 128,-1,43
 234 319 234 319 234 364 c 0,44,45
 234 403 234 403 253 434.5 c 128,-1,46
 272 466 272 466 304 485 c 128,-1,47
 336 504 336 504 374 504 c 0,48,49
 399 504 399 504 416 487 c 128,-1,50
 433 470 433 470 433 441 c 0,51,52
 433 392 433 392 370 373 c 0,53,54
 295 352 295 352 295 287 c 0,55,56
 295 271 295 271 301 259 c 128,-1,57
 307 247 307 247 317 238 c 1,58,-1
 317 236 l 1,41,42
431 492 m 1,59,60
 466 476 466 476 490 442.5 c 128,-1,61
 514 409 514 409 514 364 c 0,62,63
 514 326 514 326 495 294 c 128,-1,64
 476 262 476 262 444.5 243 c 128,-1,65
 413 224 413 224 374 224 c 0,66,67
 349 224 349 224 332 241 c 128,-1,68
 315 258 315 258 315 287 c 0,69,70
 315 336 315 336 378 355 c 0,71,72
 453 376 453 376 453 441 c 0,73,74
 453 458 453 458 447.5 469.5 c 128,-1,75
 442 481 442 481 431 490 c 1,76,-1
 431 492 l 1,59,60
374 420 m 256,77,78
 383 420 383 420 389 426 c 128,-1,79
 395 432 395 432 395 441 c 256,80,81
 395 450 395 450 389 456 c 128,-1,82
 383 462 383 462 374 462 c 256,83,84
 365 462 365 462 359 456 c 128,-1,85
 353 450 353 450 353 441 c 256,86,87
 353 432 353 432 359 426 c 128,-1,88
 365 420 365 420 374 420 c 256,77,78
374 266 m 256,89,90
 383 266 383 266 389 272 c 128,-1,91
 395 278 395 278 395 287 c 256,92,93
 395 296 395 296 389 302 c 128,-1,94
 383 308 383 308 374 308 c 256,95,96
 365 308 365 308 359 302 c 128,-1,97
 353 296 353 296 353 287 c 256,98,99
 353 278 353 278 359 272 c 128,-1,100
 365 266 365 266 374 266 c 256,89,90
234 136 m 1,101,-1
 234 206 l 1,102,-1
 514 206 l 1,103,-1
 514 136 l 1,104,-1
 234 136 l 1,101,-1
374 0 m 1,105,-1
 234 110 l 1,106,-1
 514 110 l 1,107,-1
 374 0 l 1,105,-1
EndSplineSet
EndChar

StartChar: headMoonSunFlame-soyo
Encoding: 84 72351 105
Width: 748
Flags: W
HStem: 0 21G<74 214 348.545 399.455 534 674> 136 70<234 514> 224 42<356.422 391.501> 462 42<356.144 391.578> 522 70<234 514> 744 49<299.378 448.953> 823 180<315.561 433.02> 1023 40<336.98 397.058>
VStem: 74 140<0 714> 234 61<280.366 373.322> 241 5<887.956 894> 284 180<854.561 972.02> 308 28<1066.23 1119.84> 315 38<269.182 304.407> 395 38<423.593 458.818> 399 41<1064.91 1143.59> 453 61<355.178 448.667> 502 5<887.956 894> 534 140<0 714>
LayerCount: 2
Fore
SplineSet
372 1023 m 0,0,1
 335 1023 335 1023 321.5 1042 c 128,-1,2
 308 1061 308 1061 308 1080 c 0,3,4
 308 1100 308 1100 319 1116 c 128,-1,5
 330 1132 330 1132 350 1140 c 1,6,-1
 353 1136 l 1,7,8
 344 1126 344 1126 340 1114.5 c 128,-1,9
 336 1103 336 1103 336 1092 c 0,10,11
 336 1063 336 1063 366 1063 c 0,12,13
 399 1063 399 1063 399 1096 c 0,14,15
 399 1114 399 1114 389 1130 c 128,-1,16
 379 1146 379 1146 369 1166 c 128,-1,17
 359 1186 359 1186 359 1215 c 0,18,19
 359 1225 359 1225 362 1234 c 1,20,-1
 366 1234 l 1,21,22
 372 1207 372 1207 384 1189 c 128,-1,23
 396 1171 396 1171 409 1156.5 c 128,-1,24
 422 1142 422 1142 431 1126 c 128,-1,25
 440 1110 440 1110 440 1087 c 0,26,27
 440 1055 440 1055 421 1039 c 128,-1,28
 402 1023 402 1023 372 1023 c 0,0,1
374 823 m 0,29,30
 337 823 337 823 310.5 849.5 c 128,-1,31
 284 876 284 876 284 913 c 0,32,33
 284 951 284 951 310.5 977 c 128,-1,34
 337 1003 337 1003 374 1003 c 0,35,36
 412 1003 412 1003 438 977 c 128,-1,37
 464 951 464 951 464 913 c 0,38,39
 464 876 464 876 438 849.5 c 128,-1,40
 412 823 412 823 374 823 c 0,29,30
374 744 m 0,41,42
 313 744 313 744 277 786.5 c 128,-1,43
 241 829 241 829 241 894 c 1,44,-1
 246 895 l 1,45,46
 258 851 258 851 287.5 822 c 128,-1,47
 317 793 317 793 374 793 c 256,48,49
 431 793 431 793 460.5 822 c 128,-1,50
 490 851 490 851 502 895 c 1,51,-1
 507 894 l 1,52,53
 507 829 507 829 471.5 786.5 c 128,-1,54
 436 744 436 744 374 744 c 0,41,42
534 0 m 1,55,-1
 534 714 l 1,56,-1
 674 714 l 1,57,-1
 674 0 l 1,58,-1
 534 0 l 1,55,-1
74 0 m 1,59,-1
 74 714 l 1,60,-1
 214 714 l 1,61,-1
 214 0 l 1,62,-1
 74 0 l 1,59,-1
374 604 m 1,63,-1
 234 714 l 1,64,-1
 514 714 l 1,65,-1
 374 604 l 1,63,-1
234 522 m 1,66,-1
 234 592 l 1,67,-1
 514 592 l 1,68,-1
 514 522 l 1,69,-1
 234 522 l 1,66,-1
317 236 m 1,70,71
 283 252 283 252 258.5 285.5 c 128,-1,72
 234 319 234 319 234 364 c 0,73,74
 234 403 234 403 253 434.5 c 128,-1,75
 272 466 272 466 304 485 c 128,-1,76
 336 504 336 504 374 504 c 0,77,78
 399 504 399 504 416 487 c 128,-1,79
 433 470 433 470 433 441 c 0,80,81
 433 392 433 392 370 373 c 0,82,83
 295 352 295 352 295 287 c 0,84,85
 295 271 295 271 301 259 c 128,-1,86
 307 247 307 247 317 238 c 1,87,-1
 317 236 l 1,70,71
431 492 m 1,88,89
 466 476 466 476 490 442.5 c 128,-1,90
 514 409 514 409 514 364 c 0,91,92
 514 326 514 326 495 294 c 128,-1,93
 476 262 476 262 444.5 243 c 128,-1,94
 413 224 413 224 374 224 c 0,95,96
 349 224 349 224 332 241 c 128,-1,97
 315 258 315 258 315 287 c 0,98,99
 315 336 315 336 378 355 c 0,100,101
 453 376 453 376 453 441 c 0,102,103
 453 458 453 458 447.5 469.5 c 128,-1,104
 442 481 442 481 431 490 c 1,105,-1
 431 492 l 1,88,89
374 420 m 256,106,107
 383 420 383 420 389 426 c 128,-1,108
 395 432 395 432 395 441 c 256,109,110
 395 450 395 450 389 456 c 128,-1,111
 383 462 383 462 374 462 c 256,112,113
 365 462 365 462 359 456 c 128,-1,114
 353 450 353 450 353 441 c 256,115,116
 353 432 353 432 359 426 c 128,-1,117
 365 420 365 420 374 420 c 256,106,107
374 266 m 256,118,119
 383 266 383 266 389 272 c 128,-1,120
 395 278 395 278 395 287 c 256,121,122
 395 296 395 296 389 302 c 128,-1,123
 383 308 383 308 374 308 c 256,124,125
 365 308 365 308 359 302 c 128,-1,126
 353 296 353 296 353 287 c 256,127,128
 353 278 353 278 359 272 c 128,-1,129
 365 266 365 266 374 266 c 256,118,119
234 136 m 1,130,-1
 234 206 l 1,131,-1
 514 206 l 1,132,-1
 514 136 l 1,133,-1
 234 136 l 1,130,-1
374 0 m 1,134,-1
 234 110 l 1,135,-1
 514 110 l 1,136,-1
 374 0 l 1,134,-1
EndSplineSet
EndChar

StartChar: headMoonSunTripleFlame-soyo
Encoding: 83 72350 106
Width: 748
Flags: W
HStem: 0 21G<74 214 348.545 399.455 534 674> 136 70<234 514> 224 42<356.422 391.501> 462 42<356.144 391.578> 522 70<234 514> 744 49<299.378 448.953> 823 180<315.561 433.02> 1023 59<337.288 410.745>
VStem: 74 140<0 714> 234 61<280.366 373.322> 241 5<887.956 894> 284 180<854.561 972.02> 315 38<269.182 304.407> 321 12<1116.05 1134.55> 323 17<1088.68 1136.69> 351 46<1094.31 1162.72> 360 28<1082 1128.56 1129.34 1129.66> 361 12<1171.78 1199.37> 395 38<423.593 458.818> 411 12<1100.09 1142> 453 61<355.178 448.667> 502 5<887.956 894> 534 140<0 714>
LayerCount: 2
Fore
SplineSet
374 1023 m 0,0,1
 346 1023 346 1023 330 1040 c 128,-1,2
 314 1057 314 1057 314 1080 c 0,3,4
 314 1094 314 1094 318.5 1100 c 128,-1,5
 323 1106 323 1106 323 1110 c 0,6,7
 323 1113 323 1113 322 1115 c 128,-1,8
 321 1117 321 1117 321 1121 c 0,9,10
 321 1131 321 1131 331 1138 c 1,11,-1
 333 1137 l 1,12,13
 331 1127 331 1127 335.5 1122 c 128,-1,14
 340 1117 340 1117 340 1109 c 0,15,16
 340 1105 340 1105 338.5 1102 c 128,-1,17
 337 1099 337 1099 337 1094 c 0,18,19
 337 1082 337 1082 348 1082 c 0,20,21
 360 1082 360 1082 360 1094 c 0,22,23
 360 1102 360 1102 355.5 1108.5 c 128,-1,24
 351 1115 351 1115 351 1129 c 0,25,26
 351 1140 351 1140 356 1147 c 128,-1,27
 361 1154 361 1154 361 1163 c 0,28,29
 361 1167 361 1167 359.5 1170.5 c 128,-1,30
 358 1174 358 1174 358 1179 c 0,31,32
 358 1193 358 1193 374 1206 c 1,33,-1
 377 1204 l 1,34,35
 373 1197 373 1197 373 1191 c 0,36,37
 373 1177 373 1177 385 1164 c 128,-1,38
 397 1151 397 1151 397 1130 c 0,39,40
 397 1119 397 1119 392.5 1111.5 c 128,-1,41
 388 1104 388 1104 388 1094 c 0,42,43
 388 1082 388 1082 400 1082 c 0,44,45
 411 1082 411 1082 411 1094 c 0,46,47
 411 1099 411 1099 408.5 1102.5 c 128,-1,48
 406 1106 406 1106 406 1111 c 0,49,50
 406 1121 406 1121 411 1126 c 128,-1,51
 416 1131 416 1131 414 1142 c 1,52,-1
 416 1143 l 1,53,54
 426 1134 426 1134 426 1125 c 0,55,56
 426 1121 426 1121 424.5 1118 c 128,-1,57
 423 1115 423 1115 423 1112 c 0,58,59
 423 1107 423 1107 428.5 1100.5 c 128,-1,60
 434 1094 434 1094 434 1080 c 0,61,62
 434 1057 434 1057 418.5 1040 c 128,-1,63
 403 1023 403 1023 374 1023 c 0,0,1
374 823 m 0,64,65
 337 823 337 823 310.5 849.5 c 128,-1,66
 284 876 284 876 284 913 c 0,67,68
 284 951 284 951 310.5 977 c 128,-1,69
 337 1003 337 1003 374 1003 c 0,70,71
 412 1003 412 1003 438 977 c 128,-1,72
 464 951 464 951 464 913 c 0,73,74
 464 876 464 876 438 849.5 c 128,-1,75
 412 823 412 823 374 823 c 0,64,65
374 744 m 0,76,77
 313 744 313 744 277 786.5 c 128,-1,78
 241 829 241 829 241 894 c 1,79,-1
 246 895 l 1,80,81
 258 851 258 851 287.5 822 c 128,-1,82
 317 793 317 793 374 793 c 256,83,84
 431 793 431 793 460.5 822 c 128,-1,85
 490 851 490 851 502 895 c 1,86,-1
 507 894 l 1,87,88
 507 829 507 829 471.5 786.5 c 128,-1,89
 436 744 436 744 374 744 c 0,76,77
534 0 m 1,90,-1
 534 714 l 1,91,-1
 674 714 l 1,92,-1
 674 0 l 1,93,-1
 534 0 l 1,90,-1
74 0 m 1,94,-1
 74 714 l 1,95,-1
 214 714 l 1,96,-1
 214 0 l 1,97,-1
 74 0 l 1,94,-1
374 604 m 1,98,-1
 234 714 l 1,99,-1
 514 714 l 1,100,-1
 374 604 l 1,98,-1
234 522 m 1,101,-1
 234 592 l 1,102,-1
 514 592 l 1,103,-1
 514 522 l 1,104,-1
 234 522 l 1,101,-1
317 236 m 1,105,106
 283 252 283 252 258.5 285.5 c 128,-1,107
 234 319 234 319 234 364 c 0,108,109
 234 403 234 403 253 434.5 c 128,-1,110
 272 466 272 466 304 485 c 128,-1,111
 336 504 336 504 374 504 c 0,112,113
 399 504 399 504 416 487 c 128,-1,114
 433 470 433 470 433 441 c 0,115,116
 433 392 433 392 370 373 c 0,117,118
 295 352 295 352 295 287 c 0,119,120
 295 271 295 271 301 259 c 128,-1,121
 307 247 307 247 317 238 c 1,122,-1
 317 236 l 1,105,106
431 492 m 1,123,124
 466 476 466 476 490 442.5 c 128,-1,125
 514 409 514 409 514 364 c 0,126,127
 514 326 514 326 495 294 c 128,-1,128
 476 262 476 262 444.5 243 c 128,-1,129
 413 224 413 224 374 224 c 0,130,131
 349 224 349 224 332 241 c 128,-1,132
 315 258 315 258 315 287 c 0,133,134
 315 336 315 336 378 355 c 0,135,136
 453 376 453 376 453 441 c 0,137,138
 453 458 453 458 447.5 469.5 c 128,-1,139
 442 481 442 481 431 490 c 1,140,-1
 431 492 l 1,123,124
374 420 m 256,141,142
 383 420 383 420 389 426 c 128,-1,143
 395 432 395 432 395 441 c 256,144,145
 395 450 395 450 389 456 c 128,-1,146
 383 462 383 462 374 462 c 256,147,148
 365 462 365 462 359 456 c 128,-1,149
 353 450 353 450 353 441 c 256,150,151
 353 432 353 432 359 426 c 128,-1,152
 365 420 365 420 374 420 c 256,141,142
374 266 m 256,153,154
 383 266 383 266 389 272 c 128,-1,155
 395 278 395 278 395 287 c 256,156,157
 395 296 395 296 389 302 c 128,-1,158
 383 308 383 308 374 308 c 256,159,160
 365 308 365 308 359 302 c 128,-1,161
 353 296 353 296 353 287 c 256,162,163
 353 278 353 278 359 272 c 128,-1,164
 365 266 365 266 374 266 c 256,153,154
234 136 m 1,165,-1
 234 206 l 1,166,-1
 514 206 l 1,167,-1
 514 136 l 1,168,-1
 234 136 l 1,165,-1
374 0 m 1,169,-1
 234 110 l 1,170,-1
 514 110 l 1,171,-1
 374 0 l 1,169,-1
EndSplineSet
EndChar

StartChar: headSub-soyo
Encoding: 166 -1 107
Width: 0
GlyphClass: 4
Flags: W
HStem: 387 227<-168 -74>
VStem: -168 94<387 603>
AnchorPoint: "+BBEENQQ3BEsEPARPBD0EPQQ+BDUA--2" -168 449 basemark 0
AnchorPoint: "+BBEENQQ3BEsEPARPBD0EPQQ+BDUA--2" -168 614 mark 0
AnchorPoint: "+BBEENQQ3BEsEPARPBD0EPQQ+BDUA--0" -168 614 mark 0
LayerCount: 2
Fore
SplineSet
-560 608 m 1,0,-1
 -560 614 l 1,1,-1
 -74 614 l 1,2,-1
 -74 387 l 1,3,-1
 -168 387 l 1,4,-1
 -168 603 l 1,5,-1
 -360 489 l 1,6,-1
 -560 608 l 1,0,-1
EndSplineSet
EndChar

StartChar: headSub-soyo.open
Encoding: 167 -1 108
Width: 0
GlyphClass: 4
Flags: W
HStem: 387 227
VStem: -168 94<387 474>
AnchorPoint: "+BBEENQQ3BEsEPARPBD0EPQQ+BDUA--2" -168 449 basemark 0
AnchorPoint: "+BBEENQQ3BEsEPARPBD0EPQQ+BDUA--2" -168 614 mark 0
AnchorPoint: "+BBEENQQ3BEsEPARPBD0EPQQ+BDUA--0" -168 614 mark 0
LayerCount: 2
Fore
SplineSet
-160 608 m 1,0,-1
 -360 489 l 1,1,-1
 -560 608 l 1,2,-1
 -560 614 l 1,3,-1
 -160 614 l 1,4,-1
 -160 608 l 1,0,-1
-168 474 m 1,5,-1
 -74 534 l 1,6,-1
 -74 387 l 1,7,-1
 -168 387 l 1,8,-1
 -168 474 l 1,5,-1
EndSplineSet
EndChar

StartChar: iMatra-soyo
Encoding: 6 72273 109
Width: 0
GlyphClass: 4
Flags: W
HStem: 806 80<-441.127 -196.873>
AnchorPoint: "+BBEENQQ3BEsEPARPBD0EPQQ+BDUA--3" -320 886 basemark 0
AnchorPoint: "+BBEENQQ3BEsEPARPBD0EPQQ+BDUA--3" -320 714 mark 0
AnchorPoint: "+BBEENQQ3BEsEPARPBD0EPQQ+BDUA--1" -320 714 mark 0
LayerCount: 2
Fore
SplineSet
-319 886 m 256,0,1
 -224 886 -224 886 -169 849.5 c 128,-1,2
 -114 813 -114 813 -84 744 c 1,3,-1
 -88 740 l 1,4,5
 -122 774 -122 774 -180 790 c 128,-1,6
 -238 806 -238 806 -319 806 c 256,7,8
 -400 806 -400 806 -458 790 c 128,-1,9
 -516 774 -516 774 -550 740 c 1,10,-1
 -554 744 l 1,11,12
 -524 813 -524 813 -469 849.5 c 128,-1,13
 -414 886 -414 886 -319 886 c 256,0,1
EndSplineSet
Substitution2: "Single Substitution lookup 47 subtable" aFinal-soyo
Substitution2: "Single Substitution lookup 46 subtable" sFinal-soyo
Substitution2: "Single Substitution lookup 45 subtable" shFinal-soyo
Substitution2: "Single Substitution lookup 44 subtable" lFinal-soyo
Substitution2: "Single Substitution lookup 43 subtable" rFinal-soyo
Substitution2: "Single Substitution lookup 42 subtable" mFinal-soyo
Substitution2: "Single Substitution lookup 41 subtable" bFinal-soyo
Substitution2: "Single Substitution lookup 40 subtable" nFinal-soyo
Substitution2: "Single Substitution lookup 39 subtable" dFinal-soyo
Substitution2: "Single Substitution lookup 38 subtable" ngFinal-soyo
Substitution2: "Single Substitution lookup 37 subtable" kFinal-soyo
Substitution2: "Single Substitution lookup 36 subtable" gFinal-soyo
EndChar

StartChar: ja-soyo
Encoding: 24 72291 110
Width: 570
GlyphClass: 2
Flags: MW
HStem: 589 125<198.235 221.789>
VStem: 402 94<0 703>
AnchorPoint: "+BBEENQQ3BEsEPARPBD0EPQQ+BDUA--1" 210 714 basechar 0
AnchorPoint: "+BBEENQQ3BEsEPARPBD0EPQQ+BDUA--0" 402 0 basechar 0
LayerCount: 2
Fore
SplineSet
10 714 m 1,0,-1
 496 714 l 1,1,-1
 496 -50 l 1,2,-1
 402 0 l 1,3,-1
 402 703 l 1,4,-1
 210 589 l 1,5,-1
 10 708 l 1,6,-1
 10 714 l 1,0,-1
207 159 m 1,7,-1
 155 211 l 1,8,-1
 298 354 l 1,9,-1
 207 445 l 1,10,-1
 64 302 l 1,11,-1
 12 354 l 1,12,-1
 207 549 l 1,13,-1
 402 354 l 1,14,-1
 207 159 l 1,7,-1
EndSplineSet
MultipleSubs2: "Multiple Substitution lookup 65 subtable" head-soyo jaSub-soyo
EndChar

StartChar: jaSub-soyo
Encoding: 168 -1 111
Width: 0
GlyphClass: 4
Flags: W
VStem: -148 94<324 714>
AnchorPoint: "+BBEENQQ3BEsEPARPBD0EPQQ+BDUA--2" -148 324 basemark 0
AnchorPoint: "+BBEENQQ3BEsEPARPBD0EPQQ+BDUA--2" -148 714 mark 0
AnchorPoint: "+BBEENQQ3BEsEPARPBD0EPQQ+BDUA--0" -148 714 mark 0
LayerCount: 2
Fore
SplineSet
-148 714 m 1,0,-1
 -54 714 l 1,1,-1
 -54 274 l 1,2,-1
 -148 324 l 1,3,-1
 -148 714 l 1,0,-1
-343 324 m 1,4,-1
 -395 376 l 1,5,-1
 -252 519 l 1,6,-1
 -343 610 l 1,7,-1
 -486 467 l 1,8,-1
 -538 519 l 1,9,-1
 -343 714 l 1,10,-1
 -148 519 l 1,11,-1
 -343 324 l 1,4,-1
EndSplineSet
Substitution2: "Single Substitution lookup 279 subtable" jaSub-soyo.ini2
Substitution2: "Single Substitution lookup 277 subtable" jaSub-soyo.2
Substitution2: "Single Substitution lookup 276 subtable" jaSub-soyo.ini2
Substitution2: "Single Substitution lookup 274 subtable" jaSub-soyo.3
Substitution2: "Single Substitution lookup 272 subtable" jaSub-soyo.ini3
Substitution2: "Single Substitution lookup 270 subtable" jaSub-soyo.3
Substitution2: "Single Substitution lookup 269 subtable" jaSub-soyo.3
Substitution2: "Single Substitution lookup 268 subtable" jaSub-soyo.3
Substitution2: "Single Substitution lookup 267 subtable" jaSub-soyo.3
Substitution2: "Single Substitution lookup 266 subtable" jaSub-soyo.3
Substitution2: "Single Substitution lookup 265 subtable" jaSub-soyo.3
Substitution2: "Single Substitution lookup 264 subtable" jaSub-soyo.3
Substitution2: "Single Substitution lookup 263 subtable" jaSub-soyo.3
Substitution2: "Single Substitution lookup 262 subtable" jaSub-soyo.3
Substitution2: "Single Substitution lookup 260 subtable" jaSub-soyo.ini3
Ligature2: "'half' Half Forms in Soyombo lookup 188 subtable" subjoiner-soyo ja-soyo
MultipleSubs2: "Multiple Substitution lookup 149 subtable" jaSub-soyo joiner-soyo.right
MultipleSubs2: "Multiple Substitution lookup 107 subtable" jaSub-soyo tail-soyo.long
EndChar

StartChar: jaSub-soyo.2
Encoding: 169 -1 112
Width: 0
GlyphClass: 4
Flags: W
VStem: -148 94<394 714>
AnchorPoint: "+BBEENQQ3BEsEPARPBD0EPQQ+BDUA--2" -148 394 basemark 0
AnchorPoint: "+BBEENQQ3BEsEPARPBD0EPQQ+BDUA--2" -148 714 mark 0
AnchorPoint: "+BBEENQQ3BEsEPARPBD0EPQQ+BDUA--0" -148 714 mark 0
LayerCount: 2
Fore
SplineSet
-148 714 m 1,0,-1
 -54 714 l 1,1,-1
 -54 344 l 1,2,-1
 -148 394 l 1,3,-1
 -148 714 l 1,0,-1
-343 394 m 1,4,-1
 -398 439 l 1,5,-1
 -258 554 l 1,6,-1
 -342 623 l 1,7,-1
 -482 509 l 1,8,-1
 -538 554 l 1,9,-1
 -398 669 l 1,10,-1
 -343 714 l 1,11,-1
 -287 669 l 1,12,-1
 -288 669 l 1,13,-1
 -148 554 l 1,14,-1
 -343 394 l 1,4,-1
EndSplineSet
EndChar

StartChar: jaSub-soyo.3
Encoding: 170 -1 113
Width: 0
GlyphClass: 4
Flags: W
HStem: 414 300
VStem: -148 94<464 714>
AnchorPoint: "+BBEENQQ3BEsEPARPBD0EPQQ+BDUA--2" -148 464 basemark 0
AnchorPoint: "+BBEENQQ3BEsEPARPBD0EPQQ+BDUA--2" -148 714 mark 0
AnchorPoint: "+BBEENQQ3BEsEPARPBD0EPQQ+BDUA--0" -148 714 mark 0
LayerCount: 2
Fore
SplineSet
-148 714 m 1,0,-1
 -54 714 l 1,1,-1
 -54 414 l 1,2,-1
 -148 464 l 1,3,-1
 -148 714 l 1,0,-1
-343 464 m 1,4,-1
 -402 502 l 1,5,-1
 -266 589 l 1,6,-1
 -343 638 l 1,7,-1
 -479 551 l 1,8,-1
 -538 589 l 1,9,-1
 -343 714 l 1,10,-1
 -207 627 l 1,11,-1
 -148 589 l 1,12,-1
 -207 551 l 1,13,-1
 -343 464 l 1,4,-1
EndSplineSet
EndChar

StartChar: jaSub-soyo.ini2
Encoding: 171 -1 114
Width: 0
GlyphClass: 4
Flags: W
VStem: -148 94<394 684>
AnchorPoint: "+BBEENQQ3BEsEPARPBD0EPQQ+BDUA--2" -148 394 basemark 0
AnchorPoint: "+BBEENQQ3BEsEPARPBD0EPQQ+BDUA--2" -148 684 mark 0
AnchorPoint: "+BBEENQQ3BEsEPARPBD0EPQQ+BDUA--0" -148 684 mark 0
LayerCount: 2
Fore
SplineSet
-343 394 m 1,0,-1
 -398 439 l 1,1,-1
 -258 554 l 1,2,-1
 -342 623 l 1,3,-1
 -482 509 l 1,4,-1
 -538 554 l 1,5,-1
 -398 669 l 1,6,-1
 -343 714 l 1,7,-1
 -287 669 l 1,8,-1
 -288 669 l 1,9,-1
 -148 554 l 1,10,-1
 -343 394 l 1,0,-1
-148 684 m 1,11,-1
 -54 684 l 1,12,-1
 -54 344 l 1,13,-1
 -148 394 l 1,14,-1
 -148 684 l 1,11,-1
EndSplineSet
EndChar

StartChar: jaSub-soyo.ini3
Encoding: 172 -1 115
Width: 0
GlyphClass: 4
Flags: W
HStem: 414 300
VStem: -148 94<464 684>
AnchorPoint: "+BBEENQQ3BEsEPARPBD0EPQQ+BDUA--2" -148 464 basemark 0
AnchorPoint: "+BBEENQQ3BEsEPARPBD0EPQQ+BDUA--2" -148 684 mark 0
AnchorPoint: "+BBEENQQ3BEsEPARPBD0EPQQ+BDUA--0" -148 684 mark 0
LayerCount: 2
Fore
SplineSet
-343 464 m 1,0,-1
 -402 502 l 1,1,-1
 -266 589 l 1,2,-1
 -343 638 l 1,3,-1
 -479 551 l 1,4,-1
 -538 589 l 1,5,-1
 -343 714 l 1,6,-1
 -207 627 l 1,7,-1
 -148 589 l 1,8,-1
 -207 551 l 1,9,-1
 -343 464 l 1,0,-1
-148 684 m 1,10,-1
 -54 684 l 1,11,-1
 -54 414 l 1,12,-1
 -148 464 l 1,13,-1
 -148 684 l 1,10,-1
EndSplineSet
EndChar

StartChar: jha-soyo
Encoding: 25 72292 116
Width: 590
GlyphClass: 2
Flags: MW
HStem: 589 125<218.235 241.789>
VStem: 32 66<420 514> 422 94<0 703>
AnchorPoint: "+BBEENQQ3BEsEPARPBD0EPQQ+BDUA--1" 230 714 basechar 0
AnchorPoint: "+BBEENQQ3BEsEPARPBD0EPQQ+BDUA--0" 422 0 basechar 0
LayerCount: 2
Fore
SplineSet
30 714 m 1,0,-1
 516 714 l 1,1,-1
 516 -50 l 1,2,-1
 422 0 l 1,3,-1
 422 703 l 1,4,-1
 230 589 l 1,5,-1
 30 708 l 1,6,-1
 30 714 l 1,0,-1
227 159 m 1,7,-1
 175 211 l 1,8,-1
 318 354 l 1,9,-1
 227 445 l 1,10,-1
 84 302 l 1,11,-1
 32 354 l 1,12,-1
 32 549 l 1,13,-1
 98 514 l 1,14,-1
 98 420 l 1,15,-1
 227 549 l 1,16,-1
 422 354 l 1,17,-1
 227 159 l 1,7,-1
EndSplineSet
MultipleSubs2: "Multiple Substitution lookup 66 subtable" head-soyo jhaSub-soyo
EndChar

StartChar: jhaSub-soyo
Encoding: 173 -1 117
Width: 0
GlyphClass: 4
Flags: W
VStem: -538 66<585 679> -148 94<324 714>
AnchorPoint: "+BBEENQQ3BEsEPARPBD0EPQQ+BDUA--2" -148 324 basemark 0
AnchorPoint: "+BBEENQQ3BEsEPARPBD0EPQQ+BDUA--2" -148 714 mark 0
AnchorPoint: "+BBEENQQ3BEsEPARPBD0EPQQ+BDUA--0" -148 714 mark 0
LayerCount: 2
Fore
SplineSet
-148 714 m 1,0,-1
 -54 714 l 1,1,-1
 -54 274 l 1,2,-1
 -148 324 l 1,3,-1
 -148 714 l 1,0,-1
-343 324 m 1,4,-1
 -395 376 l 1,5,-1
 -252 519 l 1,6,-1
 -343 610 l 1,7,-1
 -486 467 l 1,8,-1
 -538 519 l 1,9,-1
 -538 714 l 1,10,-1
 -472 679 l 1,11,-1
 -472 585 l 1,12,-1
 -343 714 l 1,13,-1
 -148 519 l 1,14,-1
 -343 324 l 1,4,-1
EndSplineSet
Substitution2: "Single Substitution lookup 279 subtable" jhaSub-soyo.ini2
Substitution2: "Single Substitution lookup 277 subtable" jhaSub-soyo.2
Substitution2: "Single Substitution lookup 276 subtable" jhaSub-soyo.ini2
Substitution2: "Single Substitution lookup 274 subtable" jhaSub-soyo.3
Substitution2: "Single Substitution lookup 272 subtable" jhaSub-soyo.ini3
Substitution2: "Single Substitution lookup 270 subtable" jhaSub-soyo.3
Substitution2: "Single Substitution lookup 269 subtable" jhaSub-soyo.3
Substitution2: "Single Substitution lookup 268 subtable" jhaSub-soyo.3
Substitution2: "Single Substitution lookup 267 subtable" jhaSub-soyo.3
Substitution2: "Single Substitution lookup 266 subtable" jhaSub-soyo.3
Substitution2: "Single Substitution lookup 265 subtable" jhaSub-soyo.3
Substitution2: "Single Substitution lookup 264 subtable" jhaSub-soyo.3
Substitution2: "Single Substitution lookup 263 subtable" jhaSub-soyo.3
Substitution2: "Single Substitution lookup 262 subtable" jhaSub-soyo.3
Substitution2: "Single Substitution lookup 260 subtable" jhaSub-soyo.ini3
Ligature2: "'half' Half Forms in Soyombo lookup 188 subtable" subjoiner-soyo jha-soyo
MultipleSubs2: "Multiple Substitution lookup 150 subtable" jhaSub-soyo joiner-soyo.right
MultipleSubs2: "Multiple Substitution lookup 108 subtable" jhaSub-soyo tail-soyo.long
EndChar

StartChar: jhaSub-soyo.2
Encoding: 174 -1 118
Width: 0
GlyphClass: 4
Flags: W
VStem: -538 66<608 679> -148 94<394 714>
AnchorPoint: "+BBEENQQ3BEsEPARPBD0EPQQ+BDUA--2" -148 394 basemark 0
AnchorPoint: "+BBEENQQ3BEsEPARPBD0EPQQ+BDUA--2" -148 714 mark 0
AnchorPoint: "+BBEENQQ3BEsEPARPBD0EPQQ+BDUA--0" -148 714 mark 0
LayerCount: 2
Fore
SplineSet
-148 714 m 1,0,-1
 -54 714 l 1,1,-1
 -54 344 l 1,2,-1
 -148 394 l 1,3,-1
 -148 714 l 1,0,-1
-343 394 m 1,4,-1
 -398 439 l 1,5,-1
 -258 554 l 1,6,-1
 -342 623 l 1,7,-1
 -482 509 l 1,8,-1
 -538 554 l 1,9,-1
 -538 714 l 1,10,-1
 -472 679 l 1,11,-1
 -472 608 l 1,12,-1
 -398 669 l 1,13,-1
 -343 714 l 1,14,-1
 -287 669 l 1,15,-1
 -288 669 l 1,16,-1
 -148 554 l 1,17,-1
 -343 394 l 1,4,-1
EndSplineSet
EndChar

StartChar: jhaSub-soyo.3
Encoding: 175 -1 119
Width: 0
GlyphClass: 4
Flags: W
HStem: 414 300
VStem: -538 66<631 679> -148 94<464 714>
AnchorPoint: "+BBEENQQ3BEsEPARPBD0EPQQ+BDUA--2" -148 464 basemark 0
AnchorPoint: "+BBEENQQ3BEsEPARPBD0EPQQ+BDUA--2" -148 714 mark 0
AnchorPoint: "+BBEENQQ3BEsEPARPBD0EPQQ+BDUA--0" -148 714 mark 0
LayerCount: 2
Fore
SplineSet
-148 714 m 1,0,-1
 -54 714 l 1,1,-1
 -54 414 l 1,2,-1
 -148 464 l 1,3,-1
 -148 714 l 1,0,-1
-343 464 m 1,4,-1
 -402 502 l 1,5,-1
 -266 589 l 1,6,-1
 -343 638 l 1,7,-1
 -479 551 l 1,8,-1
 -538 589 l 1,9,-1
 -538 714 l 1,10,-1
 -472 679 l 1,11,-1
 -472 631 l 1,12,-1
 -343 714 l 1,13,-1
 -207 627 l 1,14,-1
 -148 589 l 1,15,-1
 -207 551 l 1,16,-1
 -343 464 l 1,4,-1
EndSplineSet
EndChar

StartChar: jhaSub-soyo.ini2
Encoding: 176 -1 120
Width: 0
GlyphClass: 4
Flags: W
VStem: -538 66<608 679> -148 94<394 684>
AnchorPoint: "+BBEENQQ3BEsEPARPBD0EPQQ+BDUA--2" -148 394 basemark 0
AnchorPoint: "+BBEENQQ3BEsEPARPBD0EPQQ+BDUA--2" -148 684 mark 0
AnchorPoint: "+BBEENQQ3BEsEPARPBD0EPQQ+BDUA--0" -148 684 mark 0
LayerCount: 2
Fore
SplineSet
-343 394 m 1,0,-1
 -398 439 l 1,1,-1
 -258 554 l 1,2,-1
 -342 623 l 1,3,-1
 -482 509 l 1,4,-1
 -538 554 l 1,5,-1
 -538 714 l 1,6,-1
 -472 679 l 1,7,-1
 -472 608 l 1,8,-1
 -398 669 l 1,9,-1
 -343 714 l 1,10,-1
 -287 669 l 1,11,-1
 -288 669 l 1,12,-1
 -148 554 l 1,13,-1
 -343 394 l 1,0,-1
-148 684 m 1,14,-1
 -54 684 l 1,15,-1
 -54 344 l 1,16,-1
 -148 394 l 1,17,-1
 -148 684 l 1,14,-1
EndSplineSet
EndChar

StartChar: jhaSub-soyo.ini3
Encoding: 177 -1 121
Width: 0
GlyphClass: 4
Flags: W
HStem: 414 300
VStem: -538 66<631 679> -148 94<464 684>
AnchorPoint: "+BBEENQQ3BEsEPARPBD0EPQQ+BDUA--2" -148 464 basemark 0
AnchorPoint: "+BBEENQQ3BEsEPARPBD0EPQQ+BDUA--2" -148 684 mark 0
AnchorPoint: "+BBEENQQ3BEsEPARPBD0EPQQ+BDUA--0" -148 684 mark 0
LayerCount: 2
Fore
SplineSet
-343 464 m 1,0,-1
 -402 502 l 1,1,-1
 -266 589 l 1,2,-1
 -343 638 l 1,3,-1
 -479 551 l 1,4,-1
 -538 589 l 1,5,-1
 -538 714 l 1,6,-1
 -472 679 l 1,7,-1
 -472 631 l 1,8,-1
 -343 714 l 1,9,-1
 -207 627 l 1,10,-1
 -148 589 l 1,11,-1
 -207 551 l 1,12,-1
 -343 464 l 1,0,-1
-148 684 m 1,13,-1
 -54 684 l 1,14,-1
 -54 414 l 1,15,-1
 -148 464 l 1,16,-1
 -148 684 l 1,13,-1
EndSplineSet
EndChar

StartChar: jihvamuliya-soyo
Encoding: 57 72324 122
Width: 620
GlyphClass: 2
Flags: W
HStem: 508 44<167 393> 670 44<167 393>
AnchorPoint: "+BBEENQQ3BEsEPARPBD0EPQQ+BDUA--1" 260 714 basechar 0
AnchorPoint: "+BBEENQQ3BEsEPARPBD0EPQQ+BDUA--0" 452 468 basechar 0
LayerCount: 2
Fore
SplineSet
393 552 m 1,0,-1
 280 592 l 1,1,-1
 167 552 l 1,2,-1
 393 552 l 1,0,-1
167 670 m 1,3,-1
 280 630 l 1,4,-1
 393 670 l 1,5,-1
 167 670 l 1,3,-1
60 552 m 1,6,-1
 227 611 l 1,7,-1
 60 670 l 1,8,-1
 60 714 l 1,9,-1
 500 714 l 1,10,-1
 500 670 l 1,11,-1
 334 611 l 1,12,-1
 500 552 l 1,13,-1
 500 508 l 1,14,-1
 60 508 l 1,15,-1
 60 552 l 1,6,-1
EndSplineSet
Substitution2: "'pref' Pre Base Forms in Soyombo lookup 187 subtable" jihvamuliya-soyo
Position2: "Single Positioning lookup 60 subtable" dx=40 dy=0 dh=40 dv=0
Position2: "Single Positioning lookup 58 subtable" dx=40 dy=0 dh=40 dv=0
Position2: "Single Positioning lookup 56 subtable" dx=50 dy=0 dh=50 dv=0
Position2: "Single Positioning lookup 54 subtable" dx=50 dy=0 dh=50 dv=0
Position2: "Single Positioning lookup 52 subtable" dx=60 dy=0 dh=60 dv=0
Position2: "Single Positioning lookup 50 subtable" dx=60 dy=0 dh=60 dv=0
Position2: "Single Positioning lookup 48 subtable" dx=70 dy=0 dh=70 dv=0
Position2: "Single Positioning lookup 46 subtable" dx=70 dy=0 dh=70 dv=0
Position2: "Single Positioning lookup 44 subtable" dx=80 dy=0 dh=80 dv=0
Position2: "Single Positioning lookup 29 subtable" dx=-50 dy=0 dh=-50 dv=0
Position2: "Single Positioning lookup 28 subtable" dx=-40 dy=0 dh=-40 dv=0
Position2: "Single Positioning lookup 27 subtable" dx=-30 dy=0 dh=-30 dv=0
Position2: "Single Positioning lookup 26 subtable" dx=-20 dy=0 dh=-20 dv=0
Position2: "Single Positioning lookup 25 subtable" dx=-10 dy=0 dh=-10 dv=0
Position2: "Single Positioning lookup 24 subtable" dx=10 dy=0 dh=10 dv=0
Position2: "Single Positioning lookup 23 subtable" dx=40 dy=0 dh=40 dv=0
Position2: "Single Positioning lookup 22 subtable" dx=50 dy=0 dh=50 dv=0
EndChar

StartChar: joiner-soyo.both.nonSpacing
Encoding: 179 -1 124
Width: 0
GlyphClass: 4
Flags: W
HStem: 664 150<-387 -293>
VStem: -387 94<664 814> -148 94<614 814>
AnchorPoint: "+BBEENQQ3BEsEPARPBD0EPQQ+BDUA--2" -148 714 basemark 0
AnchorPoint: "+BBEENQQ3BEsEPARPBD0EPQQ+BDUA--2" -148 714 mark 0
AnchorPoint: "+BBEENQQ3BEsEPARPBD0EPQQ+BDUA--0" -148 714 mark 0
LayerCount: 2
Fore
SplineSet
-387 814 m 1,0,-1
 -293 814 l 1,1,-1
 -293 664 l 1,2,-1
 -387 664 l 1,3,-1
 -387 814 l 1,0,-1
-148 814 m 1,4,-1
 -54 814 l 1,5,-1
 -54 614 l 1,6,-1
 -148 614 l 1,7,-1
 -148 814 l 1,4,-1
EndSplineSet
EndChar

StartChar: joiner-soyo.both.tight
Encoding: 180 -1 125
Width: 0
GlyphClass: 4
Flags: W
HStem: 644 120<-387 -293> 644 80<-148 -54>
VStem: -387 94<644 764> -148 94<644 724>
AnchorPoint: "+BBEENQQ3BEsEPARPBD0EPQQ+BDUA--2" -148 694 basemark 0
AnchorPoint: "+BBEENQQ3BEsEPARPBD0EPQQ+BDUA--2" -148 714 mark 0
AnchorPoint: "+BBEENQQ3BEsEPARPBD0EPQQ+BDUA--0" -148 714 mark 0
LayerCount: 2
Fore
SplineSet
-387 764 m 1,0,-1
 -293 764 l 1,1,-1
 -293 644 l 1,2,-1
 -387 644 l 1,3,-1
 -387 764 l 1,0,-1
-148 724 m 1,4,-1
 -54 724 l 1,5,-1
 -54 644 l 1,6,-1
 -148 644 l 1,7,-1
 -148 724 l 1,4,-1
EndSplineSet
EndChar

StartChar: joiner-soyo.mid
Encoding: 181 -1 126
Width: 0
GlyphClass: 4
Flags: W
HStem: 614 200<-387 -293>
VStem: -387 94<614 814>
AnchorPoint: "+BBEENQQ3BEsEPARPBD0EPQQ+BDUA--2" -148 664 basemark 0
AnchorPoint: "+BBEENQQ3BEsEPARPBD0EPQQ+BDUA--2" -148 714 mark 0
AnchorPoint: "+BBEENQQ3BEsEPARPBD0EPQQ+BDUA--0" -148 714 mark 0
LayerCount: 2
Fore
SplineSet
-387 814 m 1,0,-1
 -293 814 l 1,1,-1
 -293 614 l 1,2,-1
 -387 614 l 1,3,-1
 -387 814 l 1,0,-1
EndSplineSet
EndChar

StartChar: joiner-soyo.right
Encoding: 182 -1 127
Width: 0
GlyphClass: 4
Flags: W
HStem: 514 250<-148 -54>
VStem: -148 94<514 764>
AnchorPoint: "+BBEENQQ3BEsEPARPBD0EPQQ+BDUA--2" -148 664 basemark 0
AnchorPoint: "+BBEENQQ3BEsEPARPBD0EPQQ+BDUA--2" -148 714 mark 0
AnchorPoint: "+BBEENQQ3BEsEPARPBD0EPQQ+BDUA--0" -148 714 mark 0
LayerCount: 2
Fore
SplineSet
-148 764 m 1,0,-1
 -54 764 l 1,1,-1
 -54 514 l 1,2,-1
 -148 514 l 1,3,-1
 -148 764 l 1,0,-1
EndSplineSet
Substitution2: "Single Substitution lookup 246 subtable" joiner-soyo.right.tight
Substitution2: "Single Substitution lookup 245 subtable" joiner-soyo.right.tight
Substitution2: "Single Substitution lookup 243 subtable" joiner-soyo.blank
Substitution2: "Single Substitution lookup 242 subtable" joiner-soyo.mid
Substitution2: "Single Substitution lookup 241 subtable" joiner-soyo.both.nonSpacing
EndChar

StartChar: joiner-soyo.right.tight
Encoding: 183 -1 128
Width: 0
GlyphClass: 4
Flags: W
HStem: 594 220<-148 -54>
VStem: -148 94<594 814>
AnchorPoint: "+BBEENQQ3BEsEPARPBD0EPQQ+BDUA--2" -148 694 basemark 0
AnchorPoint: "+BBEENQQ3BEsEPARPBD0EPQQ+BDUA--2" -148 714 mark 0
AnchorPoint: "+BBEENQQ3BEsEPARPBD0EPQQ+BDUA--0" -148 714 mark 0
LayerCount: 2
Fore
SplineSet
-148 814 m 1,0,-1
 -54 814 l 1,1,-1
 -54 594 l 1,2,-1
 -148 594 l 1,3,-1
 -148 814 l 1,0,-1
EndSplineSet
EndChar

StartChar: kFinal-soyo
Encoding: 64 72331 129
Width: 0
GlyphClass: 4
Flags: W
HStem: 126 44<-269.387 -123>
VStem: -377 74<7.29993 96.3685>
AnchorPoint: "+BBEENQQ3BEsEPARPBD0EPQQ+BDUA--2" -148 0 basemark 0
AnchorPoint: "+BBEENQQ3BEsEPARPBD0EPQQ+BDUA--2" -148 0 mark 0
AnchorPoint: "+BBEENQQ3BEsEPARPBD0EPQQ+BDUA--0" -148 0 mark 0
LayerCount: 2
Fore
SplineSet
-325 0 m 0,0,1
 -377 0 -377 0 -377 54 c 0,2,3
 -377 170 -377 170 -141 170 c 2,4,-1
 -123 170 l 1,5,-1
 -123 126 l 1,6,-1
 -141 126 l 2,7,8
 -229 126 -229 126 -266 106.5 c 128,-1,9
 -303 87 -303 87 -303 50 c 0,10,11
 -303 27 -303 27 -294 7 c 1,12,13
 -307 0 -307 0 -325 0 c 0,0,1
EndSplineSet
MultipleSubs2: "Multiple Substitution lookup 229 subtable" kFinal-soyo tail-soyo
Substitution2: "Single Substitution lookup 226 subtable" kFinal-soyo.half
Substitution2: "Single Substitution lookup 225 subtable" kFinal-soyo.half
Substitution2: "Single Substitution lookup 220 subtable" kFinal-soyo
Substitution2: "Single Substitution lookup 55 subtable" lVocalicMatra-soyo
Substitution2: "Single Substitution lookup 54 subtable" rVocalicMatra-soyo
Substitution2: "Single Substitution lookup 53 subtable" oeMatra-soyo
Substitution2: "Single Substitution lookup 52 subtable" oMatra-soyo
Substitution2: "Single Substitution lookup 51 subtable" eMatra-soyo
Substitution2: "Single Substitution lookup 50 subtable" uMatra-soyo
Substitution2: "Single Substitution lookup 49 subtable" ueMatra-soyo
Substitution2: "Single Substitution lookup 48 subtable" iMatra-soyo
Substitution2: "Single Substitution lookup 34 subtable" aFinal-soyo
Substitution2: "Single Substitution lookup 33 subtable" vowelLength-soyo
Substitution2: "Single Substitution lookup 19 subtable" visagra-soyo
Substitution2: "Single Substitution lookup 18 subtable" auMatra-soyo
Substitution2: "Single Substitution lookup 17 subtable" aiMatra-soyo
Substitution2: "Single Substitution lookup 16 subtable" visagra-soyo
Substitution2: "Single Substitution lookup 15 subtable" auMatra-soyo
Substitution2: "Single Substitution lookup 14 subtable" aiMatra-soyo
EndChar

StartChar: kFinal-soyo.half
Encoding: 184 -1 130
Width: 0
GlyphClass: 4
Flags: W
HStem: 0 21G<-286 -251> 126 44<-218.4 -123>
VStem: -312 74<7.29993 106.663>
AnchorPoint: "+BBEENQQ3BEsEPARPBD0EPQQ+BDUA--2" -148 0 basemark 0
AnchorPoint: "+BBEENQQ3BEsEPARPBD0EPQQ+BDUA--2" -148 0 mark 0
AnchorPoint: "+BBEENQQ3BEsEPARPBD0EPQQ+BDUA--0" -148 0 mark 0
LayerCount: 2
Fore
SplineSet
-260 0 m 0,0,1
 -312 0 -312 0 -312 54 c 0,2,3
 -312 170 -312 170 -156 170 c 2,4,-1
 -123 170 l 1,5,-1
 -123 126 l 1,6,-1
 -156 126 l 2,7,8
 -200 126 -200 126 -219 106.5 c 128,-1,9
 -238 87 -238 87 -238 50 c 0,10,11
 -238 27 -238 27 -229 7 c 1,12,13
 -242 0 -242 0 -260 0 c 0,0,1
EndSplineSet
EndChar

StartChar: ka-soyo
Encoding: 17 72284 131
Width: 670
GlyphClass: 2
Flags: MW
HStem: 242 50<177.508 263> 328 50<357 502> 617 97
VStem: 24 94<349.583 530.843> 263 94<191 242 292 328 378 617> 502 94<0 328 378 574>
CounterMasks: 1 1c
AnchorPoint: "+BBEENQQ3BEsEPARPBD0EPQQ+BDUA--1" 310 714 basechar 0
AnchorPoint: "+BBEENQQ3BEsEPARPBD0EPQQ+BDUA--0" 502 0 basechar 0
LayerCount: 2
Fore
SplineSet
103 558 m 0,0,1
 127 558 127 558 148 546 c 1,2,3
 132 523 132 523 125 495 c 128,-1,4
 118 467 118 467 118 435 c 0,5,6
 118 297 118 297 263 292 c 1,7,-1
 263 617 l 1,8,-1
 110 708 l 1,9,-1
 110 714 l 1,10,-1
 510 714 l 1,11,-1
 510 708 l 1,12,-1
 357 617 l 1,13,-1
 357 378 l 1,14,-1
 502 378 l 1,15,-1
 502 574 l 1,16,-1
 596 634 l 1,17,-1
 596 -50 l 1,18,-1
 502 0 l 1,19,-1
 502 328 l 1,20,-1
 357 328 l 1,21,-1
 357 141 l 1,22,-1
 263 191 l 1,23,-1
 263 242 l 1,24,25
 148 244 148 244 86 294 c 128,-1,26
 24 344 24 344 24 441 c 0,27,28
 24 558 24 558 103 558 c 0,0,1
EndSplineSet
MultipleSubs2: "Multiple Substitution lookup 58 subtable" head-soyo kaSub-soyo
EndChar

StartChar: kaSub-soyo
Encoding: 185 -1 132
Width: 0
GlyphClass: 4
Flags: W
HStem: 357 50<-472.492 -387> 443 50<-293 -148>
VStem: -626 94<464.583 645.843> -387 94<306 357 407 443 493 754> -148 94<256 443 493 664>
CounterMasks: 1 38
AnchorPoint: "+BBEENQQ3BEsEPARPBD0EPQQ+BDUA--2" -148 256 basemark 0
AnchorPoint: "+BBEENQQ3BEsEPARPBD0EPQQ+BDUA--2" -148 614 mark 0
AnchorPoint: "+BBEENQQ3BEsEPARPBD0EPQQ+BDUA--0" -148 614 mark 0
LayerCount: 2
Fore
SplineSet
-148 664 m 1,0,-1
 -54 714 l 1,1,-1
 -54 206 l 1,2,-1
 -148 256 l 1,3,-1
 -148 443 l 1,4,-1
 -293 443 l 1,5,-1
 -293 256 l 1,6,-1
 -387 306 l 1,7,-1
 -387 357 l 1,8,9
 -502 359 -502 359 -564 409 c 128,-1,10
 -626 459 -626 459 -626 556 c 0,11,12
 -626 673 -626 673 -547 673 c 0,13,14
 -523 673 -523 673 -502 661 c 1,15,16
 -518 638 -518 638 -525 610 c 128,-1,17
 -532 582 -532 582 -532 550 c 0,18,19
 -532 412 -532 412 -387 407 c 1,20,-1
 -387 754 l 1,21,-1
 -293 754 l 1,22,-1
 -293 493 l 1,23,-1
 -148 493 l 1,24,-1
 -148 664 l 1,0,-1
EndSplineSet
Substitution2: "Single Substitution lookup 279 subtable" kaSub-soyo.ini2
Substitution2: "Single Substitution lookup 277 subtable" kaSub-soyo.2
Substitution2: "Single Substitution lookup 276 subtable" kaSub-soyo.ini2
Substitution2: "Single Substitution lookup 274 subtable" kaSub-soyo.3
Substitution2: "Single Substitution lookup 272 subtable" kaSub-soyo.ini3
Substitution2: "Single Substitution lookup 270 subtable" kaSub-soyo.3
Substitution2: "Single Substitution lookup 269 subtable" kaSub-soyo.3
Substitution2: "Single Substitution lookup 268 subtable" kaSub-soyo.3
Substitution2: "Single Substitution lookup 267 subtable" kaSub-soyo.3
Substitution2: "Single Substitution lookup 266 subtable" kaSub-soyo.3
Substitution2: "Single Substitution lookup 265 subtable" kaSub-soyo.3
Substitution2: "Single Substitution lookup 264 subtable" kaSub-soyo.3
Substitution2: "Single Substitution lookup 263 subtable" kaSub-soyo.3
Substitution2: "Single Substitution lookup 262 subtable" kaSub-soyo.3
Substitution2: "Single Substitution lookup 260 subtable" kaSub-soyo.ini3
Ligature2: "'half' Half Forms in Soyombo lookup 188 subtable" subjoiner-soyo ka-soyo
MultipleSubs2: "Multiple Substitution lookup 142 subtable" kaSub-soyo joiner-soyo.right
MultipleSubs2: "Multiple Substitution lookup 100 subtable" kaSub-soyo tail-soyo.long
EndChar

StartChar: kaSub-soyo.2
Encoding: 186 -1 133
Width: 0
GlyphClass: 4
Flags: W
HStem: 416 50<-485.754 -387> 482 50<-293 -148>
VStem: -626 94<509.591 657.521> -387 94<376 416 466 482 532 714> -148 94<326 482 532 614>
CounterMasks: 1 38
AnchorPoint: "+BBEENQQ3BEsEPARPBD0EPQQ+BDUA--2" -148 326 basemark 0
AnchorPoint: "+BBEENQQ3BEsEPARPBD0EPQQ+BDUA--2" -148 714 mark 0
AnchorPoint: "+BBEENQQ3BEsEPARPBD0EPQQ+BDUA--0" -148 714 mark 0
LayerCount: 2
Fore
SplineSet
-148 614 m 1,0,-1
 -54 664 l 1,1,-1
 -54 276 l 1,2,-1
 -148 326 l 1,3,-1
 -148 482 l 1,4,-1
 -293 482 l 1,5,-1
 -293 326 l 1,6,-1
 -387 376 l 1,7,-1
 -387 416 l 1,8,9
 -503 416 -503 416 -564.5 458 c 128,-1,10
 -626 500 -626 500 -626 583 c 0,11,12
 -626 677 -626 677 -553 677 c 0,13,14
 -527 677 -527 677 -508 666 c 1,15,16
 -521 648 -521 648 -526.5 626 c 128,-1,17
 -532 604 -532 604 -532 579 c 0,18,19
 -532 524 -532 524 -496.5 495 c 128,-1,20
 -461 466 -461 466 -387 466 c 1,21,-1
 -387 714 l 1,22,-1
 -293 714 l 1,23,-1
 -293 532 l 1,24,-1
 -148 532 l 1,25,-1
 -148 614 l 1,0,-1
EndSplineSet
EndChar

StartChar: kaSub-soyo.3
Encoding: 187 -1 134
Width: 0
GlyphClass: 4
Flags: W
HStem: 499 50<-500.537 -387> 539 50<-293 -148>
VStem: -626 94<574.172 673.227> -387 94<476 499 589 714> -148 94<426 539 589 624>
CounterMasks: 1 38
AnchorPoint: "+BBEENQQ3BEsEPARPBD0EPQQ+BDUA--2" -148 426 basemark 0
AnchorPoint: "+BBEENQQ3BEsEPARPBD0EPQQ+BDUA--2" -148 714 mark 0
AnchorPoint: "+BBEENQQ3BEsEPARPBD0EPQQ+BDUA--0" -148 714 mark 0
LayerCount: 2
Fore
SplineSet
-148 624 m 1,0,-1
 -54 674 l 1,1,-1
 -54 376 l 1,2,-1
 -148 426 l 1,3,-1
 -148 539 l 1,4,-1
 -293 539 l 1,5,-1
 -293 426 l 1,6,-1
 -387 476 l 1,7,-1
 -387 499 l 1,8,-1
 -400 499 l 2,9,10
 -626 499 -626 499 -626 623 c 0,11,12
 -626 684 -626 684 -561 684 c 0,13,14
 -536 684 -536 684 -516 674 c 1,15,16
 -532 652 -532 652 -532 620 c 0,17,18
 -532 586 -532 586 -501.5 567.5 c 128,-1,19
 -471 549 -471 549 -400 549 c 2,20,-1
 -387 549 l 1,21,-1
 -387 714 l 1,22,-1
 -293 714 l 1,23,-1
 -293 589 l 1,24,-1
 -148 589 l 1,25,-1
 -148 624 l 1,0,-1
EndSplineSet
EndChar

StartChar: kaSub-soyo.ini2
Encoding: 188 -1 135
Width: 0
GlyphClass: 4
Flags: W
HStem: 416 50<-485.754 -387> 482 50<-293 -148>
VStem: -626 94<509.591 657.521> -387 94<376 416 466 482 532 754> -148 94<326 482 532 664>
CounterMasks: 1 38
AnchorPoint: "+BBEENQQ3BEsEPARPBD0EPQQ+BDUA--2" -148 326 basemark 0
AnchorPoint: "+BBEENQQ3BEsEPARPBD0EPQQ+BDUA--2" -148 614 mark 0
AnchorPoint: "+BBEENQQ3BEsEPARPBD0EPQQ+BDUA--0" -148 614 mark 0
LayerCount: 2
Fore
SplineSet
-148 664 m 1,0,-1
 -54 714 l 1,1,-1
 -54 276 l 1,2,-1
 -148 326 l 1,3,-1
 -148 482 l 1,4,-1
 -293 482 l 1,5,-1
 -293 326 l 1,6,-1
 -387 376 l 1,7,-1
 -387 416 l 1,8,9
 -503 416 -503 416 -564.5 458 c 128,-1,10
 -626 500 -626 500 -626 583 c 0,11,12
 -626 677 -626 677 -553 677 c 0,13,14
 -527 677 -527 677 -508 666 c 1,15,16
 -521 648 -521 648 -526.5 626 c 128,-1,17
 -532 604 -532 604 -532 579 c 0,18,19
 -532 524 -532 524 -496.5 495 c 128,-1,20
 -461 466 -461 466 -387 466 c 1,21,-1
 -387 754 l 1,22,-1
 -293 754 l 1,23,-1
 -293 532 l 1,24,-1
 -148 532 l 1,25,-1
 -148 664 l 1,0,-1
EndSplineSet
EndChar

StartChar: kaSub-soyo.ini3
Encoding: 189 -1 136
Width: 0
GlyphClass: 4
Flags: W
HStem: 499 50<-500.537 -387> 539 50<-293 -148>
VStem: -626 94<574.172 673.227> -387 94<476 499 589 754> -148 94<426 539 589 664>
CounterMasks: 1 38
AnchorPoint: "+BBEENQQ3BEsEPARPBD0EPQQ+BDUA--2" -148 426 basemark 0
AnchorPoint: "+BBEENQQ3BEsEPARPBD0EPQQ+BDUA--2" -148 614 mark 0
AnchorPoint: "+BBEENQQ3BEsEPARPBD0EPQQ+BDUA--0" -148 614 mark 0
LayerCount: 2
Fore
SplineSet
-148 664 m 1,0,-1
 -54 714 l 1,1,-1
 -54 376 l 1,2,-1
 -148 426 l 1,3,-1
 -148 539 l 1,4,-1
 -293 539 l 1,5,-1
 -293 426 l 1,6,-1
 -387 476 l 1,7,-1
 -387 499 l 1,8,-1
 -400 499 l 2,9,10
 -626 499 -626 499 -626 623 c 0,11,12
 -626 684 -626 684 -561 684 c 0,13,14
 -536 684 -536 684 -516 674 c 1,15,16
 -532 652 -532 652 -532 620 c 0,17,18
 -532 586 -532 586 -501.5 567.5 c 128,-1,19
 -471 549 -471 549 -400 549 c 2,20,-1
 -387 549 l 1,21,-1
 -387 754 l 1,22,-1
 -293 754 l 1,23,-1
 -293 589 l 1,24,-1
 -148 589 l 1,25,-1
 -148 664 l 1,0,-1
EndSplineSet
EndChar

StartChar: kha-soyo
Encoding: 18 72285 137
Width: 670
GlyphClass: 2
Flags: MW
HStem: 341 50<357 502> 508 50<177.508 263> 617 97
VStem: 24 94<269.157 450.417> 263 94<191 341 391 508 558 617> 502 94<0 341 391 574>
CounterMasks: 1 1c
AnchorPoint: "+BBEENQQ3BEsEPARPBD0EPQQ+BDUA--1" 310 714 basechar 0
AnchorPoint: "+BBEENQQ3BEsEPARPBD0EPQQ+BDUA--0" 502 0 basechar 0
LayerCount: 2
Fore
SplineSet
103 242 m 0,0,1
 24 242 24 242 24 359 c 0,2,3
 24 456 24 456 86 506 c 128,-1,4
 148 556 148 556 263 558 c 1,5,-1
 263 617 l 1,6,-1
 110 708 l 1,7,-1
 110 714 l 1,8,-1
 510 714 l 1,9,-1
 510 708 l 1,10,-1
 357 617 l 1,11,-1
 357 391 l 1,12,-1
 502 391 l 1,13,-1
 502 574 l 1,14,-1
 596 634 l 1,15,-1
 596 -50 l 1,16,-1
 502 0 l 1,17,-1
 502 341 l 1,18,-1
 357 341 l 1,19,-1
 357 141 l 1,20,-1
 263 191 l 1,21,-1
 263 508 l 1,22,23
 118 503 118 503 118 365 c 0,24,25
 118 333 118 333 125 305 c 128,-1,26
 132 277 132 277 148 254 c 1,27,28
 127 242 127 242 103 242 c 0,0,1
EndSplineSet
MultipleSubs2: "Multiple Substitution lookup 59 subtable" head-soyo khaSub-soyo
EndChar

StartChar: khaSub-soyo
Encoding: 190 -1 138
Width: 0
GlyphClass: 4
Flags: W
HStem: 456 50<-293 -148> 623 50<-472.492 -387>
VStem: -626 94<384.157 565.417> -387 94<306 456 506 623 673 754> -148 94<256 456 506 664>
CounterMasks: 1 38
AnchorPoint: "+BBEENQQ3BEsEPARPBD0EPQQ+BDUA--2" -148 256 basemark 0
AnchorPoint: "+BBEENQQ3BEsEPARPBD0EPQQ+BDUA--2" -148 614 mark 0
AnchorPoint: "+BBEENQQ3BEsEPARPBD0EPQQ+BDUA--0" -148 614 mark 0
LayerCount: 2
Fore
SplineSet
-547 357 m 0,0,1
 -626 357 -626 357 -626 474 c 0,2,3
 -626 571 -626 571 -564 621 c 128,-1,4
 -502 671 -502 671 -387 673 c 1,5,-1
 -387 754 l 1,6,-1
 -293 754 l 1,7,-1
 -293 506 l 1,8,-1
 -148 506 l 1,9,-1
 -148 664 l 1,10,-1
 -54 714 l 1,11,-1
 -54 206 l 1,12,-1
 -148 256 l 1,13,-1
 -148 456 l 1,14,-1
 -293 456 l 1,15,-1
 -293 256 l 1,16,-1
 -387 306 l 1,17,-1
 -387 623 l 1,18,19
 -532 618 -532 618 -532 480 c 0,20,21
 -532 448 -532 448 -525 420 c 128,-1,22
 -518 392 -518 392 -502 369 c 1,23,24
 -523 357 -523 357 -547 357 c 0,0,1
EndSplineSet
Substitution2: "Single Substitution lookup 279 subtable" khaSub-soyo.ini2
Substitution2: "Single Substitution lookup 277 subtable" khaSub-soyo.2
Substitution2: "Single Substitution lookup 276 subtable" khaSub-soyo.ini2
Substitution2: "Single Substitution lookup 274 subtable" khaSub-soyo.3
Substitution2: "Single Substitution lookup 272 subtable" khaSub-soyo.ini3
Substitution2: "Single Substitution lookup 270 subtable" khaSub-soyo.3
Substitution2: "Single Substitution lookup 269 subtable" khaSub-soyo.3
Substitution2: "Single Substitution lookup 268 subtable" khaSub-soyo.3
Substitution2: "Single Substitution lookup 267 subtable" khaSub-soyo.3
Substitution2: "Single Substitution lookup 266 subtable" khaSub-soyo.3
Substitution2: "Single Substitution lookup 265 subtable" khaSub-soyo.3
Substitution2: "Single Substitution lookup 264 subtable" khaSub-soyo.3
Substitution2: "Single Substitution lookup 263 subtable" khaSub-soyo.3
Substitution2: "Single Substitution lookup 262 subtable" khaSub-soyo.3
Substitution2: "Single Substitution lookup 260 subtable" khaSub-soyo.ini3
Ligature2: "'half' Half Forms in Soyombo lookup 188 subtable" subjoiner-soyo kha-soyo
MultipleSubs2: "Multiple Substitution lookup 143 subtable" khaSub-soyo joiner-soyo.right
MultipleSubs2: "Multiple Substitution lookup 101 subtable" khaSub-soyo tail-soyo.long
EndChar

StartChar: khaSub-soyo.2
Encoding: 191 -1 139
Width: 0
GlyphClass: 4
Flags: W
HStem: 512 50<-293 -148> 628 50<-488.354 -387>
VStem: -626 94<446.348 588.999> -387 94<391 512 562 628 678 714> -148 94<341 512 562 614>
CounterMasks: 1 38
AnchorPoint: "+BBEENQQ3BEsEPARPBD0EPQQ+BDUA--2" -148 341 basemark 0
AnchorPoint: "+BBEENQQ3BEsEPARPBD0EPQQ+BDUA--2" -148 714 mark 0
AnchorPoint: "+BBEENQQ3BEsEPARPBD0EPQQ+BDUA--0" -148 714 mark 0
LayerCount: 2
Fore
SplineSet
-148 614 m 1,0,-1
 -54 664 l 1,1,-1
 -54 291 l 1,2,-1
 -148 341 l 1,3,-1
 -148 512 l 1,4,-1
 -293 512 l 1,5,-1
 -293 341 l 1,6,-1
 -387 391 l 1,7,-1
 -387 628 l 1,8,-1
 -389 628 l 2,9,10
 -463 628 -463 628 -497.5 601 c 128,-1,11
 -532 574 -532 574 -532 522 c 0,12,13
 -532 472 -532 472 -509 439 c 1,14,15
 -528 428 -528 428 -554 428 c 0,16,17
 -626 428 -626 428 -626 517 c 0,18,19
 -626 597 -626 597 -565.5 637.5 c 128,-1,20
 -505 678 -505 678 -389 678 c 2,21,-1
 -387 678 l 1,22,-1
 -387 714 l 1,23,-1
 -293 714 l 1,24,-1
 -293 562 l 1,25,-1
 -148 562 l 1,26,-1
 -148 614 l 1,0,-1
EndSplineSet
EndChar

StartChar: khaSub-soyo.3
Encoding: 192 -1 140
Width: 0
GlyphClass: 4
Flags: W
HStem: 569 50<-293 -148> 634 50<-500.537 -387>
VStem: -626 94<509.773 609.138> -387 94<476 569 619 634 684 714> -148 94<426 569 619 634>
CounterMasks: 1 38
AnchorPoint: "+BBEENQQ3BEsEPARPBD0EPQQ+BDUA--2" -148 426 basemark 0
AnchorPoint: "+BBEENQQ3BEsEPARPBD0EPQQ+BDUA--2" -148 714 mark 0
AnchorPoint: "+BBEENQQ3BEsEPARPBD0EPQQ+BDUA--0" -148 714 mark 0
LayerCount: 2
Fore
SplineSet
-148 634 m 1,0,-1
 -54 684 l 1,1,-1
 -54 376 l 1,2,-1
 -148 426 l 1,3,-1
 -148 569 l 1,4,-1
 -293 569 l 1,5,-1
 -293 426 l 1,6,-1
 -387 476 l 1,7,-1
 -387 634 l 1,8,-1
 -400 634 l 2,9,10
 -471 634 -471 634 -501.5 616 c 128,-1,11
 -532 598 -532 598 -532 563 c 0,12,13
 -532 531 -532 531 -516 509 c 1,14,15
 -536 499 -536 499 -561 499 c 0,16,17
 -626 499 -626 499 -626 560 c 0,18,19
 -626 684 -626 684 -400 684 c 2,20,-1
 -387 684 l 1,21,-1
 -387 714 l 1,22,-1
 -293 714 l 1,23,-1
 -293 619 l 1,24,-1
 -148 619 l 1,25,-1
 -148 634 l 1,0,-1
EndSplineSet
EndChar

StartChar: khaSub-soyo.ini2
Encoding: 193 -1 141
Width: 0
GlyphClass: 4
Flags: W
HStem: 512 50<-293 -148> 628 50<-488.354 -387>
VStem: -626 94<446.348 588.999> -387 94<391 512 562 628 678 754> -148 94<341 512 562 664>
CounterMasks: 1 38
AnchorPoint: "+BBEENQQ3BEsEPARPBD0EPQQ+BDUA--2" -148 341 basemark 0
AnchorPoint: "+BBEENQQ3BEsEPARPBD0EPQQ+BDUA--2" -148 614 mark 0
AnchorPoint: "+BBEENQQ3BEsEPARPBD0EPQQ+BDUA--0" -148 614 mark 0
LayerCount: 2
Fore
SplineSet
-148 664 m 1,0,-1
 -54 714 l 1,1,-1
 -54 291 l 1,2,-1
 -148 341 l 1,3,-1
 -148 512 l 1,4,-1
 -293 512 l 1,5,-1
 -293 341 l 1,6,-1
 -387 391 l 1,7,-1
 -387 628 l 1,8,-1
 -389 628 l 2,9,10
 -463 628 -463 628 -497.5 601 c 128,-1,11
 -532 574 -532 574 -532 522 c 0,12,13
 -532 472 -532 472 -509 439 c 1,14,15
 -528 428 -528 428 -554 428 c 0,16,17
 -626 428 -626 428 -626 517 c 0,18,19
 -626 597 -626 597 -565.5 637.5 c 128,-1,20
 -505 678 -505 678 -389 678 c 2,21,-1
 -387 678 l 1,22,-1
 -387 754 l 1,23,-1
 -293 754 l 1,24,-1
 -293 562 l 1,25,-1
 -148 562 l 1,26,-1
 -148 664 l 1,0,-1
EndSplineSet
EndChar

StartChar: khaSub-soyo.ini3
Encoding: 194 -1 142
Width: 0
GlyphClass: 4
Flags: W
HStem: 569 50<-293 -148> 634 50<-500.537 -387>
VStem: -626 94<509.773 609.138> -387 94<476 569 619 634 684 754> -148 94<426 569 619 664>
CounterMasks: 1 38
AnchorPoint: "+BBEENQQ3BEsEPARPBD0EPQQ+BDUA--2" -148 426 basemark 0
AnchorPoint: "+BBEENQQ3BEsEPARPBD0EPQQ+BDUA--2" -148 614 mark 0
AnchorPoint: "+BBEENQQ3BEsEPARPBD0EPQQ+BDUA--0" -148 614 mark 0
LayerCount: 2
Fore
SplineSet
-148 664 m 1,0,-1
 -54 714 l 1,1,-1
 -54 376 l 1,2,-1
 -148 426 l 1,3,-1
 -148 569 l 1,4,-1
 -293 569 l 1,5,-1
 -293 426 l 1,6,-1
 -387 476 l 1,7,-1
 -387 634 l 1,8,-1
 -400 634 l 2,9,10
 -471 634 -471 634 -501.5 616 c 128,-1,11
 -532 598 -532 598 -532 563 c 0,12,13
 -532 531 -532 531 -516 509 c 1,14,15
 -536 499 -536 499 -561 499 c 0,16,17
 -626 499 -626 499 -626 560 c 0,18,19
 -626 684 -626 684 -400 684 c 2,20,-1
 -387 684 l 1,21,-1
 -387 754 l 1,22,-1
 -293 754 l 1,23,-1
 -293 619 l 1,24,-1
 -148 619 l 1,25,-1
 -148 664 l 1,0,-1
EndSplineSet
EndChar

StartChar: kssa-soyo
Encoding: 56 72323 143
Width: 660
GlyphClass: 2
Flags: MW
HStem: 50 64<203.826 342.545> 326 50<147.75 253> 384 50<347 492> 617 97
VStem: 14 94<413.039 546.793> 124 74<122.333 193.913> 253 94<265.561 326 376 384 434 617> 492 94<0 384 434 574>
AnchorPoint: "+BBEENQQ3BEsEPARPBD0EPQQ+BDUA--1" 300 714 basechar 0
AnchorPoint: "+BBEENQQ3BEsEPARPBD0EPQQ+BDUA--0" 492 0 basechar 0
LayerCount: 2
Fore
SplineSet
250 50 m 0,0,1
 193 50 193 50 158.5 76.5 c 128,-1,2
 124 103 124 103 124 150 c 0,3,4
 124 199 124 199 159.5 227.5 c 128,-1,5
 195 256 195 256 253 272 c 1,6,-1
 253 326 l 1,7,-1
 249 326 l 2,8,9
 134 326 134 326 74 365 c 128,-1,10
 14 404 14 404 14 480 c 0,11,12
 14 564 14 564 85 564 c 0,13,14
 110 564 110 564 130 554 c 1,15,16
 108 522 108 522 108 476 c 0,17,18
 108 427 108 427 142 401.5 c 128,-1,19
 176 376 176 376 249 376 c 2,20,-1
 253 376 l 1,21,-1
 253 617 l 1,22,-1
 100 708 l 1,23,-1
 100 714 l 5,24,-1
 500 714 l 1,25,-1
 500 708 l 1,26,-1
 347 617 l 1,27,-1
 347 434 l 1,28,-1
 492 434 l 1,29,-1
 492 574 l 1,30,-1
 586 634 l 1,31,-1
 586 -50 l 1,32,-1
 492 0 l 1,33,-1
 492 384 l 1,34,-1
 347 384 l 1,35,-1
 347 241 l 1,36,37
 265 221 265 221 231.5 202 c 128,-1,38
 198 183 198 183 198 156 c 0,39,40
 198 114 198 114 264 114 c 0,41,42
 302 114 302 114 338 125 c 1,43,-1
 358 76 l 1,44,45
 306 50 306 50 250 50 c 0,0,1
EndSplineSet
MultipleSubs2: "Multiple Substitution lookup 97 subtable" head-soyo kssaSub-soyo
EndChar

StartChar: kssaSub-soyo
Encoding: 195 -1 144
Width: 0
GlyphClass: 4
Flags: W
HStem: 165 64<-506.174 -367.455> 441 50<-562.25 -457> 499 50<-363 -218>
VStem: -696 94<528.039 661.793> -586 74<237.333 308.913> -457 94<380.561 441 491 499 549 754> -218 94<150 499 549 664>
AnchorPoint: "+BBEENQQ3BEsEPARPBD0EPQQ+BDUA--2" -218 150 basemark 0
AnchorPoint: "+BBEENQQ3BEsEPARPBD0EPQQ+BDUA--2" -218 664 mark 0
AnchorPoint: "+BBEENQQ3BEsEPARPBD0EPQQ+BDUA--0" -218 664 mark 0
LayerCount: 2
Fore
SplineSet
-460 165 m 0,0,1
 -517 165 -517 165 -551.5 191.5 c 128,-1,2
 -586 218 -586 218 -586 265 c 0,3,4
 -586 314 -586 314 -550.5 342.5 c 128,-1,5
 -515 371 -515 371 -457 387 c 1,6,-1
 -457 441 l 1,7,-1
 -461 441 l 2,8,9
 -576 441 -576 441 -636 480 c 128,-1,10
 -696 519 -696 519 -696 595 c 0,11,12
 -696 679 -696 679 -625 679 c 0,13,14
 -600 679 -600 679 -580 669 c 1,15,16
 -602 637 -602 637 -602 591 c 0,17,18
 -602 542 -602 542 -568 516.5 c 128,-1,19
 -534 491 -534 491 -461 491 c 2,20,-1
 -457 491 l 1,21,-1
 -457 754 l 1,22,-1
 -363 754 l 1,23,-1
 -363 549 l 1,24,-1
 -218 549 l 1,25,-1
 -218 664 l 1,26,-1
 -124 714 l 1,27,-1
 -124 100 l 1,28,-1
 -218 150 l 1,29,-1
 -218 499 l 1,30,-1
 -363 499 l 1,31,-1
 -363 356 l 1,32,33
 -445 336 -445 336 -478.5 317 c 128,-1,34
 -512 298 -512 298 -512 271 c 0,35,36
 -512 229 -512 229 -446 229 c 0,37,38
 -408 229 -408 229 -372 240 c 1,39,-1
 -352 191 l 1,40,41
 -404 165 -404 165 -460 165 c 0,0,1
EndSplineSet
Substitution2: "Single Substitution lookup 279 subtable" kssaSub-soyo.ini2
Substitution2: "Single Substitution lookup 277 subtable" kssaSub-soyo.2
Substitution2: "Single Substitution lookup 276 subtable" kssaSub-soyo.ini2
Substitution2: "Single Substitution lookup 274 subtable" kssaSub-soyo.3
Substitution2: "Single Substitution lookup 272 subtable" kssaSub-soyo.ini3
Substitution2: "Single Substitution lookup 270 subtable" kssaSub-soyo.3
Substitution2: "Single Substitution lookup 269 subtable" kssaSub-soyo.3
Substitution2: "Single Substitution lookup 268 subtable" kssaSub-soyo.3
Substitution2: "Single Substitution lookup 267 subtable" kssaSub-soyo.3
Substitution2: "Single Substitution lookup 266 subtable" kssaSub-soyo.3
Substitution2: "Single Substitution lookup 265 subtable" kssaSub-soyo.3
Substitution2: "Single Substitution lookup 264 subtable" kssaSub-soyo.3
Substitution2: "Single Substitution lookup 263 subtable" kssaSub-soyo.3
Substitution2: "Single Substitution lookup 262 subtable" kssaSub-soyo.3
Substitution2: "Single Substitution lookup 260 subtable" kssaSub-soyo.ini3
Ligature2: "'half' Half Forms in Soyombo lookup 188 subtable" subjoiner-soyo kssa-soyo
MultipleSubs2: "Multiple Substitution lookup 181 subtable" kssaSub-soyo joiner-soyo.right
MultipleSubs2: "Multiple Substitution lookup 139 subtable" kssaSub-soyo tail-soyo.long
EndChar

StartChar: kssaSub-soyo.2
Encoding: 196 -1 145
Width: 0
GlyphClass: 4
Flags: W
HStem: 238 64<-459.398 -317.471> 470 50<-516.062 -407> 519 50<-313 -168>
VStem: -646 94<550.816 667.863> -536 74<307.232 368.991> -407 94<435.988 470 569 714> -168 94<230 519 569 614>
AnchorPoint: "+BBEENQQ3BEsEPARPBD0EPQQ+BDUA--2" -168 230 basemark 0
AnchorPoint: "+BBEENQQ3BEsEPARPBD0EPQQ+BDUA--2" -168 714 mark 0
AnchorPoint: "+BBEENQQ3BEsEPARPBD0EPQQ+BDUA--0" -168 714 mark 0
LayerCount: 2
Fore
SplineSet
-416 238 m 0,0,1
 -470 238 -470 238 -503 262.5 c 128,-1,2
 -536 287 -536 287 -536 330 c 0,3,4
 -536 375 -536 375 -500.5 401 c 128,-1,5
 -465 427 -465 427 -407 442 c 1,6,-1
 -407 470 l 1,7,-1
 -415 470 l 2,8,9
 -646 470 -646 470 -646 609 c 0,10,11
 -646 682 -646 682 -578 682 c 0,12,13
 -552 682 -552 682 -533 671 c 1,14,15
 -552 645 -552 645 -552 606 c 0,16,17
 -552 564 -552 564 -520 542 c 128,-1,18
 -488 520 -488 520 -415 520 c 2,19,-1
 -407 520 l 1,20,-1
 -407 714 l 1,21,-1
 -313 714 l 1,22,-1
 -313 569 l 1,23,-1
 -168 569 l 1,24,-1
 -168 614 l 1,25,-1
 -74 664 l 1,26,-1
 -74 180 l 1,27,-1
 -168 230 l 1,28,-1
 -168 519 l 1,29,-1
 -313 519 l 1,30,-1
 -313 411 l 1,31,32
 -395 393 -395 393 -428.5 376 c 128,-1,33
 -462 359 -462 359 -462 336 c 0,34,35
 -462 302 -462 302 -403 302 c 0,36,37
 -384 302 -384 302 -362.5 305 c 128,-1,38
 -341 308 -341 308 -322 313 c 1,39,-1
 -302 264 l 1,40,41
 -357 238 -357 238 -416 238 c 0,0,1
EndSplineSet
EndChar

StartChar: kssaSub-soyo.3
Encoding: 197 -1 146
Width: 0
GlyphClass: 4
Flags: W
HStem: 302 64<-461.555 -318.107> 499 50<-520.537 -407> 539 50<-313 -168>
VStem: -646 94<574.172 673.227> -536 74<369.161 419.077> -407 94<481.721 499 589 714> -168 94<300 539 589 614>
AnchorPoint: "+BBEENQQ3BEsEPARPBD0EPQQ+BDUA--2" -168 300 basemark 0
AnchorPoint: "+BBEENQQ3BEsEPARPBD0EPQQ+BDUA--2" -168 714 mark 0
AnchorPoint: "+BBEENQQ3BEsEPARPBD0EPQQ+BDUA--0" -168 714 mark 0
LayerCount: 2
Fore
SplineSet
-421 302 m 0,0,1
 -473 302 -473 302 -504.5 324 c 128,-1,2
 -536 346 -536 346 -536 384 c 0,3,4
 -536 425 -536 425 -500.5 449.5 c 128,-1,5
 -465 474 -465 474 -407 487 c 1,6,-1
 -407 499 l 1,7,-1
 -420 499 l 2,8,9
 -646 499 -646 499 -646 623 c 0,10,11
 -646 684 -646 684 -581 684 c 0,12,13
 -556 684 -556 684 -536 674 c 1,14,15
 -552 652 -552 652 -552 620 c 0,16,17
 -552 586 -552 586 -521.5 567.5 c 128,-1,18
 -491 549 -491 549 -420 549 c 2,19,-1
 -407 549 l 1,20,-1
 -407 714 l 1,21,-1
 -313 714 l 1,22,-1
 -313 589 l 1,23,-1
 -168 589 l 1,24,-1
 -168 614 l 1,25,-1
 -74 664 l 1,26,-1
 -74 250 l 1,27,-1
 -168 300 l 1,28,-1
 -168 539 l 1,29,-1
 -313 539 l 1,30,-1
 -313 456 l 1,31,32
 -395 440 -395 440 -428.5 425.5 c 128,-1,33
 -462 411 -462 411 -462 390 c 0,34,35
 -462 366 -462 366 -409 366 c 0,36,37
 -364 366 -364 366 -322 377 c 1,38,-1
 -302 328 l 1,39,40
 -360 302 -360 302 -421 302 c 0,0,1
EndSplineSet
EndChar

StartChar: kssaSub-soyo.ini2
Encoding: 198 -1 147
Width: 0
GlyphClass: 4
Flags: W
HStem: 238 64<-509.398 -367.471> 470 50<-566.062 -457> 519 50<-363 -218>
VStem: -696 94<550.816 667.863> -586 74<307.232 368.991> -457 94<435.988 470 569 754> -218 94<230 519 569 634>
AnchorPoint: "+BBEENQQ3BEsEPARPBD0EPQQ+BDUA--2" -218 230 basemark 0
AnchorPoint: "+BBEENQQ3BEsEPARPBD0EPQQ+BDUA--2" -218 614 mark 0
AnchorPoint: "+BBEENQQ3BEsEPARPBD0EPQQ+BDUA--0" -218 614 mark 0
LayerCount: 2
Fore
SplineSet
-466 238 m 0,0,1
 -520 238 -520 238 -553 262.5 c 128,-1,2
 -586 287 -586 287 -586 330 c 0,3,4
 -586 375 -586 375 -550.5 401 c 128,-1,5
 -515 427 -515 427 -457 442 c 1,6,-1
 -457 470 l 1,7,-1
 -465 470 l 2,8,9
 -696 470 -696 470 -696 609 c 0,10,11
 -696 682 -696 682 -628 682 c 0,12,13
 -602 682 -602 682 -583 671 c 1,14,15
 -602 645 -602 645 -602 606 c 0,16,17
 -602 564 -602 564 -570 542 c 128,-1,18
 -538 520 -538 520 -465 520 c 2,19,-1
 -457 520 l 1,20,-1
 -457 754 l 1,21,-1
 -363 754 l 1,22,-1
 -363 569 l 1,23,-1
 -218 569 l 1,24,-1
 -218 634 l 1,25,-1
 -124 684 l 1,26,-1
 -124 180 l 1,27,-1
 -218 230 l 1,28,-1
 -218 519 l 1,29,-1
 -363 519 l 1,30,-1
 -363 411 l 1,31,32
 -445 393 -445 393 -478.5 376 c 128,-1,33
 -512 359 -512 359 -512 336 c 0,34,35
 -512 302 -512 302 -453 302 c 0,36,37
 -434 302 -434 302 -412.5 305 c 128,-1,38
 -391 308 -391 308 -372 313 c 1,39,-1
 -352 264 l 1,40,41
 -407 238 -407 238 -466 238 c 0,0,1
EndSplineSet
EndChar

